<?xml version="1.0" encoding="UTF-8" standalone="no"?>
<!DOCTYPE svg PUBLIC "-//W3C//DTD SVG 1.1//EN"
 "http://www.w3.org/Graphics/SVG/1.1/DTD/svg11.dtd">
<!-- Generated by graphviz version 2.38.0 (20140413.2041)
 -->
<!-- Title: BrickPi3.h Pages: 1 -->
<svg width="303pt" height="308pt"
 viewBox="0.00 0.00 303.12 308.00" xmlns="http://www.w3.org/2000/svg" xmlns:xlink="http://www.w3.org/1999/xlink">
<g id="graph0" class="graph" transform="scale(1 1) rotate(0) translate(4 304)">
<title>BrickPi3.h</title>
<polygon fill="white" stroke="none" points="-4,4 -4,-304 299.118,-304 299.118,4 -4,4"/>
<!-- Node1 -->
<g id="node1" class="node"><title>Node1</title>
<polygon fill="#bfbfbf" stroke="black" points="198,-280.5 198,-299.5 260,-299.5 260,-280.5 198,-280.5"/>
<text text-anchor="middle" x="229" y="-287.5" font-family="Helvetica,sans-Serif" font-size="10.00">BrickPi3.h</text>
</g>
<!-- Node2 -->
<g id="node2" class="node"><title>Node2</title>
<g id="a_node2"><a xlink:href="_brick_pi3_8cpp.html" target="_top" xlink:title="BrickPi3.cpp">
<polygon fill="white" stroke="black" points="89,-224.5 89,-243.5 161,-243.5 161,-224.5 89,-224.5"/>
<text text-anchor="middle" x="125" y="-231.5" font-family="Helvetica,sans-Serif" font-size="10.00">BrickPi3.cpp</text>
</a>
</g>
</g>
<!-- Node1&#45;&gt;Node2 -->
<g id="edge1" class="edge"><title>Node1&#45;&gt;Node2</title>
<path fill="none" stroke="midnightblue" d="M203.172,-275.59C183.943,-265.605 158.255,-252.267 141.668,-243.655"/>
<polygon fill="midnightblue" stroke="midnightblue" points="201.803,-278.822 212.291,-280.324 205.029,-272.61 201.803,-278.822"/>
</g>
<!-- Node3 -->
<g id="node3" class="node"><title>Node3</title>
<g id="a_node3"><a xlink:href="servo_8h.html" target="_top" xlink:title="servo.h">
<polygon fill="white" stroke="black" points="179.5,-224.5 179.5,-243.5 226.5,-243.5 226.5,-224.5 179.5,-224.5"/>
<text text-anchor="middle" x="203" y="-231.5" font-family="Helvetica,sans-Serif" font-size="10.00">servo.h</text>
</a>
</g>
</g>
<!-- Node1&#45;&gt;Node3 -->
<g id="edge2" class="edge"><title>Node1&#45;&gt;Node3</title>
<path fill="none" stroke="midnightblue" d="M220.325,-270.983C215.912,-261.817 210.748,-251.092 207.213,-243.751"/>
<polygon fill="midnightblue" stroke="midnightblue" points="217.215,-272.591 224.707,-280.083 223.522,-269.555 217.215,-272.591"/>
</g>
<!-- Node10 -->
<g id="node10" class="node"><title>Node10</title>
<g id="a_node10"><a xlink:href="motion_8cpp.html" target="_top" xlink:title="motion.cpp">
<polygon fill="white" stroke="black" points="223.5,-112.5 223.5,-131.5 288.5,-131.5 288.5,-112.5 223.5,-112.5"/>
<text text-anchor="middle" x="256" y="-119.5" font-family="Helvetica,sans-Serif" font-size="10.00">motion.cpp</text>
</a>
</g>
</g>
<!-- Node1&#45;&gt;Node10 -->
<g id="edge16" class="edge"><title>Node1&#45;&gt;Node10</title>
<path fill="none" stroke="midnightblue" d="M243.466,-272.769C259.193,-253.934 283.368,-221.194 293,-188 295.477,-179.463 295.998,-176.368 293,-168 287.746,-153.337 275.424,-140.031 266.438,-131.755"/>
<polygon fill="midnightblue" stroke="midnightblue" points="240.776,-270.529 236.918,-280.396 246.087,-275.089 240.776,-270.529"/>
</g>
<!-- Node11 -->
<g id="node11" class="node"><title>Node11</title>
<g id="a_node11"><a xlink:href="servo_8cpp.html" target="_top" xlink:title="servo.cpp">
<polygon fill="white" stroke="black" points="226,-168.5 226,-187.5 284,-187.5 284,-168.5 226,-168.5"/>
<text text-anchor="middle" x="255" y="-175.5" font-family="Helvetica,sans-Serif" font-size="10.00">servo.cpp</text>
</a>
</g>
</g>
<!-- Node1&#45;&gt;Node11 -->
<g id="edge17" class="edge"><title>Node1&#45;&gt;Node11</title>
<path fill="none" stroke="midnightblue" d="M233.409,-270.348C239.104,-246.254 248.782,-205.308 252.969,-187.591"/>
<polygon fill="midnightblue" stroke="midnightblue" points="229.934,-269.832 231.04,-280.368 236.747,-271.442 229.934,-269.832"/>
</g>
<!-- Node4 -->
<g id="node4" class="node"><title>Node4</title>
<g id="a_node4"><a xlink:href="motion_8h.html" target="_top" xlink:title="motion.h">
<polygon fill="white" stroke="black" points="116,-168.5 116,-187.5 170,-187.5 170,-168.5 116,-168.5"/>
<text text-anchor="middle" x="143" y="-175.5" font-family="Helvetica,sans-Serif" font-size="10.00">motion.h</text>
</a>
</g>
</g>
<!-- Node3&#45;&gt;Node4 -->
<g id="edge3" class="edge"><title>Node3&#45;&gt;Node4</title>
<path fill="none" stroke="midnightblue" d="M185.819,-217.537C175.121,-207.909 161.744,-195.869 152.815,-187.834"/>
<polygon fill="midnightblue" stroke="midnightblue" points="183.586,-220.236 193.36,-224.324 188.268,-215.033 183.586,-220.236"/>
</g>
<!-- Node3&#45;&gt;Node10 -->
<g id="edge14" class="edge"><title>Node3&#45;&gt;Node10</title>
<path fill="none" stroke="midnightblue" d="M204.549,-214.142C206.239,-200.704 209.748,-182.523 217,-168 224.205,-153.571 237.111,-140.017 246.095,-131.63"/>
<polygon fill="midnightblue" stroke="midnightblue" points="201.063,-213.823 203.515,-224.13 208.026,-214.544 201.063,-213.823"/>
</g>
<!-- Node3&#45;&gt;Node11 -->
<g id="edge15" class="edge"><title>Node3&#45;&gt;Node11</title>
<path fill="none" stroke="midnightblue" d="M218.679,-216.718C227.845,-207.2 239.053,-195.561 246.573,-187.751"/>
<polygon fill="midnightblue" stroke="midnightblue" points="216.002,-214.452 211.587,-224.083 221.044,-219.308 216.002,-214.452"/>
</g>
<!-- Node5 -->
<g id="node5" class="node"><title>Node5</title>
<g id="a_node5"><a xlink:href="init_8h.html" target="_top" xlink:title="init.h">
<polygon fill="white" stroke="black" points="74,-112.5 74,-131.5 112,-131.5 112,-112.5 74,-112.5"/>
<text text-anchor="middle" x="93" y="-119.5" font-family="Helvetica,sans-Serif" font-size="10.00">init.h</text>
</a>
</g>
</g>
<!-- Node4&#45;&gt;Node5 -->
<g id="edge4" class="edge"><title>Node4&#45;&gt;Node5</title>
<path fill="none" stroke="midnightblue" d="M127.924,-160.718C119.111,-151.2 108.334,-139.561 101.103,-131.751"/>
<polygon fill="midnightblue" stroke="midnightblue" points="125.381,-163.123 134.744,-168.083 130.518,-158.367 125.381,-163.123"/>
</g>
<!-- Node6 -->
<g id="node6" class="node"><title>Node6</title>
<g id="a_node6"><a xlink:href="init_8cpp.html" target="_top" xlink:title="init.cpp">
<polygon fill="white" stroke="black" points="119,-56.5 119,-75.5 167,-75.5 167,-56.5 119,-56.5"/>
<text text-anchor="middle" x="143" y="-63.5" font-family="Helvetica,sans-Serif" font-size="10.00">init.cpp</text>
</a>
</g>
</g>
<!-- Node4&#45;&gt;Node6 -->
<g id="edge10" class="edge"><title>Node4&#45;&gt;Node6</title>
<path fill="none" stroke="midnightblue" d="M143,-158.348C143,-134.254 143,-93.3079 143,-75.5914"/>
<polygon fill="midnightblue" stroke="midnightblue" points="139.5,-158.368 143,-168.368 146.5,-158.369 139.5,-158.368"/>
</g>
<!-- Node7 -->
<g id="node7" class="node"><title>Node7</title>
<g id="a_node7"><a xlink:href="state_8h.html" target="_top" xlink:title="state.h">
<polygon fill="white" stroke="black" points="15.5,-56.5 15.5,-75.5 62.5,-75.5 62.5,-56.5 15.5,-56.5"/>
<text text-anchor="middle" x="39" y="-63.5" font-family="Helvetica,sans-Serif" font-size="10.00">state.h</text>
</a>
</g>
</g>
<!-- Node4&#45;&gt;Node7 -->
<g id="edge11" class="edge"><title>Node4&#45;&gt;Node7</title>
<path fill="none" stroke="midnightblue" d="M110.459,-164.258C94.9686,-156.817 77.2089,-146.089 65,-132 50.3549,-115.099 43.3305,-88.9141 40.5377,-75.522"/>
<polygon fill="midnightblue" stroke="midnightblue" points="109.187,-167.524 119.74,-168.466 112.078,-161.149 109.187,-167.524"/>
</g>
<!-- Node9 -->
<g id="node9" class="node"><title>Node9</title>
<g id="a_node9"><a xlink:href="state_8cpp.html" target="_top" xlink:title="state.cpp">
<polygon fill="white" stroke="black" points="74.5,-0.5 74.5,-19.5 131.5,-19.5 131.5,-0.5 74.5,-0.5"/>
<text text-anchor="middle" x="103" y="-7.5" font-family="Helvetica,sans-Serif" font-size="10.00">state.cpp</text>
</a>
</g>
</g>
<!-- Node4&#45;&gt;Node9 -->
<g id="edge13" class="edge"><title>Node4&#45;&gt;Node9</title>
<path fill="none" stroke="midnightblue" d="M155.497,-159.706C171.473,-135.288 194.928,-89.9036 176,-56 166.057,-38.1908 145.85,-26.5554 129.211,-19.5863"/>
<polygon fill="midnightblue" stroke="midnightblue" points="152.411,-158.018 149.648,-168.246 158.186,-161.974 152.411,-158.018"/>
</g>
<!-- Node4&#45;&gt;Node10 -->
<g id="edge12" class="edge"><title>Node4&#45;&gt;Node10</title>
<path fill="none" stroke="midnightblue" d="M170.003,-164.096C191.114,-154.007 219.862,-140.27 238.179,-131.516"/>
<polygon fill="midnightblue" stroke="midnightblue" points="168.419,-160.974 160.905,-168.444 171.437,-167.29 168.419,-160.974"/>
</g>
<!-- Node5&#45;&gt;Node6 -->
<g id="edge5" class="edge"><title>Node5&#45;&gt;Node6</title>
<path fill="none" stroke="midnightblue" d="M108.076,-104.718C116.889,-95.1997 127.666,-83.5608 134.897,-75.7511"/>
<polygon fill="midnightblue" stroke="midnightblue" points="105.482,-102.367 101.256,-112.083 110.619,-107.123 105.482,-102.367"/>
</g>
<!-- Node5&#45;&gt;Node7 -->
<g id="edge6" class="edge"><title>Node5&#45;&gt;Node7</title>
<path fill="none" stroke="midnightblue" d="M77.0024,-105.002C67.4329,-95.4329 55.6389,-83.6389 47.7511,-75.7511"/>
<polygon fill="midnightblue" stroke="midnightblue" points="74.537,-107.487 84.083,-112.083 79.4868,-102.537 74.537,-107.487"/>
</g>
<!-- Node5&#45;&gt;Node9 -->
<g id="edge9" class="edge"><title>Node5&#45;&gt;Node9</title>
<path fill="none" stroke="midnightblue" d="M94.6956,-102.348C96.886,-78.2538 100.608,-37.3079 102.219,-19.5914"/>
<polygon fill="midnightblue" stroke="midnightblue" points="91.2045,-102.093 93.7847,-112.368 98.1758,-102.726 91.2045,-102.093"/>
</g>
<!-- Node8 -->
<g id="node8" class="node"><title>Node8</title>
<g id="a_node8"><a xlink:href="main_8cpp.html" target="_top" xlink:title="main.cpp">
<polygon fill="white" stroke="black" points="0,-0.5 0,-19.5 56,-19.5 56,-0.5 0,-0.5"/>
<text text-anchor="middle" x="28" y="-7.5" font-family="Helvetica,sans-Serif" font-size="10.00">main.cpp</text>
</a>
</g>
</g>
<!-- Node7&#45;&gt;Node8 -->
<g id="edge7" class="edge"><title>Node7&#45;&gt;Node8</title>
<path fill="none" stroke="midnightblue" d="M35.1501,-46.1005C33.3239,-37.1357 31.2303,-26.8579 29.7826,-19.7511"/>
<polygon fill="midnightblue" stroke="midnightblue" points="31.7579,-46.9829 37.1836,-56.083 38.617,-45.5856 31.7579,-46.9829"/>
</g>
<!-- Node7&#45;&gt;Node9 -->
<g id="edge8" class="edge"><title>Node7&#45;&gt;Node9</title>
<path fill="none" stroke="midnightblue" d="M56.9915,-49.8197C68.4576,-40.1452 82.9133,-27.9481 92.5302,-19.8339"/>
<polygon fill="midnightblue" stroke="midnightblue" points="54.6686,-47.2002 49.2827,-56.324 59.1827,-52.5502 54.6686,-47.2002"/>
</g>
</g>
</svg>
