<?xml version="1.0" encoding="UTF-8" standalone="no"?>
<!DOCTYPE svg PUBLIC "-//W3C//DTD SVG 1.1//EN"
 "http://www.w3.org/Graphics/SVG/1.1/DTD/svg11.dtd">
<!-- Generated by graphviz version 2.38.0 (20140413.2041)
 -->
<!-- Title: IR.cpp Pages: 1 -->
<svg width="226pt" height="140pt"
 viewBox="0.00 0.00 226.00 140.00" xmlns="http://www.w3.org/2000/svg" xmlns:xlink="http://www.w3.org/1999/xlink">
<g id="graph0" class="graph" transform="scale(1 1) rotate(0) translate(4 136)">
<title>IR.cpp</title>
<polygon fill="white" stroke="none" points="-4,4 -4,-136 222,-136 222,4 -4,4"/>
<!-- Node0 -->
<g id="node1" class="node"><title>Node0</title>
<polygon fill="#bfbfbf" stroke="black" points="67,-112.5 67,-131.5 111,-131.5 111,-112.5 67,-112.5"/>
<text text-anchor="middle" x="89" y="-119.5" font-family="Helvetica,sans-Serif" font-size="10.00">IR.cpp</text>
</g>
<!-- Node1 -->
<g id="node2" class="node"><title>Node1</title>
<g id="a_node2"><a xlink:href="_i_r_8h.html" target="_top" xlink:title="IR.h">
<polygon fill="white" stroke="black" points="0,-56.5 0,-75.5 34,-75.5 34,-56.5 0,-56.5"/>
<text text-anchor="middle" x="17" y="-63.5" font-family="Helvetica,sans-Serif" font-size="10.00">IR.h</text>
</a>
</g>
</g>
<!-- Node0&#45;&gt;Node1 -->
<g id="edge1" class="edge"><title>Node0&#45;&gt;Node1</title>
<path fill="none" stroke="midnightblue" d="M77.432,-112.324C66.5798,-104.185 50.1193,-91.8395 37.1166,-82.0874"/>
<polygon fill="midnightblue" stroke="midnightblue" points="38.8786,-79.0339 28.7785,-75.8339 34.6785,-84.6339 38.8786,-79.0339"/>
</g>
<!-- Node2 -->
<g id="node3" class="node"><title>Node2</title>
<polygon fill="white" stroke="#bfbfbf" points="18,-0.5 18,-19.5 60,-19.5 60,-0.5 18,-0.5"/>
<text text-anchor="middle" x="39" y="-7.5" font-family="Helvetica,sans-Serif" font-size="10.00">vector</text>
</g>
<!-- Node0&#45;&gt;Node2 -->
<g id="edge3" class="edge"><title>Node0&#45;&gt;Node2</title>
<path fill="none" stroke="midnightblue" d="M85.0766,-112.368C76.9347,-94.4563 58.056,-52.9233 47.1583,-28.9482"/>
<polygon fill="midnightblue" stroke="midnightblue" points="50.2296,-27.2468 42.9052,-19.5914 43.857,-30.1434 50.2296,-27.2468"/>
</g>
<!-- Node3 -->
<g id="node4" class="node"><title>Node3</title>
<polygon fill="white" stroke="#bfbfbf" points="90,-56.5 90,-75.5 144,-75.5 144,-56.5 90,-56.5"/>
<text text-anchor="middle" x="117" y="-63.5" font-family="Helvetica,sans-Serif" font-size="10.00">iostream</text>
</g>
<!-- Node0&#45;&gt;Node3 -->
<g id="edge4" class="edge"><title>Node0&#45;&gt;Node3</title>
<path fill="none" stroke="midnightblue" d="M93.6236,-112.083C97.4563,-104.691 103.024,-93.9533 107.765,-84.8111"/>
<polygon fill="midnightblue" stroke="midnightblue" points="110.966,-86.2398 112.462,-75.7511 104.752,-83.0175 110.966,-86.2398"/>
</g>
<!-- Node4 -->
<g id="node5" class="node"><title>Node4</title>
<polygon fill="white" stroke="#bfbfbf" points="162,-56.5 162,-75.5 218,-75.5 218,-56.5 162,-56.5"/>
<text text-anchor="middle" x="190" y="-63.5" font-family="Helvetica,sans-Serif" font-size="10.00">algorithm</text>
</g>
<!-- Node0&#45;&gt;Node4 -->
<g id="edge5" class="edge"><title>Node0&#45;&gt;Node4</title>
<path fill="none" stroke="midnightblue" d="M105.227,-112.324C121.351,-103.703 146.3,-90.3643 164.964,-80.3855"/>
<polygon fill="midnightblue" stroke="midnightblue" points="166.644,-83.456 173.813,-75.6545 163.344,-77.283 166.644,-83.456"/>
</g>
<!-- Node1&#45;&gt;Node2 -->
<g id="edge2" class="edge"><title>Node1&#45;&gt;Node2</title>
<path fill="none" stroke="midnightblue" d="M20.6329,-56.083C23.6122,-48.77 27.9261,-38.1814 31.6245,-29.1034"/>
<polygon fill="midnightblue" stroke="midnightblue" points="34.903,-30.3326 35.4347,-19.7511 28.4204,-27.6914 34.903,-30.3326"/>
</g>
</g>
</svg>
