<?xml version="1.0" encoding="UTF-8" standalone="no"?>
<!DOCTYPE svg PUBLIC "-//W3C//DTD SVG 1.1//EN"
 "http://www.w3.org/Graphics/SVG/1.1/DTD/svg11.dtd">
<!-- Generated by graphviz version 2.38.0 (20140413.2041)
 -->
<!-- Title: RGB.cpp Pages: 1 -->
<svg width="84pt" height="140pt"
 viewBox="0.00 0.00 84.00 140.00" xmlns="http://www.w3.org/2000/svg" xmlns:xlink="http://www.w3.org/1999/xlink">
<g id="graph0" class="graph" transform="scale(1 1) rotate(0) translate(4 136)">
<title>RGB.cpp</title>
<polygon fill="white" stroke="none" points="-4,4 -4,-136 80,-136 80,4 -4,4"/>
<!-- Node0 -->
<g id="node1" class="node"><title>Node0</title>
<polygon fill="#bfbfbf" stroke="black" points="20,-112.5 20,-131.5 76,-131.5 76,-112.5 20,-112.5"/>
<text text-anchor="middle" x="48" y="-119.5" font-family="Helvetica,sans-Serif" font-size="10.00">RGB.cpp</text>
</g>
<!-- Node1 -->
<g id="node2" class="node"><title>Node1</title>
<g id="a_node2"><a xlink:href="_r_g_b_8h.html" target="_top" xlink:title="RGB.h">
<polygon fill="white" stroke="black" points="0,-56.5 0,-75.5 46,-75.5 46,-56.5 0,-56.5"/>
<text text-anchor="middle" x="23" y="-63.5" font-family="Helvetica,sans-Serif" font-size="10.00">RGB.h</text>
</a>
</g>
</g>
<!-- Node0&#45;&gt;Node1 -->
<g id="edge1" class="edge"><title>Node0&#45;&gt;Node1</title>
<path fill="none" stroke="midnightblue" d="M43.8718,-112.083C40.4861,-104.77 35.584,-94.1814 31.3812,-85.1034"/>
<polygon fill="midnightblue" stroke="midnightblue" points="34.4289,-83.3553 27.0514,-75.7511 28.0766,-86.2962 34.4289,-83.3553"/>
</g>
<!-- Node2 -->
<g id="node3" class="node"><title>Node2</title>
<polygon fill="white" stroke="#bfbfbf" points="27,-0.5 27,-19.5 69,-19.5 69,-0.5 27,-0.5"/>
<text text-anchor="middle" x="48" y="-7.5" font-family="Helvetica,sans-Serif" font-size="10.00">vector</text>
</g>
<!-- Node0&#45;&gt;Node2 -->
<g id="edge3" class="edge"><title>Node0&#45;&gt;Node2</title>
<path fill="none" stroke="midnightblue" d="M49.7389,-112.419C51.4718,-103.399 54.0127,-88.7704 55,-76 56.2045,-60.4208 54.089,-42.7994 51.8761,-29.838"/>
<polygon fill="midnightblue" stroke="midnightblue" points="55.2788,-28.9945 49.9872,-19.8158 48.3999,-30.291 55.2788,-28.9945"/>
</g>
<!-- Node1&#45;&gt;Node2 -->
<g id="edge2" class="edge"><title>Node1&#45;&gt;Node2</title>
<path fill="none" stroke="midnightblue" d="M27.1282,-56.083C30.5139,-48.77 35.416,-38.1814 39.6188,-29.1034"/>
<polygon fill="midnightblue" stroke="midnightblue" points="42.9234,-30.2962 43.9486,-19.7511 36.5711,-27.3553 42.9234,-30.2962"/>
</g>
</g>
</svg>
