<?xml version="1.0" encoding="UTF-8" standalone="no"?>
<!DOCTYPE svg PUBLIC "-//W3C//DTD SVG 1.1//EN"
 "http://www.w3.org/Graphics/SVG/1.1/DTD/svg11.dtd">
<!-- Generated by graphviz version 2.38.0 (20140413.2041)
 -->
<!-- Title: Sensor::initializeIR Pages: 1 -->
<svg width="508pt" height="47pt"
 viewBox="0.00 0.00 508.00 47.00" xmlns="http://www.w3.org/2000/svg" xmlns:xlink="http://www.w3.org/1999/xlink">
<g id="graph0" class="graph" transform="scale(1 1) rotate(0) translate(4 43)">
<title>Sensor::initializeIR</title>
<polygon fill="white" stroke="none" points="-4,4 -4,-43 504,-43 504,4 -4,4"/>
<!-- Node25 -->
<g id="node1" class="node"><title>Node25</title>
<polygon fill="#bfbfbf" stroke="black" points="0,-19.5 0,-38.5 98,-38.5 98,-19.5 0,-19.5"/>
<text text-anchor="middle" x="49" y="-26.5" font-family="Helvetica,sans-Serif" font-size="10.00">Sensor::initializeIR</text>
</g>
<!-- Node26 -->
<g id="node2" class="node"><title>Node26</title>
<g id="a_node2"><a xlink:href="class_i_r.html#a8bcc5c0570384da5a39e395b91bc2d2b" target="_top" xlink:title="IR::set_ranges">
<polygon fill="white" stroke="black" points="134,-19.5 134,-38.5 214,-38.5 214,-19.5 134,-19.5"/>
<text text-anchor="middle" x="174" y="-26.5" font-family="Helvetica,sans-Serif" font-size="10.00">IR::set_ranges</text>
</a>
</g>
</g>
<!-- Node25&#45;&gt;Node26 -->
<g id="edge1" class="edge"><title>Node25&#45;&gt;Node26</title>
<path fill="none" stroke="midnightblue" d="M98.2598,-29C106.681,-29 115.45,-29 123.894,-29"/>
<polygon fill="midnightblue" stroke="midnightblue" points="123.987,-32.5001 133.987,-29 123.987,-25.5001 123.987,-32.5001"/>
</g>
<!-- Node27 -->
<g id="node3" class="node"><title>Node27</title>
<g id="a_node3"><a xlink:href="class_i_r.html#a2d60cbf66f48bad8167e2c4231ed3f95" target="_top" xlink:title="IR::set_current_value">
<polygon fill="white" stroke="black" points="393,-19.5 393,-38.5 500,-38.5 500,-19.5 393,-19.5"/>
<text text-anchor="middle" x="446.5" y="-26.5" font-family="Helvetica,sans-Serif" font-size="10.00">IR::set_current_value</text>
</a>
</g>
</g>
<!-- Node26&#45;&gt;Node27 -->
<g id="edge2" class="edge"><title>Node26&#45;&gt;Node27</title>
<path fill="none" stroke="midnightblue" d="M214.044,-29C258.211,-29 330.757,-29 382.863,-29"/>
<polygon fill="midnightblue" stroke="midnightblue" points="382.998,-32.5001 392.998,-29 382.998,-25.5001 382.998,-32.5001"/>
</g>
<!-- Node28 -->
<g id="node4" class="node"><title>Node28</title>
<g id="a_node4"><a xlink:href="class_i_r.html#a5b71d10f57e8dbb76cdf01e043cfdda1" target="_top" xlink:title="IR::get_current_value">
<polygon fill="white" stroke="black" points="250,-0.5 250,-19.5 357,-19.5 357,-0.5 250,-0.5"/>
<text text-anchor="middle" x="303.5" y="-7.5" font-family="Helvetica,sans-Serif" font-size="10.00">IR::get_current_value</text>
</a>
</g>
</g>
<!-- Node26&#45;&gt;Node28 -->
<g id="edge3" class="edge"><title>Node26&#45;&gt;Node28</title>
<path fill="none" stroke="midnightblue" d="M214.295,-23.1443C222.393,-21.9374 231.113,-20.6381 239.806,-19.3426"/>
<polygon fill="midnightblue" stroke="midnightblue" points="240.586,-22.7651 249.961,-17.8294 239.554,-15.8416 240.586,-22.7651"/>
</g>
<!-- Node28&#45;&gt;Node27 -->
<g id="edge4" class="edge"><title>Node28&#45;&gt;Node27</title>
<path fill="none" stroke="midnightblue" d="M357.003,-17.0749C365.445,-18.2124 374.255,-19.3996 382.905,-20.5652"/>
<polygon fill="midnightblue" stroke="midnightblue" points="382.575,-24.0523 392.953,-21.9192 383.51,-17.115 382.575,-24.0523"/>
</g>
</g>
</svg>
