<?xml version="1.0" encoding="UTF-8" standalone="no"?>
<!DOCTYPE svg PUBLIC "-//W3C//DTD SVG 1.1//EN"
 "http://www.w3.org/Graphics/SVG/1.1/DTD/svg11.dtd">
<!-- Generated by graphviz version 2.38.0 (20140413.2041)
 -->
<!-- Title: IR::is_black Pages: 1 -->
<svg width="573pt" height="116pt"
 viewBox="0.00 0.00 573.00 115.50" xmlns="http://www.w3.org/2000/svg" xmlns:xlink="http://www.w3.org/1999/xlink">
<g id="graph0" class="graph" transform="scale(1 1) rotate(0) translate(4 111.5)">
<title>IR::is_black</title>
<polygon fill="white" stroke="none" points="-4,4 -4,-111.5 569,-111.5 569,4 -4,4"/>
<!-- Node22 -->
<g id="node1" class="node"><title>Node22</title>
<polygon fill="#bfbfbf" stroke="black" points="0,-50 0,-69 68,-69 68,-50 0,-50"/>
<text text-anchor="middle" x="34" y="-57" font-family="Helvetica,sans-Serif" font-size="10.00">IR::is_black</text>
</g>
<!-- Node23 -->
<g id="node2" class="node"><title>Node23</title>
<g id="a_node2"><a xlink:href="class_sensor.html#a32ebdbb3ba6fbe19739a10b17dc11cba" target="_top" xlink:title="Sensor::both_black">
<polygon fill="white" stroke="black" points="112,-88 112,-107 213,-107 213,-88 112,-88"/>
<text text-anchor="middle" x="162.5" y="-95" font-family="Helvetica,sans-Serif" font-size="10.00">Sensor::both_black</text>
</a>
</g>
</g>
<!-- Node22&#45;&gt;Node23 -->
<g id="edge1" class="edge"><title>Node22&#45;&gt;Node23</title>
<path fill="none" stroke="midnightblue" d="M76.7294,-72.0353C93.9382,-77.2048 113.56,-83.0991 129.589,-87.9141"/>
<polygon fill="midnightblue" stroke="midnightblue" points="77.5055,-68.614 66.9213,-69.089 75.4916,-75.3181 77.5055,-68.614"/>
</g>
<!-- Node24 -->
<g id="node3" class="node"><title>Node24</title>
<g id="a_node3"><a xlink:href="class_sensor.html#add2279da6d407ed7678064ab1fe7d02d" target="_top" xlink:title="Sensor::both_white">
<polygon fill="white" stroke="black" points="112.5,-50 112.5,-69 212.5,-69 212.5,-50 112.5,-50"/>
<text text-anchor="middle" x="162.5" y="-57" font-family="Helvetica,sans-Serif" font-size="10.00">Sensor::both_white</text>
</a>
</g>
</g>
<!-- Node22&#45;&gt;Node24 -->
<g id="edge2" class="edge"><title>Node22&#45;&gt;Node24</title>
<path fill="none" stroke="midnightblue" d="M78.3898,-59.5C89.3119,-59.5 101.113,-59.5 112.298,-59.5"/>
<polygon fill="midnightblue" stroke="midnightblue" points="78.2364,-56.0001 68.2364,-59.5 78.2364,-63.0001 78.2364,-56.0001"/>
</g>
<!-- Node28 -->
<g id="node7" class="node"><title>Node28</title>
<g id="a_node7"><a xlink:href="class_sensor.html#a03b8f6886c672badadfeef89d069e1ea" target="_top" xlink:title="Sensor::IR_black_RGB\l_white">
<polygon fill="white" stroke="black" points="104,-0.5 104,-30.5 221,-30.5 221,-0.5 104,-0.5"/>
<text text-anchor="start" x="112" y="-18.5" font-family="Helvetica,sans-Serif" font-size="10.00">Sensor::IR_black_RGB</text>
<text text-anchor="middle" x="162.5" y="-7.5" font-family="Helvetica,sans-Serif" font-size="10.00">_white</text>
</a>
</g>
</g>
<!-- Node22&#45;&gt;Node28 -->
<g id="edge8" class="edge"><title>Node22&#45;&gt;Node28</title>
<path fill="none" stroke="midnightblue" d="M72.0542,-46.6116C86.5095,-41.5837 103.182,-35.7845 118.187,-30.5654"/>
<polygon fill="midnightblue" stroke="midnightblue" points="70.7437,-43.3616 62.4486,-49.9527 73.0434,-49.9731 70.7437,-43.3616"/>
</g>
<!-- Node25 -->
<g id="node4" class="node"><title>Node25</title>
<g id="a_node4"><a xlink:href="class_state.html#aed3bf8334ee32e0cccba11fc2dc42b68" target="_top" xlink:title="State::clear">
<polygon fill="white" stroke="black" points="498,-66 498,-85 565,-85 565,-66 498,-66"/>
<text text-anchor="middle" x="531.5" y="-73" font-family="Helvetica,sans-Serif" font-size="10.00">State::clear</text>
</a>
</g>
</g>
<!-- Node24&#45;&gt;Node25 -->
<g id="edge3" class="edge"><title>Node24&#45;&gt;Node25</title>
<path fill="none" stroke="midnightblue" d="M223.06,-68.757C234.31,-70.2282 245.997,-71.5694 257,-72.5 343.589,-79.8236 446.142,-78.2097 497.588,-76.6938"/>
<polygon fill="midnightblue" stroke="midnightblue" points="223.263,-65.2526 212.884,-67.3773 222.323,-72.1891 223.263,-65.2526"/>
</g>
<!-- Node26 -->
<g id="node5" class="node"><title>Node26</title>
<g id="a_node5"><a xlink:href="class_state.html#ae03eae00675106f8b6b9481c4b0e50dc" target="_top" xlink:title="State::object_or_turn">
<polygon fill="white" stroke="black" points="355,-47 355,-66 462,-66 462,-47 355,-47"/>
<text text-anchor="middle" x="408.5" y="-54" font-family="Helvetica,sans-Serif" font-size="10.00">State::object_or_turn</text>
</a>
</g>
</g>
<!-- Node24&#45;&gt;Node26 -->
<g id="edge4" class="edge"><title>Node24&#45;&gt;Node26</title>
<path fill="none" stroke="midnightblue" d="M222.799,-58.7709C263.073,-58.2757 315.866,-57.6266 354.692,-57.1493"/>
<polygon fill="midnightblue" stroke="midnightblue" points="222.54,-55.2737 212.584,-58.8965 222.626,-62.2732 222.54,-55.2737"/>
</g>
<!-- Node27 -->
<g id="node6" class="node"><title>Node27</title>
<g id="a_node6"><a xlink:href="class_state.html#ae5ed95e28512e11f7cc41c603ca58ad5" target="_top" xlink:title="State::turn">
<polygon fill="white" stroke="black" points="257,-9 257,-28 319,-28 319,-9 257,-9"/>
<text text-anchor="middle" x="288" y="-16" font-family="Helvetica,sans-Serif" font-size="10.00">State::turn</text>
</a>
</g>
</g>
<!-- Node24&#45;&gt;Node27 -->
<g id="edge6" class="edge"><title>Node24&#45;&gt;Node27</title>
<path fill="none" stroke="midnightblue" d="M201.853,-46.7674C220.004,-40.7416 241.32,-33.665 258.084,-28.0997"/>
<polygon fill="midnightblue" stroke="midnightblue" points="200.532,-43.5182 192.144,-49.9907 202.737,-50.1616 200.532,-43.5182"/>
</g>
<!-- Node26&#45;&gt;Node25 -->
<g id="edge5" class="edge"><title>Node26&#45;&gt;Node25</title>
<path fill="none" stroke="midnightblue" d="M472.201,-66.3455C481.052,-67.7355 489.841,-69.1156 497.808,-70.3665"/>
<polygon fill="midnightblue" stroke="midnightblue" points="472.642,-62.8721 462.22,-64.7784 471.556,-69.7874 472.642,-62.8721"/>
</g>
<!-- Node27&#45;&gt;Node26 -->
<g id="edge7" class="edge"><title>Node27&#45;&gt;Node26</title>
<path fill="none" stroke="midnightblue" d="M328.543,-31.1804C344.554,-36.3148 362.732,-42.1441 377.607,-46.9141"/>
<polygon fill="midnightblue" stroke="midnightblue" points="329.494,-27.8098 318.903,-28.089 327.356,-34.4755 329.494,-27.8098"/>
</g>
<!-- Node28&#45;&gt;Node27 -->
<g id="edge9" class="edge"><title>Node28&#45;&gt;Node27</title>
<path fill="none" stroke="midnightblue" d="M231.373,-17.1487C240.29,-17.3654 249.036,-17.5778 256.855,-17.7677"/>
<polygon fill="midnightblue" stroke="midnightblue" points="231.355,-13.6474 221.272,-16.9034 231.184,-20.6453 231.355,-13.6474"/>
</g>
</g>
</svg>
