<?xml version="1.0" encoding="UTF-8" standalone="no"?>
<!DOCTYPE svg PUBLIC "-//W3C//DTD SVG 1.1//EN"
 "http://www.w3.org/Graphics/SVG/1.1/DTD/svg11.dtd">
<!-- Generated by graphviz version 2.38.0 (20140413.2041)
 -->
<!-- Title: State::State Pages: 1 -->
<svg width="196pt" height="66pt"
 viewBox="0.00 0.00 196.00 66.00" xmlns="http://www.w3.org/2000/svg" xmlns:xlink="http://www.w3.org/1999/xlink">
<g id="graph0" class="graph" transform="scale(1 1) rotate(0) translate(4 62)">
<title>State::State</title>
<polygon fill="white" stroke="none" points="-4,4 -4,-62 192,-62 192,4 -4,4"/>
<!-- Node0 -->
<g id="node1" class="node"><title>Node0</title>
<polygon fill="#bfbfbf" stroke="black" points="0,-19.5 0,-38.5 69,-38.5 69,-19.5 0,-19.5"/>
<text text-anchor="middle" x="34.5" y="-26.5" font-family="Helvetica,sans-Serif" font-size="10.00">State::State</text>
</g>
<!-- Node1 -->
<g id="node2" class="node"><title>Node1</title>
<g id="a_node2"><a xlink:href="class_init.html#a2f0137392b84da9c02d9c4d892e44534" target="_top" xlink:title="Init::get_motion">
<polygon fill="white" stroke="black" points="105,-38.5 105,-57.5 188,-57.5 188,-38.5 105,-38.5"/>
<text text-anchor="middle" x="146.5" y="-45.5" font-family="Helvetica,sans-Serif" font-size="10.00">Init::get_motion</text>
</a>
</g>
</g>
<!-- Node0&#45;&gt;Node1 -->
<g id="edge1" class="edge"><title>Node0&#45;&gt;Node1</title>
<path fill="none" stroke="midnightblue" d="M69.1013,-34.8039C77.1846,-36.2001 85.9985,-37.7225 94.6731,-39.2208"/>
<polygon fill="midnightblue" stroke="midnightblue" points="94.2905,-42.7065 104.74,-40.9597 95.482,-35.8086 94.2905,-42.7065"/>
</g>
<!-- Node2 -->
<g id="node3" class="node"><title>Node2</title>
<g id="a_node3"><a xlink:href="class_init.html#a8d5597fb9e9bfb192a235cdee32ede2d" target="_top" xlink:title="Init::get_sensor">
<polygon fill="white" stroke="black" points="105,-0.5 105,-19.5 188,-19.5 188,-0.5 105,-0.5"/>
<text text-anchor="middle" x="146.5" y="-7.5" font-family="Helvetica,sans-Serif" font-size="10.00">Init::get_sensor</text>
</a>
</g>
</g>
<!-- Node0&#45;&gt;Node2 -->
<g id="edge2" class="edge"><title>Node0&#45;&gt;Node2</title>
<path fill="none" stroke="midnightblue" d="M69.1013,-23.1961C77.1846,-21.7999 85.9985,-20.2775 94.6731,-18.7792"/>
<polygon fill="midnightblue" stroke="midnightblue" points="95.482,-22.1914 104.74,-17.0403 94.2905,-15.2935 95.482,-22.1914"/>
</g>
</g>
</svg>
