<?xml version="1.0" encoding="UTF-8" standalone="no"?>
<!DOCTYPE svg PUBLIC "-//W3C//DTD SVG 1.1//EN"
 "http://www.w3.org/Graphics/SVG/1.1/DTD/svg11.dtd">
<!-- Generated by graphviz version 2.38.0 (20140413.2041)
 -->
<!-- Title: Sensor::both_white Pages: 1 -->
<svg width="452pt" height="85pt"
 viewBox="0.00 0.00 452.00 85.00" xmlns="http://www.w3.org/2000/svg" xmlns:xlink="http://www.w3.org/1999/xlink">
<g id="graph0" class="graph" transform="scale(1 1) rotate(0) translate(4 81)">
<title>Sensor::both_white</title>
<polygon fill="white" stroke="none" points="-4,4 -4,-81 448,-81 448,4 -4,4"/>
<!-- Node19 -->
<g id="node1" class="node"><title>Node19</title>
<polygon fill="#bfbfbf" stroke="black" points="0,-38.5 0,-57.5 100,-57.5 100,-38.5 0,-38.5"/>
<text text-anchor="middle" x="50" y="-45.5" font-family="Helvetica,sans-Serif" font-size="10.00">Sensor::both_white</text>
</g>
<!-- Node20 -->
<g id="node2" class="node"><title>Node20</title>
<g id="a_node2"><a xlink:href="class_state.html#aed3bf8334ee32e0cccba11fc2dc42b68" target="_top" xlink:title="State::clear">
<polygon fill="white" stroke="black" points="377,-57.5 377,-76.5 444,-76.5 444,-57.5 377,-57.5"/>
<text text-anchor="middle" x="410.5" y="-64.5" font-family="Helvetica,sans-Serif" font-size="10.00">State::clear</text>
</a>
</g>
</g>
<!-- Node19&#45;&gt;Node20 -->
<g id="edge1" class="edge"><title>Node19&#45;&gt;Node20</title>
<path fill="none" stroke="midnightblue" d="M110.301,-58.6396C118.902,-59.9285 127.663,-61.1037 136,-62 222.646,-71.3161 325.6,-69.8457 376.965,-68.2657"/>
<polygon fill="midnightblue" stroke="midnightblue" points="110.733,-55.1647 100.313,-57.0842 109.656,-62.0814 110.733,-55.1647"/>
</g>
<!-- Node21 -->
<g id="node3" class="node"><title>Node21</title>
<g id="a_node3"><a xlink:href="class_state.html#ae03eae00675106f8b6b9481c4b0e50dc" target="_top" xlink:title="State::object_or_turn">
<polygon fill="white" stroke="black" points="234,-38.5 234,-57.5 341,-57.5 341,-38.5 234,-38.5"/>
<text text-anchor="middle" x="287.5" y="-45.5" font-family="Helvetica,sans-Serif" font-size="10.00">State::object_or_turn</text>
</a>
</g>
</g>
<!-- Node19&#45;&gt;Node21 -->
<g id="edge2" class="edge"><title>Node19&#45;&gt;Node21</title>
<path fill="none" stroke="midnightblue" d="M110.485,-48C148.453,-48 197.227,-48 233.799,-48"/>
<polygon fill="midnightblue" stroke="midnightblue" points="110.082,-44.5001 100.082,-48 110.082,-51.5001 110.082,-44.5001"/>
</g>
<!-- Node22 -->
<g id="node4" class="node"><title>Node22</title>
<g id="a_node4"><a xlink:href="class_state.html#ae5ed95e28512e11f7cc41c603ca58ad5" target="_top" xlink:title="State::turn">
<polygon fill="white" stroke="black" points="136,-0.5 136,-19.5 198,-19.5 198,-0.5 136,-0.5"/>
<text text-anchor="middle" x="167" y="-7.5" font-family="Helvetica,sans-Serif" font-size="10.00">State::turn</text>
</a>
</g>
</g>
<!-- Node19&#45;&gt;Node22 -->
<g id="edge4" class="edge"><title>Node19&#45;&gt;Node22</title>
<path fill="none" stroke="midnightblue" d="M89.8153,-35.1741C105.246,-30.0753 122.691,-24.3109 136.99,-19.5859"/>
<polygon fill="midnightblue" stroke="midnightblue" points="88.4163,-31.9502 80.0194,-38.411 90.6126,-38.5967 88.4163,-31.9502"/>
</g>
<!-- Node21&#45;&gt;Node20 -->
<g id="edge3" class="edge"><title>Node21&#45;&gt;Node20</title>
<path fill="none" stroke="midnightblue" d="M351.201,-57.8455C360.052,-59.2355 368.841,-60.6156 376.808,-61.8665"/>
<polygon fill="midnightblue" stroke="midnightblue" points="351.642,-54.3721 341.22,-56.2784 350.556,-61.2874 351.642,-54.3721"/>
</g>
<!-- Node22&#45;&gt;Node21 -->
<g id="edge5" class="edge"><title>Node22&#45;&gt;Node21</title>
<path fill="none" stroke="midnightblue" d="M207.543,-22.6804C223.554,-27.8148 241.732,-33.6441 256.607,-38.4141"/>
<polygon fill="midnightblue" stroke="midnightblue" points="208.494,-19.3098 197.903,-19.589 206.356,-25.9755 208.494,-19.3098"/>
</g>
</g>
</svg>
