<?xml version="1.0" encoding="UTF-8" standalone="no"?>
<!DOCTYPE svg PUBLIC "-//W3C//DTD SVG 1.1//EN"
 "http://www.w3.org/Graphics/SVG/1.1/DTD/svg11.dtd">
<!-- Generated by graphviz version 2.38.0 (20140413.2041)
 -->
<!-- Title: RGB::is_black Pages: 1 -->
<!--zoomable 116 -->
<svg id="main" version="1.1" xmlns="http://www.w3.org/2000/svg" xmlns:xlink="http://www.w3.org/1999/xlink" xml:space="preserve" onload="init(evt)">
<style type="text/css"><![CDATA[
.edge:hover path { stroke: red; }
.edge:hover polygon { stroke: red; fill: red; }
]]></style>
<script type="text/javascript"><![CDATA[
var edges = document.getElementsByTagName('g');
if (edges && edges.length) {
  for (var i=0;i<edges.length;i++) {
    if (edges[i].id.substr(0,4)=='edge') {
      edges[i].setAttribute('class','edge');
    }
  }
}
]]></script>
        <defs>
                <circle id="rim" cx="0" cy="0" r="7"/>
                <circle id="rim2" cx="0" cy="0" r="3.5"/>
                <g id="zoomPlus">
                        <use xlink:href="#rim" fill="#404040">
                                <set attributeName="fill" to="#808080" begin="zoomplus.mouseover" end="zoomplus.mouseout"/>
                        </use>
                        <path d="M-4,0h8M0,-4v8" fill="none" stroke="white" stroke-width="1.5" pointer-events="none"/>
                </g>
                <g id="zoomMin">
                        <use xlink:href="#rim" fill="#404040">
                                <set attributeName="fill" to="#808080" begin="zoomminus.mouseover" end="zoomminus.mouseout"/>
                        </use>
                        <path d="M-4,0h8" fill="none" stroke="white" stroke-width="1.5" pointer-events="none"/>
                </g>
                <g id="dirArrow">
                        <path fill="none" stroke="white" stroke-width="1.5" d="M0,-3.0v7 M-2.5,-0.5L0,-3.0L2.5,-0.5"/>
                </g>
               <g id="resetDef">
                       <use xlink:href="#rim2" fill="#404040">
                               <set attributeName="fill" to="#808080" begin="reset.mouseover" end="reset.mouseout"/>
                       </use>
               </g>
        </defs>

<script type="text/javascript">
var viewWidth = 585;
var viewHeight = 116;
var sectionId = 'dynsection-0';
</script>
<script xlink:href="svgpan.js"/>
<svg id="graph" class="graph">
<g id="viewport">
<title>RGB::is_black</title>
<polygon fill="white" stroke="none" points="-4,4 -4,-111.5 581,-111.5 581,4 -4,4"/>
<!-- Node13 -->
<g id="node1" class="node"><title>Node13</title>
<polygon fill="#bfbfbf" stroke="black" points="0,-50 0,-69 80,-69 80,-50 0,-50"/>
<text text-anchor="middle" x="40" y="-57" font-family="Helvetica,sans-Serif" font-size="10.00">RGB::is_black</text>
</g>
<!-- Node14 -->
<g id="node2" class="node"><title>Node14</title>
<g id="a_node2"><a xlink:href="class_sensor.html#a32ebdbb3ba6fbe19739a10b17dc11cba" target="_top" xlink:title="Sensor::both_black">
<polygon fill="white" stroke="black" points="124,-88 124,-107 225,-107 225,-88 124,-88"/>
<text text-anchor="middle" x="174.5" y="-95" font-family="Helvetica,sans-Serif" font-size="10.00">Sensor::both_black</text>
</a>
</g>
</g>
<!-- Node13&#45;&gt;Node14 -->
<g id="edge1" class="edge"><title>Node13&#45;&gt;Node14</title>
<path fill="none" stroke="midnightblue" d="M84.2039,-71.8906C102.349,-77.0945 123.129,-83.0541 140.075,-87.9141"/>
<polygon fill="midnightblue" stroke="midnightblue" points="85.0127,-68.4815 74.4353,-69.089 83.0829,-75.2102 85.0127,-68.4815"/>
</g>
<!-- Node15 -->
<g id="node3" class="node"><title>Node15</title>
<g id="a_node3"><a xlink:href="class_sensor.html#add2279da6d407ed7678064ab1fe7d02d" target="_top" xlink:title="Sensor::both_white">
<polygon fill="white" stroke="black" points="124.5,-50 124.5,-69 224.5,-69 224.5,-50 124.5,-50"/>
<text text-anchor="middle" x="174.5" y="-57" font-family="Helvetica,sans-Serif" font-size="10.00">Sensor::both_white</text>
</a>
</g>
</g>
<!-- Node13&#45;&gt;Node15 -->
<g id="edge2" class="edge"><title>Node13&#45;&gt;Node15</title>
<path fill="none" stroke="midnightblue" d="M90.0846,-59.5C101.284,-59.5 113.185,-59.5 124.385,-59.5"/>
<polygon fill="midnightblue" stroke="midnightblue" points="90.0378,-56.0001 80.0377,-59.5 90.0377,-63.0001 90.0378,-56.0001"/>
</g>
<!-- Node19 -->
<g id="node7" class="node"><title>Node19</title>
<g id="a_node7"><a xlink:href="class_sensor.html#aa75ec0ed5bd2782f726f7e01796b2285" target="_top" xlink:title="Sensor::RGB_black_IR\l_white">
<polygon fill="white" stroke="black" points="116,-0.5 116,-30.5 233,-30.5 233,-0.5 116,-0.5"/>
<text text-anchor="start" x="124" y="-18.5" font-family="Helvetica,sans-Serif" font-size="10.00">Sensor::RGB_black_IR</text>
<text text-anchor="middle" x="174.5" y="-7.5" font-family="Helvetica,sans-Serif" font-size="10.00">_white</text>
</a>
</g>
</g>
<!-- Node13&#45;&gt;Node19 -->
<g id="edge8" class="edge"><title>Node13&#45;&gt;Node19</title>
<path fill="none" stroke="midnightblue" d="M79.3756,-46.7564C94.6166,-41.6952 112.265,-35.8347 128.133,-30.5654"/>
<polygon fill="midnightblue" stroke="midnightblue" points="78.1379,-43.4794 69.7505,-49.9527 80.344,-50.1227 78.1379,-43.4794"/>
</g>
<!-- Node16 -->
<g id="node4" class="node"><title>Node16</title>
<g id="a_node4"><a xlink:href="class_state.html#aed3bf8334ee32e0cccba11fc2dc42b68" target="_top" xlink:title="State::clear">
<polygon fill="white" stroke="black" points="510,-66 510,-85 577,-85 577,-66 510,-66"/>
<text text-anchor="middle" x="543.5" y="-73" font-family="Helvetica,sans-Serif" font-size="10.00">State::clear</text>
</a>
</g>
</g>
<!-- Node15&#45;&gt;Node16 -->
<g id="edge3" class="edge"><title>Node15&#45;&gt;Node16</title>
<path fill="none" stroke="midnightblue" d="M235.06,-68.757C246.31,-70.2282 257.997,-71.5694 269,-72.5 355.589,-79.8236 458.142,-78.2097 509.588,-76.6938"/>
<polygon fill="midnightblue" stroke="midnightblue" points="235.263,-65.2526 224.884,-67.3773 234.323,-72.1891 235.263,-65.2526"/>
</g>
<!-- Node17 -->
<g id="node5" class="node"><title>Node17</title>
<g id="a_node5"><a xlink:href="class_state.html#ae03eae00675106f8b6b9481c4b0e50dc" target="_top" xlink:title="State::object_or_turn">
<polygon fill="white" stroke="black" points="367,-47 367,-66 474,-66 474,-47 367,-47"/>
<text text-anchor="middle" x="420.5" y="-54" font-family="Helvetica,sans-Serif" font-size="10.00">State::object_or_turn</text>
</a>
</g>
</g>
<!-- Node15&#45;&gt;Node17 -->
<g id="edge4" class="edge"><title>Node15&#45;&gt;Node17</title>
<path fill="none" stroke="midnightblue" d="M234.799,-58.7709C275.073,-58.2757 327.866,-57.6266 366.692,-57.1493"/>
<polygon fill="midnightblue" stroke="midnightblue" points="234.54,-55.2737 224.584,-58.8965 234.626,-62.2732 234.54,-55.2737"/>
</g>
<!-- Node18 -->
<g id="node6" class="node"><title>Node18</title>
<g id="a_node6"><a xlink:href="class_state.html#ae5ed95e28512e11f7cc41c603ca58ad5" target="_top" xlink:title="State::turn">
<polygon fill="white" stroke="black" points="269,-9 269,-28 331,-28 331,-9 269,-9"/>
<text text-anchor="middle" x="300" y="-16" font-family="Helvetica,sans-Serif" font-size="10.00">State::turn</text>
</a>
</g>
</g>
<!-- Node15&#45;&gt;Node18 -->
<g id="edge6" class="edge"><title>Node15&#45;&gt;Node18</title>
<path fill="none" stroke="midnightblue" d="M213.853,-46.7674C232.004,-40.7416 253.32,-33.665 270.084,-28.0997"/>
<polygon fill="midnightblue" stroke="midnightblue" points="212.532,-43.5182 204.144,-49.9907 214.737,-50.1616 212.532,-43.5182"/>
</g>
<!-- Node17&#45;&gt;Node16 -->
<g id="edge5" class="edge"><title>Node17&#45;&gt;Node16</title>
<path fill="none" stroke="midnightblue" d="M484.201,-66.3455C493.052,-67.7355 501.841,-69.1156 509.808,-70.3665"/>
<polygon fill="midnightblue" stroke="midnightblue" points="484.642,-62.8721 474.22,-64.7784 483.556,-69.7874 484.642,-62.8721"/>
</g>
<!-- Node18&#45;&gt;Node17 -->
<g id="edge7" class="edge"><title>Node18&#45;&gt;Node17</title>
<path fill="none" stroke="midnightblue" d="M340.543,-31.1804C356.554,-36.3148 374.732,-42.1441 389.607,-46.9141"/>
<polygon fill="midnightblue" stroke="midnightblue" points="341.494,-27.8098 330.903,-28.089 339.356,-34.4755 341.494,-27.8098"/>
</g>
<!-- Node19&#45;&gt;Node18 -->
<g id="edge9" class="edge"><title>Node19&#45;&gt;Node18</title>
<path fill="none" stroke="midnightblue" d="M243.373,-17.1487C252.29,-17.3654 261.036,-17.5778 268.855,-17.7677"/>
<polygon fill="midnightblue" stroke="midnightblue" points="243.355,-13.6474 233.272,-16.9034 243.184,-20.6453 243.355,-13.6474"/>
</g>
</g>
</svg>
        <g id="navigator" transform="translate(0 0)" fill="#404254">
                <rect fill="#f2f5e9" fill-opacity="0.5" stroke="#606060" stroke-width=".5" x="0" y="0" width="60" height="60"/>
                <use id="zoomplus" xlink:href="#zoomPlus" x="17" y="9" onmousedown="handleZoom(evt,'in')"/>
                <use id="zoomminus" xlink:href="#zoomMin" x="42" y="9" onmousedown="handleZoom(evt,'out')"/>
                <use id="reset" xlink:href="#resetDef" x="30" y="36" onmousedown="handleReset()"/>
                <g id="arrowUp" xlink:href="#dirArrow" transform="translate(30 24)" onmousedown="handlePan(0,-1)">
                  <use xlink:href="#rim" fill="#404040">
                        <set attributeName="fill" to="#808080" begin="arrowUp.mouseover" end="arrowUp.mouseout"/>
                  </use>
                  <path fill="none" stroke="white" stroke-width="1.5" d="M0,-3.0v7 M-2.5,-0.5L0,-3.0L2.5,-0.5"/>
                </g>
                <g id="arrowRight" xlink:href="#dirArrow" transform="rotate(90) translate(36 -43)" onmousedown="handlePan(1,0)">
                  <use xlink:href="#rim" fill="#404040">
                        <set attributeName="fill" to="#808080" begin="arrowRight.mouseover" end="arrowRight.mouseout"/>
                  </use>
                  <path fill="none" stroke="white" stroke-width="1.5" d="M0,-3.0v7 M-2.5,-0.5L0,-3.0L2.5,-0.5"/>
                </g>
                <g id="arrowDown" xlink:href="#dirArrow" transform="rotate(180) translate(-30 -48)" onmousedown="handlePan(0,1)">
                  <use xlink:href="#rim" fill="#404040">
                        <set attributeName="fill" to="#808080" begin="arrowDown.mouseover" end="arrowDown.mouseout"/>
                  </use>
                  <path fill="none" stroke="white" stroke-width="1.5" d="M0,-3.0v7 M-2.5,-0.5L0,-3.0L2.5,-0.5"/>
                </g>
                <g id="arrowLeft" xlink:href="#dirArrow" transform="rotate(270) translate(-36 17)" onmousedown="handlePan(-1,0)">
                  <use xlink:href="#rim" fill="#404040">
                        <set attributeName="fill" to="#808080" begin="arrowLeft.mouseover" end="arrowLeft.mouseout"/>
                  </use>
                  <path fill="none" stroke="white" stroke-width="1.5" d="M0,-3.0v7 M-2.5,-0.5L0,-3.0L2.5,-0.5"/>
                </g>
        </g>
        <svg viewBox="0 0 15 15" width="100%" height="30px" preserveAspectRatio="xMaxYMin meet">
         <g id="arrow_out" transform="scale(0.3 0.3)">
          <a xlink:href="class_r_g_b_a6d5013f3b077886a1a92fa2b16628d22_icgraph_org.svg" target="_base">
           <rect id="button" ry="5" rx="5" y="6" x="6" height="38" width="38"
                fill="#f2f5e9" fill-opacity="0.5" stroke="#606060" stroke-width="1.0"/>
           <path id="arrow"
             d="M 11.500037,31.436501 C 11.940474,20.09759 22.043105,11.32322 32.158766,21.979434 L 37.068811,17.246167 C 37.068811,17.246167 37.088388,32 37.088388,32 L 22.160133,31.978069 C 22.160133,31.978069 26.997745,27.140456 26.997745,27.140456 C 18.528582,18.264221 13.291696,25.230495 11.500037,31.436501 z"
             style="fill:#404040;"/>
          </a>
         </g>
        </svg>
</svg>
