<?xml version="1.0" encoding="UTF-8" standalone="no"?>
<!DOCTYPE svg PUBLIC "-//W3C//DTD SVG 1.1//EN"
 "http://www.w3.org/Graphics/SVG/1.1/DTD/svg11.dtd">
<!-- Generated by graphviz version 2.38.0 (20140413.2041)
 -->
<!-- Title: Sensor::both_white Pages: 1 -->
<svg width="328pt" height="142pt"
 viewBox="0.00 0.00 328.00 142.00" xmlns="http://www.w3.org/2000/svg" xmlns:xlink="http://www.w3.org/1999/xlink">
<g id="graph0" class="graph" transform="scale(1 1) rotate(0) translate(4 138)">
<title>Sensor::both_white</title>
<polygon fill="white" stroke="none" points="-4,4 -4,-138 324,-138 324,4 -4,4"/>
<!-- Node13 -->
<g id="node1" class="node"><title>Node13</title>
<polygon fill="#bfbfbf" stroke="black" points="0,-57.5 0,-76.5 100,-76.5 100,-57.5 0,-57.5"/>
<text text-anchor="middle" x="50" y="-64.5" font-family="Helvetica,sans-Serif" font-size="10.00">Sensor::both_white</text>
</g>
<!-- Node14 -->
<g id="node2" class="node"><title>Node14</title>
<g id="a_node2"><a xlink:href="class_i_r.html#a2f62691ee90ca2a9035c088029dab4bb" target="_top" xlink:title="IR::is_black">
<polygon fill="white" stroke="black" points="142,-114.5 142,-133.5 210,-133.5 210,-114.5 142,-114.5"/>
<text text-anchor="middle" x="176" y="-121.5" font-family="Helvetica,sans-Serif" font-size="10.00">IR::is_black</text>
</a>
</g>
</g>
<!-- Node13&#45;&gt;Node14 -->
<g id="edge1" class="edge"><title>Node13&#45;&gt;Node14</title>
<path fill="none" stroke="midnightblue" d="M71.7548,-76.5405C91.7833,-85.7472 122.321,-99.7847 144.995,-110.207"/>
<polygon fill="midnightblue" stroke="midnightblue" points="143.63,-113.432 154.177,-114.428 146.553,-107.072 143.63,-113.432"/>
</g>
<!-- Node16 -->
<g id="node4" class="node"><title>Node16</title>
<g id="a_node4"><a xlink:href="class_r_g_b.html#a6d5013f3b077886a1a92fa2b16628d22" target="_top" xlink:title="RGB::is_black">
<polygon fill="white" stroke="black" points="136,-76.5 136,-95.5 216,-95.5 216,-76.5 136,-76.5"/>
<text text-anchor="middle" x="176" y="-83.5" font-family="Helvetica,sans-Serif" font-size="10.00">RGB::is_black</text>
</a>
</g>
</g>
<!-- Node13&#45;&gt;Node16 -->
<g id="edge3" class="edge"><title>Node13&#45;&gt;Node16</title>
<path fill="none" stroke="midnightblue" d="M100.008,-74.5093C108.478,-75.8072 117.288,-77.157 125.764,-78.4558"/>
<polygon fill="midnightblue" stroke="midnightblue" points="125.479,-81.9528 135.893,-80.0078 126.539,-75.0336 125.479,-81.9528"/>
</g>
<!-- Node17 -->
<g id="node5" class="node"><title>Node17</title>
<g id="a_node5"><a xlink:href="class_i_r.html#ae05cf1ad5888262586007946f21ac14e" target="_top" xlink:title="IR::is_white">
<polygon fill="white" stroke="black" points="142.5,-38.5 142.5,-57.5 209.5,-57.5 209.5,-38.5 142.5,-38.5"/>
<text text-anchor="middle" x="176" y="-45.5" font-family="Helvetica,sans-Serif" font-size="10.00">IR::is_white</text>
</a>
</g>
</g>
<!-- Node13&#45;&gt;Node17 -->
<g id="edge4" class="edge"><title>Node13&#45;&gt;Node17</title>
<path fill="none" stroke="midnightblue" d="M100.008,-59.4907C110.67,-57.857 121.869,-56.1411 132.265,-54.5481"/>
<polygon fill="midnightblue" stroke="midnightblue" points="132.99,-57.978 142.344,-53.0037 131.93,-51.0587 132.99,-57.978"/>
</g>
<!-- Node18 -->
<g id="node6" class="node"><title>Node18</title>
<g id="a_node6"><a xlink:href="class_r_g_b.html#aa8289d37cc58a81e02b857fb91bfca5c" target="_top" xlink:title="RGB::is_white">
<polygon fill="white" stroke="black" points="136.5,-0.5 136.5,-19.5 215.5,-19.5 215.5,-0.5 136.5,-0.5"/>
<text text-anchor="middle" x="176" y="-7.5" font-family="Helvetica,sans-Serif" font-size="10.00">RGB::is_white</text>
</a>
</g>
</g>
<!-- Node13&#45;&gt;Node18 -->
<g id="edge6" class="edge"><title>Node13&#45;&gt;Node18</title>
<path fill="none" stroke="midnightblue" d="M71.7548,-57.4595C91.7833,-48.2528 122.321,-34.2153 144.995,-23.7926"/>
<polygon fill="midnightblue" stroke="midnightblue" points="146.553,-26.9284 154.177,-19.5716 143.63,-20.5682 146.553,-26.9284"/>
</g>
<!-- Node15 -->
<g id="node3" class="node"><title>Node15</title>
<g id="a_node3"><a xlink:href="class_i_r.html#a388cfd7a959fa4a24d8e2bad1e9d95d5" target="_top" xlink:title="IR::in_range">
<polygon fill="white" stroke="black" points="252,-76.5 252,-95.5 320,-95.5 320,-76.5 252,-76.5"/>
<text text-anchor="middle" x="286" y="-83.5" font-family="Helvetica,sans-Serif" font-size="10.00">IR::in_range</text>
</a>
</g>
</g>
<!-- Node14&#45;&gt;Node15 -->
<g id="edge2" class="edge"><title>Node14&#45;&gt;Node15</title>
<path fill="none" stroke="midnightblue" d="M204.253,-114.411C217.555,-109.731 233.754,-104.031 248.142,-98.9685"/>
<polygon fill="midnightblue" stroke="midnightblue" points="249.484,-102.207 257.756,-95.5859 247.161,-95.6035 249.484,-102.207"/>
</g>
<!-- Node17&#45;&gt;Node15 -->
<g id="edge5" class="edge"><title>Node17&#45;&gt;Node15</title>
<path fill="none" stroke="midnightblue" d="M204.253,-57.589C217.555,-62.2694 233.754,-67.9692 248.142,-73.0315"/>
<polygon fill="midnightblue" stroke="midnightblue" points="247.161,-76.3965 257.756,-76.4141 249.484,-69.7933 247.161,-76.3965"/>
</g>
</g>
</svg>
