<?xml version="1.0" encoding="UTF-8" standalone="no"?>
<!DOCTYPE svg PUBLIC "-//W3C//DTD SVG 1.1//EN"
 "http://www.w3.org/Graphics/SVG/1.1/DTD/svg11.dtd">
<!-- Generated by graphviz version 2.38.0 (20140413.2041)
 -->
<!-- Title: IR::in_range Pages: 1 -->
<svg width="677pt" height="179pt"
 viewBox="0.00 0.00 677.00 178.50" xmlns="http://www.w3.org/2000/svg" xmlns:xlink="http://www.w3.org/1999/xlink">
<g id="graph0" class="graph" transform="scale(1 1) rotate(0) translate(4 174.5)">
<title>IR::in_range</title>
<polygon fill="white" stroke="none" points="-4,4 -4,-174.5 673,-174.5 673,4 -4,4"/>
<!-- Node10 -->
<g id="node1" class="node"><title>Node10</title>
<polygon fill="#bfbfbf" stroke="black" points="0,-71 0,-90 68,-90 68,-71 0,-71"/>
<text text-anchor="middle" x="34" y="-78" font-family="Helvetica,sans-Serif" font-size="10.00">IR::in_range</text>
</g>
<!-- Node11 -->
<g id="node2" class="node"><title>Node11</title>
<g id="a_node2"><a xlink:href="class_i_r.html#ae05cf1ad5888262586007946f21ac14e" target="_top" xlink:title="IR::is_white">
<polygon fill="white" stroke="black" points="104.5,-51 104.5,-70 171.5,-70 171.5,-51 104.5,-51"/>
<text text-anchor="middle" x="138" y="-58" font-family="Helvetica,sans-Serif" font-size="10.00">IR::is_white</text>
</a>
</g>
</g>
<!-- Node10&#45;&gt;Node11 -->
<g id="edge1" class="edge"><title>Node10&#45;&gt;Node11</title>
<path fill="none" stroke="midnightblue" d="M78.2059,-72.0283C86.9786,-70.3081 96.0665,-68.5262 104.398,-66.8926"/>
<polygon fill="midnightblue" stroke="midnightblue" points="77.2561,-68.6478 68.1165,-74.0066 78.6031,-75.5169 77.2561,-68.6478"/>
</g>
<!-- Node18 -->
<g id="node9" class="node"><title>Node18</title>
<g id="a_node9"><a xlink:href="class_i_r.html#a2f62691ee90ca2a9035c088029dab4bb" target="_top" xlink:title="IR::is_black">
<polygon fill="white" stroke="black" points="104,-92 104,-111 172,-111 172,-92 104,-92"/>
<text text-anchor="middle" x="138" y="-99" font-family="Helvetica,sans-Serif" font-size="10.00">IR::is_black</text>
</a>
</g>
</g>
<!-- Node10&#45;&gt;Node18 -->
<g id="edge11" class="edge"><title>Node10&#45;&gt;Node18</title>
<path fill="none" stroke="midnightblue" d="M78,-89.3529C86.5924,-91.122 95.4954,-92.9549 103.701,-94.6442"/>
<polygon fill="midnightblue" stroke="midnightblue" points="78.6169,-85.9066 68.1165,-87.3181 77.2052,-92.7628 78.6169,-85.9066"/>
</g>
<!-- Node12 -->
<g id="node3" class="node"><title>Node12</title>
<g id="a_node3"><a xlink:href="class_sensor.html#a32ebdbb3ba6fbe19739a10b17dc11cba" target="_top" xlink:title="Sensor::both_black">
<polygon fill="white" stroke="black" points="216,-50 216,-69 317,-69 317,-50 216,-50"/>
<text text-anchor="middle" x="266.5" y="-57" font-family="Helvetica,sans-Serif" font-size="10.00">Sensor::both_black</text>
</a>
</g>
</g>
<!-- Node11&#45;&gt;Node12 -->
<g id="edge2" class="edge"><title>Node11&#45;&gt;Node12</title>
<path fill="none" stroke="midnightblue" d="M181.745,-60.1621C192.696,-60.0755 204.566,-59.9817 215.833,-59.8926"/>
<polygon fill="midnightblue" stroke="midnightblue" points="181.549,-56.6634 171.577,-60.2425 181.604,-63.6632 181.549,-56.6634"/>
</g>
<!-- Node13 -->
<g id="node4" class="node"><title>Node13</title>
<g id="a_node4"><a xlink:href="class_sensor.html#add2279da6d407ed7678064ab1fe7d02d" target="_top" xlink:title="Sensor::both_white">
<polygon fill="white" stroke="black" points="216.5,-138 216.5,-157 316.5,-157 316.5,-138 216.5,-138"/>
<text text-anchor="middle" x="266.5" y="-145" font-family="Helvetica,sans-Serif" font-size="10.00">Sensor::both_white</text>
</a>
</g>
</g>
<!-- Node11&#45;&gt;Node13 -->
<g id="edge3" class="edge"><title>Node11&#45;&gt;Node13</title>
<path fill="none" stroke="midnightblue" d="M163.958,-75.9183C166.769,-78.0067 169.513,-80.2199 172,-82.5 190.879,-99.8085 187.086,-112.714 208,-127.5 214.041,-131.771 221.078,-135.202 228.114,-137.932"/>
<polygon fill="midnightblue" stroke="midnightblue" points="165.728,-72.8874 155.511,-70.0852 161.751,-78.6476 165.728,-72.8874"/>
</g>
<!-- Node17 -->
<g id="node8" class="node"><title>Node17</title>
<g id="a_node8"><a xlink:href="class_sensor.html#aa75ec0ed5bd2782f726f7e01796b2285" target="_top" xlink:title="Sensor::RGB_black_IR\l_white">
<polygon fill="white" stroke="black" points="208,-0.5 208,-30.5 325,-30.5 325,-0.5 208,-0.5"/>
<text text-anchor="start" x="216" y="-18.5" font-family="Helvetica,sans-Serif" font-size="10.00">Sensor::RGB_black_IR</text>
<text text-anchor="middle" x="266.5" y="-7.5" font-family="Helvetica,sans-Serif" font-size="10.00">_white</text>
</a>
</g>
</g>
<!-- Node11&#45;&gt;Node17 -->
<g id="edge9" class="edge"><title>Node11&#45;&gt;Node17</title>
<path fill="none" stroke="midnightblue" d="M175.27,-47.5977C190.254,-42.2675 207.723,-36.053 223.278,-30.5195"/>
<polygon fill="midnightblue" stroke="midnightblue" points="174.076,-44.3075 165.827,-50.9567 176.422,-50.9026 174.076,-44.3075"/>
</g>
<!-- Node14 -->
<g id="node5" class="node"><title>Node14</title>
<g id="a_node5"><a xlink:href="class_state.html#aed3bf8334ee32e0cccba11fc2dc42b68" target="_top" xlink:title="State::clear">
<polygon fill="white" stroke="black" points="602,-151 602,-170 669,-170 669,-151 602,-151"/>
<text text-anchor="middle" x="635.5" y="-158" font-family="Helvetica,sans-Serif" font-size="10.00">State::clear</text>
</a>
</g>
</g>
<!-- Node13&#45;&gt;Node14 -->
<g id="edge4" class="edge"><title>Node13&#45;&gt;Node14</title>
<path fill="none" stroke="midnightblue" d="M327.087,-155.383C338.334,-156.623 350.014,-157.743 361,-158.5 447.69,-164.47 550.199,-162.927 601.613,-161.561"/>
<polygon fill="midnightblue" stroke="midnightblue" points="327.245,-151.878 316.912,-154.217 326.448,-158.833 327.245,-151.878"/>
</g>
<!-- Node15 -->
<g id="node6" class="node"><title>Node15</title>
<g id="a_node6"><a xlink:href="class_state.html#ae03eae00675106f8b6b9481c4b0e50dc" target="_top" xlink:title="State::object_or_turn">
<polygon fill="white" stroke="black" points="459,-132 459,-151 566,-151 566,-132 459,-132"/>
<text text-anchor="middle" x="512.5" y="-139" font-family="Helvetica,sans-Serif" font-size="10.00">State::object_or_turn</text>
</a>
</g>
</g>
<!-- Node13&#45;&gt;Node15 -->
<g id="edge5" class="edge"><title>Node13&#45;&gt;Node15</title>
<path fill="none" stroke="midnightblue" d="M326.799,-146.042C367.073,-145.051 419.866,-143.753 458.692,-142.799"/>
<polygon fill="midnightblue" stroke="midnightblue" points="326.494,-142.548 316.584,-146.293 326.667,-149.546 326.494,-142.548"/>
</g>
<!-- Node16 -->
<g id="node7" class="node"><title>Node16</title>
<g id="a_node7"><a xlink:href="class_state.html#ae5ed95e28512e11f7cc41c603ca58ad5" target="_top" xlink:title="State::turn">
<polygon fill="white" stroke="black" points="361,-94 361,-113 423,-113 423,-94 361,-94"/>
<text text-anchor="middle" x="392" y="-101" font-family="Helvetica,sans-Serif" font-size="10.00">State::turn</text>
</a>
</g>
</g>
<!-- Node13&#45;&gt;Node16 -->
<g id="edge7" class="edge"><title>Node13&#45;&gt;Node16</title>
<path fill="none" stroke="midnightblue" d="M304.899,-134.577C311.598,-132.238 318.51,-129.809 325,-127.5 338.21,-122.801 352.871,-117.481 365.012,-113.045"/>
<polygon fill="midnightblue" stroke="midnightblue" points="303.605,-131.321 295.312,-137.915 305.907,-137.932 303.605,-131.321"/>
</g>
<!-- Node15&#45;&gt;Node14 -->
<g id="edge6" class="edge"><title>Node15&#45;&gt;Node14</title>
<path fill="none" stroke="midnightblue" d="M576.201,-151.346C585.052,-152.735 593.841,-154.116 601.808,-155.367"/>
<polygon fill="midnightblue" stroke="midnightblue" points="576.642,-147.872 566.22,-149.778 575.556,-154.787 576.642,-147.872"/>
</g>
<!-- Node16&#45;&gt;Node15 -->
<g id="edge8" class="edge"><title>Node16&#45;&gt;Node15</title>
<path fill="none" stroke="midnightblue" d="M432.543,-116.18C448.554,-121.315 466.732,-127.144 481.607,-131.914"/>
<polygon fill="midnightblue" stroke="midnightblue" points="433.494,-112.81 422.903,-113.089 431.356,-119.475 433.494,-112.81"/>
</g>
<!-- Node17&#45;&gt;Node16 -->
<g id="edge10" class="edge"><title>Node17&#45;&gt;Node16</title>
<path fill="none" stroke="midnightblue" d="M316.308,-35.2452C319.311,-36.9098 322.234,-38.6635 325,-40.5 348.49,-56.0966 371.222,-80.4621 382.894,-93.862"/>
<polygon fill="midnightblue" stroke="midnightblue" points="317.626,-31.9875 307.133,-30.5248 314.424,-38.212 317.626,-31.9875"/>
</g>
<!-- Node18&#45;&gt;Node12 -->
<g id="edge12" class="edge"><title>Node18&#45;&gt;Node12</title>
<path fill="none" stroke="midnightblue" d="M177.226,-88.7383C187.238,-85.4011 198.023,-81.8112 208,-78.5 217.28,-75.4202 227.406,-72.0705 236.538,-69.0536"/>
<polygon fill="midnightblue" stroke="midnightblue" points="175.909,-85.4879 167.53,-91.9716 178.123,-92.1285 175.909,-85.4879"/>
</g>
<!-- Node18&#45;&gt;Node13 -->
<g id="edge13" class="edge"><title>Node18&#45;&gt;Node13</title>
<path fill="none" stroke="midnightblue" d="M173.54,-114.713C184.533,-118.865 196.758,-123.427 208,-127.5 217.639,-130.992 228.229,-134.709 237.665,-137.979"/>
<polygon fill="midnightblue" stroke="midnightblue" points="174.446,-111.314 163.854,-111.041 171.964,-117.859 174.446,-111.314"/>
</g>
<!-- Node19 -->
<g id="node10" class="node"><title>Node19</title>
<g id="a_node10"><a xlink:href="class_sensor.html#a03b8f6886c672badadfeef89d069e1ea" target="_top" xlink:title="Sensor::IR_black_RGB\l_white">
<polygon fill="white" stroke="black" points="208,-88.5 208,-118.5 325,-118.5 325,-88.5 208,-88.5"/>
<text text-anchor="start" x="216" y="-106.5" font-family="Helvetica,sans-Serif" font-size="10.00">Sensor::IR_black_RGB</text>
<text text-anchor="middle" x="266.5" y="-95.5" font-family="Helvetica,sans-Serif" font-size="10.00">_white</text>
</a>
</g>
</g>
<!-- Node18&#45;&gt;Node19 -->
<g id="edge14" class="edge"><title>Node18&#45;&gt;Node19</title>
<path fill="none" stroke="midnightblue" d="M182.243,-102.184C190.388,-102.312 199.027,-102.449 207.537,-102.584"/>
<polygon fill="midnightblue" stroke="midnightblue" points="182.29,-98.6841 172.236,-102.025 182.18,-105.683 182.29,-98.6841"/>
</g>
<!-- Node19&#45;&gt;Node16 -->
<g id="edge15" class="edge"><title>Node19&#45;&gt;Node16</title>
<path fill="none" stroke="midnightblue" d="M335.373,-103.5C344.29,-103.5 353.036,-103.5 360.855,-103.5"/>
<polygon fill="midnightblue" stroke="midnightblue" points="335.273,-100 325.272,-103.5 335.272,-107 335.273,-100"/>
</g>
</g>
</svg>
