<?xml version="1.0" encoding="UTF-8" standalone="no"?>
<!DOCTYPE svg PUBLIC "-//W3C//DTD SVG 1.1//EN"
 "http://www.w3.org/Graphics/SVG/1.1/DTD/svg11.dtd">
<!-- Generated by graphviz version 2.38.0 (20140413.2041)
 -->
<!-- Title: IR::set_current_value Pages: 1 -->
<svg width="508pt" height="47pt"
 viewBox="0.00 0.00 508.00 47.00" xmlns="http://www.w3.org/2000/svg" xmlns:xlink="http://www.w3.org/1999/xlink">
<g id="graph0" class="graph" transform="scale(1 1) rotate(0) translate(4 43)">
<title>IR::set_current_value</title>
<polygon fill="white" stroke="none" points="-4,4 -4,-43 504,-43 504,4 -4,4"/>
<!-- Node39 -->
<g id="node1" class="node"><title>Node39</title>
<polygon fill="#bfbfbf" stroke="black" points="0,-0.5 0,-19.5 107,-19.5 107,-0.5 0,-0.5"/>
<text text-anchor="middle" x="53.5" y="-7.5" font-family="Helvetica,sans-Serif" font-size="10.00">IR::set_current_value</text>
</g>
<!-- Node40 -->
<g id="node2" class="node"><title>Node40</title>
<g id="a_node2"><a xlink:href="class_i_r.html#a5b71d10f57e8dbb76cdf01e043cfdda1" target="_top" xlink:title="IR::get_current_value">
<polygon fill="white" stroke="black" points="143,-19.5 143,-38.5 250,-38.5 250,-19.5 143,-19.5"/>
<text text-anchor="middle" x="196.5" y="-26.5" font-family="Helvetica,sans-Serif" font-size="10.00">IR::get_current_value</text>
</a>
</g>
</g>
<!-- Node39&#45;&gt;Node40 -->
<g id="edge1" class="edge"><title>Node39&#45;&gt;Node40</title>
<path fill="none" stroke="midnightblue" d="M117.05,-18.4288C125.7,-19.5943 134.51,-20.7815 142.953,-21.9192"/>
<polygon fill="midnightblue" stroke="midnightblue" points="117.381,-14.9418 107.003,-17.0749 116.446,-21.8791 117.381,-14.9418"/>
</g>
<!-- Node41 -->
<g id="node3" class="node"><title>Node41</title>
<g id="a_node3"><a xlink:href="class_i_r.html#a8bcc5c0570384da5a39e395b91bc2d2b" target="_top" xlink:title="IR::set_ranges">
<polygon fill="white" stroke="black" points="286,-0.5 286,-19.5 366,-19.5 366,-0.5 286,-0.5"/>
<text text-anchor="middle" x="326" y="-7.5" font-family="Helvetica,sans-Serif" font-size="10.00">IR::set_ranges</text>
</a>
</g>
</g>
<!-- Node39&#45;&gt;Node41 -->
<g id="edge4" class="edge"><title>Node39&#45;&gt;Node41</title>
<path fill="none" stroke="midnightblue" d="M117.427,-10C169.496,-10 241.825,-10 285.914,-10"/>
<polygon fill="midnightblue" stroke="midnightblue" points="117.297,-6.5001 107.297,-10 117.297,-13.5001 117.297,-6.5001"/>
</g>
<!-- Node40&#45;&gt;Node41 -->
<g id="edge2" class="edge"><title>Node40&#45;&gt;Node41</title>
<path fill="none" stroke="midnightblue" d="M260.255,-19.6483C268.952,-18.3522 277.674,-17.0524 285.773,-15.8455"/>
<polygon fill="midnightblue" stroke="midnightblue" points="259.47,-16.2265 250.095,-21.1623 260.502,-23.15 259.47,-16.2265"/>
</g>
<!-- Node42 -->
<g id="node4" class="node"><title>Node42</title>
<g id="a_node4"><a xlink:href="class_sensor.html#a7065fe2dff6107b89d162e59271a9491" target="_top" xlink:title="Sensor::initializeIR">
<polygon fill="white" stroke="black" points="402,-0.5 402,-19.5 500,-19.5 500,-0.5 402,-0.5"/>
<text text-anchor="middle" x="451" y="-7.5" font-family="Helvetica,sans-Serif" font-size="10.00">Sensor::initializeIR</text>
</a>
</g>
</g>
<!-- Node41&#45;&gt;Node42 -->
<g id="edge3" class="edge"><title>Node41&#45;&gt;Node42</title>
<path fill="none" stroke="midnightblue" d="M376.531,-10C384.807,-10 393.383,-10 401.63,-10"/>
<polygon fill="midnightblue" stroke="midnightblue" points="376.256,-6.5001 366.256,-10 376.256,-13.5001 376.256,-6.5001"/>
</g>
</g>
</svg>
