<?xml version="1.0" encoding="UTF-8" standalone="no"?>
<!DOCTYPE svg PUBLIC "-//W3C//DTD SVG 1.1//EN"
 "http://www.w3.org/Graphics/SVG/1.1/DTD/svg11.dtd">
<!-- Generated by graphviz version 2.38.0 (20140413.2041)
 -->
<!-- Title: Sensor::object_near Pages: 1 -->
<svg width="456pt" height="85pt"
 viewBox="0.00 0.00 456.00 85.00" xmlns="http://www.w3.org/2000/svg" xmlns:xlink="http://www.w3.org/1999/xlink">
<g id="graph0" class="graph" transform="scale(1 1) rotate(0) translate(4 81)">
<title>Sensor::object_near</title>
<polygon fill="white" stroke="none" points="-4,4 -4,-81 452,-81 452,4 -4,4"/>
<!-- Node43 -->
<g id="node1" class="node"><title>Node43</title>
<polygon fill="#bfbfbf" stroke="black" points="0,-38.5 0,-57.5 104,-57.5 104,-38.5 0,-38.5"/>
<text text-anchor="middle" x="52" y="-45.5" font-family="Helvetica,sans-Serif" font-size="10.00">Sensor::object_near</text>
</g>
<!-- Node44 -->
<g id="node2" class="node"><title>Node44</title>
<g id="a_node2"><a xlink:href="class_state.html#aed3bf8334ee32e0cccba11fc2dc42b68" target="_top" xlink:title="State::clear">
<polygon fill="white" stroke="black" points="381,-57.5 381,-76.5 448,-76.5 448,-57.5 381,-57.5"/>
<text text-anchor="middle" x="414.5" y="-64.5" font-family="Helvetica,sans-Serif" font-size="10.00">State::clear</text>
</a>
</g>
</g>
<!-- Node43&#45;&gt;Node44 -->
<g id="edge1" class="edge"><title>Node43&#45;&gt;Node44</title>
<path fill="none" stroke="midnightblue" d="M114.38,-58.7298C122.964,-59.9812 131.689,-61.122 140,-62 226.663,-71.1563 329.61,-69.7552 380.969,-68.2272"/>
<polygon fill="midnightblue" stroke="midnightblue" points="114.812,-55.2554 104.401,-57.2191 113.764,-62.1765 114.812,-55.2554"/>
</g>
<!-- Node45 -->
<g id="node3" class="node"><title>Node45</title>
<g id="a_node3"><a xlink:href="class_state.html#ae03eae00675106f8b6b9481c4b0e50dc" target="_top" xlink:title="State::object_or_turn">
<polygon fill="white" stroke="black" points="238,-38.5 238,-57.5 345,-57.5 345,-38.5 238,-38.5"/>
<text text-anchor="middle" x="291.5" y="-45.5" font-family="Helvetica,sans-Serif" font-size="10.00">State::object_or_turn</text>
</a>
</g>
</g>
<!-- Node43&#45;&gt;Node45 -->
<g id="edge2" class="edge"><title>Node43&#45;&gt;Node45</title>
<path fill="none" stroke="midnightblue" d="M114.712,-48C152.87,-48 201.334,-48 237.706,-48"/>
<polygon fill="midnightblue" stroke="midnightblue" points="114.242,-44.5001 104.242,-48 114.242,-51.5001 114.242,-44.5001"/>
</g>
<!-- Node46 -->
<g id="node4" class="node"><title>Node46</title>
<g id="a_node4"><a xlink:href="class_state.html#ae5ed95e28512e11f7cc41c603ca58ad5" target="_top" xlink:title="State::turn">
<polygon fill="white" stroke="black" points="140,-0.5 140,-19.5 202,-19.5 202,-0.5 140,-0.5"/>
<text text-anchor="middle" x="171" y="-7.5" font-family="Helvetica,sans-Serif" font-size="10.00">State::turn</text>
</a>
</g>
</g>
<!-- Node43&#45;&gt;Node46 -->
<g id="edge4" class="edge"><title>Node43&#45;&gt;Node46</title>
<path fill="none" stroke="midnightblue" d="M92.0424,-35.3196C107.851,-30.1852 125.799,-24.3559 140.485,-19.5859"/>
<polygon fill="midnightblue" stroke="midnightblue" points="90.9538,-31.9931 82.524,-38.411 93.1162,-38.6507 90.9538,-31.9931"/>
</g>
<!-- Node45&#45;&gt;Node44 -->
<g id="edge3" class="edge"><title>Node45&#45;&gt;Node44</title>
<path fill="none" stroke="midnightblue" d="M355.201,-57.8455C364.052,-59.2355 372.841,-60.6156 380.808,-61.8665"/>
<polygon fill="midnightblue" stroke="midnightblue" points="355.642,-54.3721 345.22,-56.2784 354.556,-61.2874 355.642,-54.3721"/>
</g>
<!-- Node46&#45;&gt;Node45 -->
<g id="edge5" class="edge"><title>Node46&#45;&gt;Node45</title>
<path fill="none" stroke="midnightblue" d="M211.543,-22.6804C227.554,-27.8148 245.732,-33.6441 260.607,-38.4141"/>
<polygon fill="midnightblue" stroke="midnightblue" points="212.494,-19.3098 201.903,-19.589 210.356,-25.9755 212.494,-19.3098"/>
</g>
</g>
</svg>
