<?xml version="1.0" encoding="UTF-8" standalone="no"?>
<!DOCTYPE svg PUBLIC "-//W3C//DTD SVG 1.1//EN"
 "http://www.w3.org/Graphics/SVG/1.1/DTD/svg11.dtd">
<!-- Generated by graphviz version 2.38.0 (20140413.2041)
 -->
<!-- Title: State::object_or_turn Pages: 1 -->
<!--zoomable 211 -->
<svg id="main" version="1.1" xmlns="http://www.w3.org/2000/svg" xmlns:xlink="http://www.w3.org/1999/xlink" xml:space="preserve" onload="init(evt)">
<style type="text/css"><![CDATA[
.edge:hover path { stroke: red; }
.edge:hover polygon { stroke: red; fill: red; }
]]></style>
<script type="text/javascript"><![CDATA[
var edges = document.getElementsByTagName('g');
if (edges && edges.length) {
  for (var i=0;i<edges.length;i++) {
    if (edges[i].id.substr(0,4)=='edge') {
      edges[i].setAttribute('class','edge');
    }
  }
}
]]></script>
        <defs>
                <circle id="rim" cx="0" cy="0" r="7"/>
                <circle id="rim2" cx="0" cy="0" r="3.5"/>
                <g id="zoomPlus">
                        <use xlink:href="#rim" fill="#404040">
                                <set attributeName="fill" to="#808080" begin="zoomplus.mouseover" end="zoomplus.mouseout"/>
                        </use>
                        <path d="M-4,0h8M0,-4v8" fill="none" stroke="white" stroke-width="1.5" pointer-events="none"/>
                </g>
                <g id="zoomMin">
                        <use xlink:href="#rim" fill="#404040">
                                <set attributeName="fill" to="#808080" begin="zoomminus.mouseover" end="zoomminus.mouseout"/>
                        </use>
                        <path d="M-4,0h8" fill="none" stroke="white" stroke-width="1.5" pointer-events="none"/>
                </g>
                <g id="dirArrow">
                        <path fill="none" stroke="white" stroke-width="1.5" d="M0,-3.0v7 M-2.5,-0.5L0,-3.0L2.5,-0.5"/>
                </g>
               <g id="resetDef">
                       <use xlink:href="#rim2" fill="#404040">
                               <set attributeName="fill" to="#808080" begin="reset.mouseover" end="reset.mouseout"/>
                       </use>
               </g>
        </defs>

<script type="text/javascript">
var viewWidth = 586;
var viewHeight = 211;
var sectionId = 'dynsection-2';
</script>
<script xlink:href="svgpan.js"/>
<svg id="graph" class="graph">
<g id="viewport">
<title>State::object_or_turn</title>
<polygon fill="white" stroke="none" points="-4,4 -4,-207 582,-207 582,4 -4,4"/>
<!-- Node26 -->
<g id="node1" class="node"><title>Node26</title>
<polygon fill="#bfbfbf" stroke="black" points="0,-59.5 0,-78.5 107,-78.5 107,-59.5 0,-59.5"/>
<text text-anchor="middle" x="53.5" y="-66.5" font-family="Helvetica,sans-Serif" font-size="10.00">State::object_or_turn</text>
</g>
<!-- Node27 -->
<g id="node2" class="node"><title>Node27</title>
<g id="a_node2"><a xlink:href="class_sensor.html#add2279da6d407ed7678064ab1fe7d02d" target="_top" xlink:title="Sensor::both_white">
<polygon fill="white" stroke="black" points="249.5,-126.5 249.5,-145.5 349.5,-145.5 349.5,-126.5 249.5,-126.5"/>
<text text-anchor="middle" x="299.5" y="-133.5" font-family="Helvetica,sans-Serif" font-size="10.00">Sensor::both_white</text>
</a>
</g>
</g>
<!-- Node26&#45;&gt;Node27 -->
<g id="edge1" class="edge"><title>Node26&#45;&gt;Node27</title>
<path fill="none" stroke="midnightblue" d="M72.283,-78.6564C89.7921,-87.7705 117.535,-101.173 143,-109 174.16,-118.578 209.943,-125.085 239.321,-129.307"/>
<polygon fill="midnightblue" stroke="midnightblue" points="239.042,-132.801 249.428,-130.706 240.002,-125.867 239.042,-132.801"/>
</g>
<!-- Node33 -->
<g id="node8" class="node"><title>Node33</title>
<g id="a_node8"><a xlink:href="class_state.html#a975afaa8e6091654888d7ed58b8c29c1" target="_top" xlink:title="State::obstacle_avoid">
<polygon fill="white" stroke="black" points="244.5,-38.5 244.5,-57.5 354.5,-57.5 354.5,-38.5 244.5,-38.5"/>
<text text-anchor="middle" x="299.5" y="-45.5" font-family="Helvetica,sans-Serif" font-size="10.00">State::obstacle_avoid</text>
</a>
</g>
</g>
<!-- Node26&#45;&gt;Node33 -->
<g id="edge8" class="edge"><title>Node26&#45;&gt;Node33</title>
<path fill="none" stroke="midnightblue" d="M107.144,-64.4692C144.39,-61.2636 194.55,-56.9466 234.17,-53.5366"/>
<polygon fill="midnightblue" stroke="midnightblue" points="234.598,-57.0128 244.262,-52.6681 233.998,-50.0385 234.598,-57.0128"/>
</g>
<!-- Node34 -->
<g id="node9" class="node"><title>Node34</title>
<g id="a_node9"><a xlink:href="class_sensor.html#a4f797e3f6a549cfdefab639eb6a86787" target="_top" xlink:title="Sensor::object_near">
<polygon fill="white" stroke="black" points="247.5,-0.5 247.5,-19.5 351.5,-19.5 351.5,-0.5 247.5,-0.5"/>
<text text-anchor="middle" x="299.5" y="-7.5" font-family="Helvetica,sans-Serif" font-size="10.00">Sensor::object_near</text>
</a>
</g>
</g>
<!-- Node26&#45;&gt;Node34 -->
<g id="edge9" class="edge"><title>Node26&#45;&gt;Node34</title>
<path fill="none" stroke="midnightblue" d="M93.974,-59.4551C136.232,-49.237 203.357,-33.0058 249.093,-21.9468"/>
<polygon fill="midnightblue" stroke="midnightblue" points="250.185,-25.2836 259.083,-19.5312 248.54,-18.4796 250.185,-25.2836"/>
</g>
<!-- Node35 -->
<g id="node10" class="node"><title>Node35</title>
<g id="a_node10"><a xlink:href="class_state.html#ae5ed95e28512e11f7cc41c603ca58ad5" target="_top" xlink:title="State::turn">
<polygon fill="white" stroke="black" points="143,-80.5 143,-99.5 205,-99.5 205,-80.5 143,-80.5"/>
<text text-anchor="middle" x="174" y="-87.5" font-family="Helvetica,sans-Serif" font-size="10.00">State::turn</text>
</a>
</g>
</g>
<!-- Node26&#45;&gt;Node35 -->
<g id="edge10" class="edge"><title>Node26&#45;&gt;Node35</title>
<path fill="none" stroke="midnightblue" d="M107.166,-78.3332C115.771,-79.8582 124.565,-81.4165 132.807,-82.8772"/>
<polygon fill="midnightblue" stroke="midnightblue" points="132.44,-86.3666 142.898,-84.6654 133.662,-79.474 132.44,-86.3666"/>
</g>
<!-- Node28 -->
<g id="node3" class="node"><title>Node28</title>
<g id="a_node3"><a xlink:href="class_i_r.html#a2f62691ee90ca2a9035c088029dab4bb" target="_top" xlink:title="IR::is_black">
<polygon fill="white" stroke="black" points="400,-145.5 400,-164.5 468,-164.5 468,-145.5 400,-145.5"/>
<text text-anchor="middle" x="434" y="-152.5" font-family="Helvetica,sans-Serif" font-size="10.00">IR::is_black</text>
</a>
</g>
</g>
<!-- Node27&#45;&gt;Node28 -->
<g id="edge2" class="edge"><title>Node27&#45;&gt;Node28</title>
<path fill="none" stroke="midnightblue" d="M349.838,-143.075C362.959,-144.956 377.028,-146.974 389.794,-148.804"/>
<polygon fill="midnightblue" stroke="midnightblue" points="389.313,-152.271 399.709,-150.226 390.307,-145.342 389.313,-152.271"/>
</g>
<!-- Node30 -->
<g id="node5" class="node"><title>Node30</title>
<g id="a_node5"><a xlink:href="class_r_g_b.html#a6d5013f3b077886a1a92fa2b16628d22" target="_top" xlink:title="RGB::is_black">
<polygon fill="white" stroke="black" points="394,-107.5 394,-126.5 474,-126.5 474,-107.5 394,-107.5"/>
<text text-anchor="middle" x="434" y="-114.5" font-family="Helvetica,sans-Serif" font-size="10.00">RGB::is_black</text>
</a>
</g>
</g>
<!-- Node27&#45;&gt;Node30 -->
<g id="edge4" class="edge"><title>Node27&#45;&gt;Node30</title>
<path fill="none" stroke="midnightblue" d="M349.838,-128.925C360.992,-127.326 372.831,-125.628 383.972,-124.03"/>
<polygon fill="midnightblue" stroke="midnightblue" points="384.566,-127.481 393.968,-122.597 383.572,-120.552 384.566,-127.481"/>
</g>
<!-- Node31 -->
<g id="node6" class="node"><title>Node31</title>
<g id="a_node6"><a xlink:href="class_i_r.html#ae05cf1ad5888262586007946f21ac14e" target="_top" xlink:title="IR::is_white">
<polygon fill="white" stroke="black" points="400.5,-69.5 400.5,-88.5 467.5,-88.5 467.5,-69.5 400.5,-69.5"/>
<text text-anchor="middle" x="434" y="-76.5" font-family="Helvetica,sans-Serif" font-size="10.00">IR::is_white</text>
</a>
</g>
</g>
<!-- Node27&#45;&gt;Node31 -->
<g id="edge5" class="edge"><title>Node27&#45;&gt;Node31</title>
<path fill="none" stroke="midnightblue" d="M330.324,-126.444C339.311,-123.346 349.138,-119.738 358,-116 374.482,-109.047 377.959,-105.917 394,-98 397.204,-96.4187 400.559,-94.771 403.901,-93.1359"/>
<polygon fill="midnightblue" stroke="midnightblue" points="405.689,-96.1578 413.14,-88.6263 402.618,-89.8671 405.689,-96.1578"/>
</g>
<!-- Node32 -->
<g id="node7" class="node"><title>Node32</title>
<g id="a_node7"><a xlink:href="class_r_g_b.html#aa8289d37cc58a81e02b857fb91bfca5c" target="_top" xlink:title="RGB::is_white">
<polygon fill="white" stroke="black" points="394.5,-183.5 394.5,-202.5 473.5,-202.5 473.5,-183.5 394.5,-183.5"/>
<text text-anchor="middle" x="434" y="-190.5" font-family="Helvetica,sans-Serif" font-size="10.00">RGB::is_white</text>
</a>
</g>
</g>
<!-- Node27&#45;&gt;Node32 -->
<g id="edge7" class="edge"><title>Node27&#45;&gt;Node32</title>
<path fill="none" stroke="midnightblue" d="M332.486,-145.522C340.89,-148.307 349.874,-151.542 358,-155 374.647,-162.085 377.866,-165.815 394,-174 397.186,-175.616 400.531,-177.286 403.866,-178.934"/>
<polygon fill="midnightblue" stroke="midnightblue" points="402.578,-182.201 413.098,-183.458 405.658,-175.915 402.578,-182.201"/>
</g>
<!-- Node29 -->
<g id="node4" class="node"><title>Node29</title>
<g id="a_node4"><a xlink:href="class_i_r.html#a388cfd7a959fa4a24d8e2bad1e9d95d5" target="_top" xlink:title="IR::in_range">
<polygon fill="white" stroke="black" points="510,-107.5 510,-126.5 578,-126.5 578,-107.5 510,-107.5"/>
<text text-anchor="middle" x="544" y="-114.5" font-family="Helvetica,sans-Serif" font-size="10.00">IR::in_range</text>
</a>
</g>
</g>
<!-- Node28&#45;&gt;Node29 -->
<g id="edge3" class="edge"><title>Node28&#45;&gt;Node29</title>
<path fill="none" stroke="midnightblue" d="M462.253,-145.411C475.555,-140.731 491.754,-135.031 506.142,-129.968"/>
<polygon fill="midnightblue" stroke="midnightblue" points="507.484,-133.207 515.756,-126.586 505.161,-126.603 507.484,-133.207"/>
</g>
<!-- Node31&#45;&gt;Node29 -->
<g id="edge6" class="edge"><title>Node31&#45;&gt;Node29</title>
<path fill="none" stroke="midnightblue" d="M462.253,-88.589C475.555,-93.2694 491.754,-98.9692 506.142,-104.032"/>
<polygon fill="midnightblue" stroke="midnightblue" points="505.161,-107.397 515.756,-107.414 507.484,-100.793 505.161,-107.397"/>
</g>
<!-- Node35&#45;&gt;Node27 -->
<g id="edge11" class="edge"><title>Node35&#45;&gt;Node27</title>
<path fill="none" stroke="midnightblue" d="M198.739,-99.6207C211.262,-104.628 226.912,-110.777 241,-116 247.392,-118.37 254.213,-120.815 260.842,-123.147"/>
<polygon fill="midnightblue" stroke="midnightblue" points="259.748,-126.472 270.342,-126.461 262.053,-119.863 259.748,-126.472"/>
</g>
<!-- Node35&#45;&gt;Node33 -->
<g id="edge13" class="edge"><title>Node35&#45;&gt;Node33</title>
<path fill="none" stroke="midnightblue" d="M202.26,-80.3891C214.144,-76.2283 228.246,-71.3292 241,-67 247.011,-64.9598 253.384,-62.8251 259.616,-60.754"/>
<polygon fill="midnightblue" stroke="midnightblue" points="260.825,-64.0405 269.218,-57.5744 258.624,-57.3954 260.825,-64.0405"/>
</g>
<!-- Node35&#45;&gt;Node34 -->
<g id="edge12" class="edge"><title>Node35&#45;&gt;Node34</title>
<path fill="none" stroke="midnightblue" d="M182.984,-80.3897C194.512,-67.0846 217.074,-43.1023 241,-29 244.467,-26.9564 248.183,-25.0991 251.996,-23.4181"/>
<polygon fill="midnightblue" stroke="midnightblue" points="253.593,-26.5497 261.587,-19.597 251.002,-20.0468 253.593,-26.5497"/>
</g>
<!-- Node36 -->
<g id="node11" class="node"><title>Node36</title>
<g id="a_node11"><a xlink:href="class_sensor.html#a03b8f6886c672badadfeef89d069e1ea" target="_top" xlink:title="Sensor::IR_black_RGB\l_white">
<polygon fill="white" stroke="black" points="241,-165 241,-195 358,-195 358,-165 241,-165"/>
<text text-anchor="start" x="249" y="-183" font-family="Helvetica,sans-Serif" font-size="10.00">Sensor::IR_black_RGB</text>
<text text-anchor="middle" x="299.5" y="-172" font-family="Helvetica,sans-Serif" font-size="10.00">_white</text>
</a>
</g>
</g>
<!-- Node35&#45;&gt;Node36 -->
<g id="edge14" class="edge"><title>Node35&#45;&gt;Node36</title>
<path fill="none" stroke="midnightblue" d="M182.654,-99.5014C194.126,-113.246 217.01,-138.8 241,-155 243.706,-156.828 246.568,-158.57 249.511,-160.222"/>
<polygon fill="midnightblue" stroke="midnightblue" points="248.027,-163.395 258.514,-164.904 251.256,-157.185 248.027,-163.395"/>
</g>
<!-- Node37 -->
<g id="node12" class="node"><title>Node37</title>
<g id="a_node12"><a xlink:href="class_sensor.html#aa75ec0ed5bd2782f726f7e01796b2285" target="_top" xlink:title="Sensor::RGB_black_IR\l_white">
<polygon fill="white" stroke="black" points="241,-77 241,-107 358,-107 358,-77 241,-77"/>
<text text-anchor="start" x="249" y="-95" font-family="Helvetica,sans-Serif" font-size="10.00">Sensor::RGB_black_IR</text>
<text text-anchor="middle" x="299.5" y="-84" font-family="Helvetica,sans-Serif" font-size="10.00">_white</text>
</a>
</g>
</g>
<!-- Node35&#45;&gt;Node37 -->
<g id="edge17" class="edge"><title>Node35&#45;&gt;Node37</title>
<path fill="none" stroke="midnightblue" d="M205.211,-90.4893C212.994,-90.6153 221.69,-90.7561 230.559,-90.8997"/>
<polygon fill="midnightblue" stroke="midnightblue" points="230.549,-94.3999 240.605,-91.0624 230.663,-87.4009 230.549,-94.3999"/>
</g>
<!-- Node36&#45;&gt;Node28 -->
<g id="edge15" class="edge"><title>Node36&#45;&gt;Node28</title>
<path fill="none" stroke="midnightblue" d="M358.231,-169.107C368.79,-167.115 379.642,-165.068 389.691,-163.171"/>
<polygon fill="midnightblue" stroke="midnightblue" points="390.649,-166.553 399.826,-161.259 389.351,-159.674 390.649,-166.553"/>
</g>
<!-- Node36&#45;&gt;Node32 -->
<g id="edge16" class="edge"><title>Node36&#45;&gt;Node32</title>
<path fill="none" stroke="midnightblue" d="M358.231,-185.664C366.858,-186.511 375.681,-187.376 384.101,-188.202"/>
<polygon fill="midnightblue" stroke="midnightblue" points="383.839,-191.693 394.133,-189.187 384.522,-184.727 383.839,-191.693"/>
</g>
<!-- Node37&#45;&gt;Node30 -->
<g id="edge19" class="edge"><title>Node37&#45;&gt;Node30</title>
<path fill="none" stroke="midnightblue" d="M358.231,-102.893C366.759,-104.502 375.478,-106.147 383.811,-107.719"/>
<polygon fill="midnightblue" stroke="midnightblue" points="383.269,-111.178 393.744,-109.593 384.567,-104.3 383.269,-111.178"/>
</g>
<!-- Node37&#45;&gt;Node31 -->
<g id="edge18" class="edge"><title>Node37&#45;&gt;Node31</title>
<path fill="none" stroke="midnightblue" d="M358.231,-86.3358C368.893,-85.2897 379.855,-84.2142 389.986,-83.2202"/>
<polygon fill="midnightblue" stroke="midnightblue" points="390.586,-86.6782 400.197,-82.2184 389.903,-79.7117 390.586,-86.6782"/>
</g>
</g>
</svg>
        <g id="navigator" transform="translate(0 0)" fill="#404254">
                <rect fill="#f2f5e9" fill-opacity="0.5" stroke="#606060" stroke-width=".5" x="0" y="0" width="60" height="60"/>
                <use id="zoomplus" xlink:href="#zoomPlus" x="17" y="9" onmousedown="handleZoom(evt,'in')"/>
                <use id="zoomminus" xlink:href="#zoomMin" x="42" y="9" onmousedown="handleZoom(evt,'out')"/>
                <use id="reset" xlink:href="#resetDef" x="30" y="36" onmousedown="handleReset()"/>
                <g id="arrowUp" xlink:href="#dirArrow" transform="translate(30 24)" onmousedown="handlePan(0,-1)">
                  <use xlink:href="#rim" fill="#404040">
                        <set attributeName="fill" to="#808080" begin="arrowUp.mouseover" end="arrowUp.mouseout"/>
                  </use>
                  <path fill="none" stroke="white" stroke-width="1.5" d="M0,-3.0v7 M-2.5,-0.5L0,-3.0L2.5,-0.5"/>
                </g>
                <g id="arrowRight" xlink:href="#dirArrow" transform="rotate(90) translate(36 -43)" onmousedown="handlePan(1,0)">
                  <use xlink:href="#rim" fill="#404040">
                        <set attributeName="fill" to="#808080" begin="arrowRight.mouseover" end="arrowRight.mouseout"/>
                  </use>
                  <path fill="none" stroke="white" stroke-width="1.5" d="M0,-3.0v7 M-2.5,-0.5L0,-3.0L2.5,-0.5"/>
                </g>
                <g id="arrowDown" xlink:href="#dirArrow" transform="rotate(180) translate(-30 -48)" onmousedown="handlePan(0,1)">
                  <use xlink:href="#rim" fill="#404040">
                        <set attributeName="fill" to="#808080" begin="arrowDown.mouseover" end="arrowDown.mouseout"/>
                  </use>
                  <path fill="none" stroke="white" stroke-width="1.5" d="M0,-3.0v7 M-2.5,-0.5L0,-3.0L2.5,-0.5"/>
                </g>
                <g id="arrowLeft" xlink:href="#dirArrow" transform="rotate(270) translate(-36 17)" onmousedown="handlePan(-1,0)">
                  <use xlink:href="#rim" fill="#404040">
                        <set attributeName="fill" to="#808080" begin="arrowLeft.mouseover" end="arrowLeft.mouseout"/>
                  </use>
                  <path fill="none" stroke="white" stroke-width="1.5" d="M0,-3.0v7 M-2.5,-0.5L0,-3.0L2.5,-0.5"/>
                </g>
        </g>
        <svg viewBox="0 0 15 15" width="100%" height="30px" preserveAspectRatio="xMaxYMin meet">
         <g id="arrow_out" transform="scale(0.3 0.3)">
          <a xlink:href="class_state_ae03eae00675106f8b6b9481c4b0e50dc_cgraph_org.svg" target="_base">
           <rect id="button" ry="5" rx="5" y="6" x="6" height="38" width="38"
                fill="#f2f5e9" fill-opacity="0.5" stroke="#606060" stroke-width="1.0"/>
           <path id="arrow"
             d="M 11.500037,31.436501 C 11.940474,20.09759 22.043105,11.32322 32.158766,21.979434 L 37.068811,17.246167 C 37.068811,17.246167 37.088388,32 37.088388,32 L 22.160133,31.978069 C 22.160133,31.978069 26.997745,27.140456 26.997745,27.140456 C 18.528582,18.264221 13.291696,25.230495 11.500037,31.436501 z"
             style="fill:#404040;"/>
          </a>
         </g>
        </svg>
</svg>
