<?xml version="1.0" encoding="UTF-8" standalone="no"?>
<!DOCTYPE svg PUBLIC "-//W3C//DTD SVG 1.1//EN"
 "http://www.w3.org/Graphics/SVG/1.1/DTD/svg11.dtd">
<!-- Generated by graphviz version 2.38.0 (20140413.2041)
 -->
<!-- Title: Log::Log Pages: 1 -->
<svg width="323pt" height="28pt"
 viewBox="0.00 0.00 323.00 28.00" xmlns="http://www.w3.org/2000/svg" xmlns:xlink="http://www.w3.org/1999/xlink">
<g id="graph0" class="graph" transform="scale(1 1) rotate(0) translate(4 24)">
<title>Log::Log</title>
<polygon fill="white" stroke="none" points="-4,4 -4,-24 319,-24 319,4 -4,4"/>
<!-- Node0 -->
<g id="node1" class="node"><title>Node0</title>
<polygon fill="#bfbfbf" stroke="black" points="0,-0.5 0,-19.5 54,-19.5 54,-0.5 0,-0.5"/>
<text text-anchor="middle" x="27" y="-7.5" font-family="Helvetica,sans-Serif" font-size="10.00">Log::Log</text>
</g>
<!-- Node1 -->
<g id="node2" class="node"><title>Node1</title>
<g id="a_node2"><a xlink:href="class_log.html#aeb1d174708785f8f763895ad8e41d580" target="_top" xlink:title="Log::write_line">
<polygon fill="white" stroke="black" points="90,-0.5 90,-19.5 169,-19.5 169,-0.5 90,-0.5"/>
<text text-anchor="middle" x="129.5" y="-7.5" font-family="Helvetica,sans-Serif" font-size="10.00">Log::write_line</text>
</a>
</g>
</g>
<!-- Node0&#45;&gt;Node1 -->
<g id="edge1" class="edge"><title>Node0&#45;&gt;Node1</title>
<path fill="none" stroke="midnightblue" d="M54.1428,-10C62.0016,-10 70.8914,-10 79.7206,-10"/>
<polygon fill="midnightblue" stroke="midnightblue" points="79.9921,-13.5001 89.9921,-10 79.992,-6.5001 79.9921,-13.5001"/>
</g>
<!-- Node2 -->
<g id="node3" class="node"><title>Node2</title>
<g id="a_node3"><a xlink:href="class_log.html#af056ba4ff9151d69bf1b302a95253c52" target="_top" xlink:title="Log::currentDateTime">
<polygon fill="white" stroke="black" points="205,-0.5 205,-19.5 315,-19.5 315,-0.5 205,-0.5"/>
<text text-anchor="middle" x="260" y="-7.5" font-family="Helvetica,sans-Serif" font-size="10.00">Log::currentDateTime</text>
</a>
</g>
</g>
<!-- Node1&#45;&gt;Node2 -->
<g id="edge2" class="edge"><title>Node1&#45;&gt;Node2</title>
<path fill="none" stroke="midnightblue" d="M169.054,-10C177.131,-10 185.856,-10 194.585,-10"/>
<polygon fill="midnightblue" stroke="midnightblue" points="194.795,-13.5001 204.795,-10 194.795,-6.5001 194.795,-13.5001"/>
</g>
</g>
</svg>
