<?xml version="1.0" encoding="UTF-8" standalone="no"?>
<!DOCTYPE svg PUBLIC "-//W3C//DTD SVG 1.1//EN"
 "http://www.w3.org/Graphics/SVG/1.1/DTD/svg11.dtd">
<!-- Generated by graphviz version 2.38.0 (20140413.2041)
 -->
<!-- Title: Sensor::both_black Pages: 1 -->
<svg width="329pt" height="142pt"
 viewBox="0.00 0.00 329.00 142.00" xmlns="http://www.w3.org/2000/svg" xmlns:xlink="http://www.w3.org/1999/xlink">
<g id="graph0" class="graph" transform="scale(1 1) rotate(0) translate(4 138)">
<title>Sensor::both_black</title>
<polygon fill="white" stroke="none" points="-4,4 -4,-138 325,-138 325,4 -4,4"/>
<!-- Node6 -->
<g id="node1" class="node"><title>Node6</title>
<polygon fill="#bfbfbf" stroke="black" points="0,-57.5 0,-76.5 101,-76.5 101,-57.5 0,-57.5"/>
<text text-anchor="middle" x="50.5" y="-64.5" font-family="Helvetica,sans-Serif" font-size="10.00">Sensor::both_black</text>
</g>
<!-- Node7 -->
<g id="node2" class="node"><title>Node7</title>
<g id="a_node2"><a xlink:href="class_i_r.html#ae05cf1ad5888262586007946f21ac14e" target="_top" xlink:title="IR::is_white">
<polygon fill="white" stroke="black" points="143.5,-114.5 143.5,-133.5 210.5,-133.5 210.5,-114.5 143.5,-114.5"/>
<text text-anchor="middle" x="177" y="-121.5" font-family="Helvetica,sans-Serif" font-size="10.00">IR::is_white</text>
</a>
</g>
</g>
<!-- Node6&#45;&gt;Node7 -->
<g id="edge1" class="edge"><title>Node6&#45;&gt;Node7</title>
<path fill="none" stroke="midnightblue" d="M72.3385,-76.5405C92.4477,-85.7472 123.109,-99.7847 145.874,-110.207"/>
<polygon fill="midnightblue" stroke="midnightblue" points="144.544,-113.448 155.094,-114.428 147.458,-107.083 144.544,-113.448"/>
</g>
<!-- Node9 -->
<g id="node4" class="node"><title>Node9</title>
<g id="a_node4"><a xlink:href="class_r_g_b.html#aa8289d37cc58a81e02b857fb91bfca5c" target="_top" xlink:title="RGB::is_white">
<polygon fill="white" stroke="black" points="137.5,-76.5 137.5,-95.5 216.5,-95.5 216.5,-76.5 137.5,-76.5"/>
<text text-anchor="middle" x="177" y="-83.5" font-family="Helvetica,sans-Serif" font-size="10.00">RGB::is_white</text>
</a>
</g>
</g>
<!-- Node6&#45;&gt;Node9 -->
<g id="edge3" class="edge"><title>Node6&#45;&gt;Node9</title>
<path fill="none" stroke="midnightblue" d="M101.063,-74.5639C109.739,-75.8879 118.758,-77.2642 127.407,-78.5842"/>
<polygon fill="midnightblue" stroke="midnightblue" points="126.933,-82.0524 137.347,-80.1012 127.99,-75.1325 126.933,-82.0524"/>
</g>
<!-- Node10 -->
<g id="node5" class="node"><title>Node10</title>
<g id="a_node5"><a xlink:href="class_i_r.html#a2f62691ee90ca2a9035c088029dab4bb" target="_top" xlink:title="IR::is_black">
<polygon fill="white" stroke="black" points="143,-38.5 143,-57.5 211,-57.5 211,-38.5 143,-38.5"/>
<text text-anchor="middle" x="177" y="-45.5" font-family="Helvetica,sans-Serif" font-size="10.00">IR::is_black</text>
</a>
</g>
</g>
<!-- Node6&#45;&gt;Node10 -->
<g id="edge4" class="edge"><title>Node6&#45;&gt;Node10</title>
<path fill="none" stroke="midnightblue" d="M101.063,-59.4361C111.54,-57.8372 122.518,-56.162 132.74,-54.602"/>
<polygon fill="midnightblue" stroke="midnightblue" points="133.306,-58.0562 142.663,-53.0876 132.25,-51.1363 133.306,-58.0562"/>
</g>
<!-- Node11 -->
<g id="node6" class="node"><title>Node11</title>
<g id="a_node6"><a xlink:href="class_r_g_b.html#a6d5013f3b077886a1a92fa2b16628d22" target="_top" xlink:title="RGB::is_black">
<polygon fill="white" stroke="black" points="137,-0.5 137,-19.5 217,-19.5 217,-0.5 137,-0.5"/>
<text text-anchor="middle" x="177" y="-7.5" font-family="Helvetica,sans-Serif" font-size="10.00">RGB::is_black</text>
</a>
</g>
</g>
<!-- Node6&#45;&gt;Node11 -->
<g id="edge6" class="edge"><title>Node6&#45;&gt;Node11</title>
<path fill="none" stroke="midnightblue" d="M72.3385,-57.4595C92.4477,-48.2528 123.109,-34.2153 145.874,-23.7926"/>
<polygon fill="midnightblue" stroke="midnightblue" points="147.458,-26.9168 155.094,-19.5716 144.544,-20.5521 147.458,-26.9168"/>
</g>
<!-- Node8 -->
<g id="node3" class="node"><title>Node8</title>
<g id="a_node3"><a xlink:href="class_i_r.html#a388cfd7a959fa4a24d8e2bad1e9d95d5" target="_top" xlink:title="IR::in_range">
<polygon fill="white" stroke="black" points="253,-76.5 253,-95.5 321,-95.5 321,-76.5 253,-76.5"/>
<text text-anchor="middle" x="287" y="-83.5" font-family="Helvetica,sans-Serif" font-size="10.00">IR::in_range</text>
</a>
</g>
</g>
<!-- Node7&#45;&gt;Node8 -->
<g id="edge2" class="edge"><title>Node7&#45;&gt;Node8</title>
<path fill="none" stroke="midnightblue" d="M205.253,-114.411C218.555,-109.731 234.754,-104.031 249.142,-98.9685"/>
<polygon fill="midnightblue" stroke="midnightblue" points="250.484,-102.207 258.756,-95.5859 248.161,-95.6035 250.484,-102.207"/>
</g>
<!-- Node10&#45;&gt;Node8 -->
<g id="edge5" class="edge"><title>Node10&#45;&gt;Node8</title>
<path fill="none" stroke="midnightblue" d="M205.253,-57.589C218.555,-62.2694 234.754,-67.9692 249.142,-73.0315"/>
<polygon fill="midnightblue" stroke="midnightblue" points="248.161,-76.3965 258.756,-76.4141 250.484,-69.7933 248.161,-76.3965"/>
</g>
</g>
</svg>
