<?xml version="1.0" encoding="UTF-8" standalone="no"?>
<!DOCTYPE svg PUBLIC "-//W3C//DTD SVG 1.1//EN"
 "http://www.w3.org/Graphics/SVG/1.1/DTD/svg11.dtd">
<!-- Generated by graphviz version 2.38.0 (20140413.2041)
 -->
<!-- Title: IR::is_white Pages: 1 -->
<!--zoomable 116 -->
<svg id="main" version="1.1" xmlns="http://www.w3.org/2000/svg" xmlns:xlink="http://www.w3.org/1999/xlink" xml:space="preserve" onload="init(evt)">
<style type="text/css"><![CDATA[
.edge:hover path { stroke: red; }
.edge:hover polygon { stroke: red; fill: red; }
]]></style>
<script type="text/javascript"><![CDATA[
var edges = document.getElementsByTagName('g');
if (edges && edges.length) {
  for (var i=0;i<edges.length;i++) {
    if (edges[i].id.substr(0,4)=='edge') {
      edges[i].setAttribute('class','edge');
    }
  }
}
]]></script>
        <defs>
                <circle id="rim" cx="0" cy="0" r="7"/>
                <circle id="rim2" cx="0" cy="0" r="3.5"/>
                <g id="zoomPlus">
                        <use xlink:href="#rim" fill="#404040">
                                <set attributeName="fill" to="#808080" begin="zoomplus.mouseover" end="zoomplus.mouseout"/>
                        </use>
                        <path d="M-4,0h8M0,-4v8" fill="none" stroke="white" stroke-width="1.5" pointer-events="none"/>
                </g>
                <g id="zoomMin">
                        <use xlink:href="#rim" fill="#404040">
                                <set attributeName="fill" to="#808080" begin="zoomminus.mouseover" end="zoomminus.mouseout"/>
                        </use>
                        <path d="M-4,0h8" fill="none" stroke="white" stroke-width="1.5" pointer-events="none"/>
                </g>
                <g id="dirArrow">
                        <path fill="none" stroke="white" stroke-width="1.5" d="M0,-3.0v7 M-2.5,-0.5L0,-3.0L2.5,-0.5"/>
                </g>
               <g id="resetDef">
                       <use xlink:href="#rim2" fill="#404040">
                               <set attributeName="fill" to="#808080" begin="reset.mouseover" end="reset.mouseout"/>
                       </use>
               </g>
        </defs>

<script type="text/javascript">
var viewWidth = 572;
var viewHeight = 116;
var sectionId = 'dynsection-6';
</script>
<script xlink:href="svgpan.js"/>
<svg id="graph" class="graph">
<g id="viewport">
<title>IR::is_white</title>
<polygon fill="white" stroke="none" points="-4,4 -4,-111.5 568,-111.5 568,4 -4,4"/>
<!-- Node31 -->
<g id="node1" class="node"><title>Node31</title>
<polygon fill="#bfbfbf" stroke="black" points="0,-50 0,-69 67,-69 67,-50 0,-50"/>
<text text-anchor="middle" x="33.5" y="-57" font-family="Helvetica,sans-Serif" font-size="10.00">IR::is_white</text>
</g>
<!-- Node32 -->
<g id="node2" class="node"><title>Node32</title>
<g id="a_node2"><a xlink:href="class_sensor.html#a32ebdbb3ba6fbe19739a10b17dc11cba" target="_top" xlink:title="Sensor::both_black">
<polygon fill="white" stroke="black" points="111,-88 111,-107 212,-107 212,-88 111,-88"/>
<text text-anchor="middle" x="161.5" y="-95" font-family="Helvetica,sans-Serif" font-size="10.00">Sensor::both_black</text>
</a>
</g>
</g>
<!-- Node31&#45;&gt;Node32 -->
<g id="edge1" class="edge"><title>Node31&#45;&gt;Node32</title>
<path fill="none" stroke="midnightblue" d="M76.0644,-72.0353C93.2052,-77.2048 112.75,-83.0991 128.715,-87.9141"/>
<polygon fill="midnightblue" stroke="midnightblue" points="76.8798,-68.6256 66.2951,-69.089 74.8586,-75.3274 76.8798,-68.6256"/>
</g>
<!-- Node33 -->
<g id="node3" class="node"><title>Node33</title>
<g id="a_node3"><a xlink:href="class_sensor.html#add2279da6d407ed7678064ab1fe7d02d" target="_top" xlink:title="Sensor::both_white">
<polygon fill="white" stroke="black" points="111.5,-50 111.5,-69 211.5,-69 211.5,-50 111.5,-50"/>
<text text-anchor="middle" x="161.5" y="-57" font-family="Helvetica,sans-Serif" font-size="10.00">Sensor::both_white</text>
</a>
</g>
</g>
<!-- Node31&#45;&gt;Node33 -->
<g id="edge2" class="edge"><title>Node31&#45;&gt;Node33</title>
<path fill="none" stroke="midnightblue" d="M77.3968,-59.5C88.2902,-59.5 100.079,-59.5 111.261,-59.5"/>
<polygon fill="midnightblue" stroke="midnightblue" points="77.2761,-56.0001 67.2761,-59.5 77.2761,-63.0001 77.2761,-56.0001"/>
</g>
<!-- Node37 -->
<g id="node7" class="node"><title>Node37</title>
<g id="a_node7"><a xlink:href="class_sensor.html#aa75ec0ed5bd2782f726f7e01796b2285" target="_top" xlink:title="Sensor::RGB_black_IR\l_white">
<polygon fill="white" stroke="black" points="103,-0.5 103,-30.5 220,-30.5 220,-0.5 103,-0.5"/>
<text text-anchor="start" x="111" y="-18.5" font-family="Helvetica,sans-Serif" font-size="10.00">Sensor::RGB_black_IR</text>
<text text-anchor="middle" x="161.5" y="-7.5" font-family="Helvetica,sans-Serif" font-size="10.00">_white</text>
</a>
</g>
</g>
<!-- Node31&#45;&gt;Node37 -->
<g id="edge8" class="edge"><title>Node31&#45;&gt;Node37</title>
<path fill="none" stroke="midnightblue" d="M71.4077,-46.6116C85.8059,-41.5837 102.413,-35.7845 117.358,-30.5654"/>
<polygon fill="midnightblue" stroke="midnightblue" points="70.1271,-43.3514 61.8401,-49.9527 72.435,-49.9601 70.1271,-43.3514"/>
</g>
<!-- Node34 -->
<g id="node4" class="node"><title>Node34</title>
<g id="a_node4"><a xlink:href="class_state.html#aed3bf8334ee32e0cccba11fc2dc42b68" target="_top" xlink:title="State::clear">
<polygon fill="white" stroke="black" points="497,-66 497,-85 564,-85 564,-66 497,-66"/>
<text text-anchor="middle" x="530.5" y="-73" font-family="Helvetica,sans-Serif" font-size="10.00">State::clear</text>
</a>
</g>
</g>
<!-- Node33&#45;&gt;Node34 -->
<g id="edge3" class="edge"><title>Node33&#45;&gt;Node34</title>
<path fill="none" stroke="midnightblue" d="M222.06,-68.757C233.31,-70.2282 244.997,-71.5694 256,-72.5 342.589,-79.8236 445.142,-78.2097 496.588,-76.6938"/>
<polygon fill="midnightblue" stroke="midnightblue" points="222.263,-65.2526 211.884,-67.3773 221.323,-72.1891 222.263,-65.2526"/>
</g>
<!-- Node35 -->
<g id="node5" class="node"><title>Node35</title>
<g id="a_node5"><a xlink:href="class_state.html#ae03eae00675106f8b6b9481c4b0e50dc" target="_top" xlink:title="State::object_or_turn">
<polygon fill="white" stroke="black" points="354,-47 354,-66 461,-66 461,-47 354,-47"/>
<text text-anchor="middle" x="407.5" y="-54" font-family="Helvetica,sans-Serif" font-size="10.00">State::object_or_turn</text>
</a>
</g>
</g>
<!-- Node33&#45;&gt;Node35 -->
<g id="edge4" class="edge"><title>Node33&#45;&gt;Node35</title>
<path fill="none" stroke="midnightblue" d="M221.799,-58.7709C262.073,-58.2757 314.866,-57.6266 353.692,-57.1493"/>
<polygon fill="midnightblue" stroke="midnightblue" points="221.54,-55.2737 211.584,-58.8965 221.626,-62.2732 221.54,-55.2737"/>
</g>
<!-- Node36 -->
<g id="node6" class="node"><title>Node36</title>
<g id="a_node6"><a xlink:href="class_state.html#ae5ed95e28512e11f7cc41c603ca58ad5" target="_top" xlink:title="State::turn">
<polygon fill="white" stroke="black" points="256,-9 256,-28 318,-28 318,-9 256,-9"/>
<text text-anchor="middle" x="287" y="-16" font-family="Helvetica,sans-Serif" font-size="10.00">State::turn</text>
</a>
</g>
</g>
<!-- Node33&#45;&gt;Node36 -->
<g id="edge6" class="edge"><title>Node33&#45;&gt;Node36</title>
<path fill="none" stroke="midnightblue" d="M200.853,-46.7674C219.004,-40.7416 240.32,-33.665 257.084,-28.0997"/>
<polygon fill="midnightblue" stroke="midnightblue" points="199.532,-43.5182 191.144,-49.9907 201.737,-50.1616 199.532,-43.5182"/>
</g>
<!-- Node35&#45;&gt;Node34 -->
<g id="edge5" class="edge"><title>Node35&#45;&gt;Node34</title>
<path fill="none" stroke="midnightblue" d="M471.201,-66.3455C480.052,-67.7355 488.841,-69.1156 496.808,-70.3665"/>
<polygon fill="midnightblue" stroke="midnightblue" points="471.642,-62.8721 461.22,-64.7784 470.556,-69.7874 471.642,-62.8721"/>
</g>
<!-- Node36&#45;&gt;Node35 -->
<g id="edge7" class="edge"><title>Node36&#45;&gt;Node35</title>
<path fill="none" stroke="midnightblue" d="M327.543,-31.1804C343.554,-36.3148 361.732,-42.1441 376.607,-46.9141"/>
<polygon fill="midnightblue" stroke="midnightblue" points="328.494,-27.8098 317.903,-28.089 326.356,-34.4755 328.494,-27.8098"/>
</g>
<!-- Node37&#45;&gt;Node36 -->
<g id="edge9" class="edge"><title>Node37&#45;&gt;Node36</title>
<path fill="none" stroke="midnightblue" d="M230.373,-17.1487C239.29,-17.3654 248.036,-17.5778 255.855,-17.7677"/>
<polygon fill="midnightblue" stroke="midnightblue" points="230.355,-13.6474 220.272,-16.9034 230.184,-20.6453 230.355,-13.6474"/>
</g>
</g>
</svg>
        <g id="navigator" transform="translate(0 0)" fill="#404254">
                <rect fill="#f2f5e9" fill-opacity="0.5" stroke="#606060" stroke-width=".5" x="0" y="0" width="60" height="60"/>
                <use id="zoomplus" xlink:href="#zoomPlus" x="17" y="9" onmousedown="handleZoom(evt,'in')"/>
                <use id="zoomminus" xlink:href="#zoomMin" x="42" y="9" onmousedown="handleZoom(evt,'out')"/>
                <use id="reset" xlink:href="#resetDef" x="30" y="36" onmousedown="handleReset()"/>
                <g id="arrowUp" xlink:href="#dirArrow" transform="translate(30 24)" onmousedown="handlePan(0,-1)">
                  <use xlink:href="#rim" fill="#404040">
                        <set attributeName="fill" to="#808080" begin="arrowUp.mouseover" end="arrowUp.mouseout"/>
                  </use>
                  <path fill="none" stroke="white" stroke-width="1.5" d="M0,-3.0v7 M-2.5,-0.5L0,-3.0L2.5,-0.5"/>
                </g>
                <g id="arrowRight" xlink:href="#dirArrow" transform="rotate(90) translate(36 -43)" onmousedown="handlePan(1,0)">
                  <use xlink:href="#rim" fill="#404040">
                        <set attributeName="fill" to="#808080" begin="arrowRight.mouseover" end="arrowRight.mouseout"/>
                  </use>
                  <path fill="none" stroke="white" stroke-width="1.5" d="M0,-3.0v7 M-2.5,-0.5L0,-3.0L2.5,-0.5"/>
                </g>
                <g id="arrowDown" xlink:href="#dirArrow" transform="rotate(180) translate(-30 -48)" onmousedown="handlePan(0,1)">
                  <use xlink:href="#rim" fill="#404040">
                        <set attributeName="fill" to="#808080" begin="arrowDown.mouseover" end="arrowDown.mouseout"/>
                  </use>
                  <path fill="none" stroke="white" stroke-width="1.5" d="M0,-3.0v7 M-2.5,-0.5L0,-3.0L2.5,-0.5"/>
                </g>
                <g id="arrowLeft" xlink:href="#dirArrow" transform="rotate(270) translate(-36 17)" onmousedown="handlePan(-1,0)">
                  <use xlink:href="#rim" fill="#404040">
                        <set attributeName="fill" to="#808080" begin="arrowLeft.mouseover" end="arrowLeft.mouseout"/>
                  </use>
                  <path fill="none" stroke="white" stroke-width="1.5" d="M0,-3.0v7 M-2.5,-0.5L0,-3.0L2.5,-0.5"/>
                </g>
        </g>
        <svg viewBox="0 0 15 15" width="100%" height="30px" preserveAspectRatio="xMaxYMin meet">
         <g id="arrow_out" transform="scale(0.3 0.3)">
          <a xlink:href="class_i_r_ae05cf1ad5888262586007946f21ac14e_icgraph_org.svg" target="_base">
           <rect id="button" ry="5" rx="5" y="6" x="6" height="38" width="38"
                fill="#f2f5e9" fill-opacity="0.5" stroke="#606060" stroke-width="1.0"/>
           <path id="arrow"
             d="M 11.500037,31.436501 C 11.940474,20.09759 22.043105,11.32322 32.158766,21.979434 L 37.068811,17.246167 C 37.068811,17.246167 37.088388,32 37.088388,32 L 22.160133,31.978069 C 22.160133,31.978069 26.997745,27.140456 26.997745,27.140456 C 18.528582,18.264221 13.291696,25.230495 11.500037,31.436501 z"
             style="fill:#404040;"/>
          </a>
         </g>
        </svg>
</svg>
