<?xml version="1.0" encoding="UTF-8" standalone="no"?>
<!DOCTYPE svg PUBLIC "-//W3C//DTD SVG 1.1//EN"
 "http://www.w3.org/Graphics/SVG/1.1/DTD/svg11.dtd">
<!-- Generated by graphviz version 2.38.0 (20140413.2041)
 -->
<!-- Title: init.h Pages: 1 -->
<svg width="303pt" height="196pt"
 viewBox="0.00 0.00 303.00 196.00" xmlns="http://www.w3.org/2000/svg" xmlns:xlink="http://www.w3.org/1999/xlink">
<g id="graph0" class="graph" transform="scale(1 1) rotate(0) translate(4 192)">
<title>init.h</title>
<polygon fill="white" stroke="none" points="-4,4 -4,-192 299,-192 299,4 -4,4"/>
<!-- Node0 -->
<g id="node1" class="node"><title>Node0</title>
<polygon fill="#bfbfbf" stroke="black" points="156,-168.5 156,-187.5 194,-187.5 194,-168.5 156,-168.5"/>
<text text-anchor="middle" x="175" y="-175.5" font-family="Helvetica,sans-Serif" font-size="10.00">init.h</text>
</g>
<!-- Node1 -->
<g id="node2" class="node"><title>Node1</title>
<g id="a_node2"><a xlink:href="sensor_8h.html" target="_top" xlink:title="sensor.h">
<polygon fill="white" stroke="black" points="80,-112.5 80,-131.5 134,-131.5 134,-112.5 80,-112.5"/>
<text text-anchor="middle" x="107" y="-119.5" font-family="Helvetica,sans-Serif" font-size="10.00">sensor.h</text>
</a>
</g>
</g>
<!-- Node0&#45;&gt;Node1 -->
<g id="edge1" class="edge"><title>Node0&#45;&gt;Node1</title>
<path fill="none" stroke="midnightblue" d="M164.075,-168.324C153.825,-160.185 138.279,-147.839 125.999,-138.087"/>
<polygon fill="midnightblue" stroke="midnightblue" points="128.132,-135.312 118.124,-131.834 123.779,-140.794 128.132,-135.312"/>
</g>
<!-- Node6 -->
<g id="node7" class="node"><title>Node6</title>
<g id="a_node7"><a xlink:href="motion_8h.html" target="_top" xlink:title="motion.h">
<polygon fill="white" stroke="black" points="185,-112.5 185,-131.5 239,-131.5 239,-112.5 185,-112.5"/>
<text text-anchor="middle" x="212" y="-119.5" font-family="Helvetica,sans-Serif" font-size="10.00">motion.h</text>
</a>
</g>
</g>
<!-- Node0&#45;&gt;Node6 -->
<g id="edge8" class="edge"><title>Node0&#45;&gt;Node6</title>
<path fill="none" stroke="midnightblue" d="M181.11,-168.083C186.282,-160.534 193.846,-149.495 200.194,-140.23"/>
<polygon fill="midnightblue" stroke="midnightblue" points="203.239,-141.979 206.004,-131.751 197.464,-138.022 203.239,-141.979"/>
</g>
<!-- Node2 -->
<g id="node3" class="node"><title>Node2</title>
<g id="a_node3"><a xlink:href="_i_r_8h.html" target="_top" xlink:title="IR.h">
<polygon fill="white" stroke="black" points="0,-56.5 0,-75.5 34,-75.5 34,-56.5 0,-56.5"/>
<text text-anchor="middle" x="17" y="-63.5" font-family="Helvetica,sans-Serif" font-size="10.00">IR.h</text>
</a>
</g>
</g>
<!-- Node1&#45;&gt;Node2 -->
<g id="edge2" class="edge"><title>Node1&#45;&gt;Node2</title>
<path fill="none" stroke="midnightblue" d="M92.5399,-112.324C78.5004,-103.9 56.9515,-90.9709 40.4569,-81.0741"/>
<polygon fill="midnightblue" stroke="midnightblue" points="41.7999,-77.7983 31.4242,-75.6545 38.1984,-83.8007 41.7999,-77.7983"/>
</g>
<!-- Node4 -->
<g id="node5" class="node"><title>Node4</title>
<g id="a_node5"><a xlink:href="_r_g_b_8h.html" target="_top" xlink:title="RGB.h">
<polygon fill="white" stroke="black" points="52,-56.5 52,-75.5 98,-75.5 98,-56.5 52,-56.5"/>
<text text-anchor="middle" x="75" y="-63.5" font-family="Helvetica,sans-Serif" font-size="10.00">RGB.h</text>
</a>
</g>
</g>
<!-- Node1&#45;&gt;Node4 -->
<g id="edge4" class="edge"><title>Node1&#45;&gt;Node4</title>
<path fill="none" stroke="midnightblue" d="M101.716,-112.083C97.289,-104.613 90.8367,-93.7244 85.3821,-84.5199"/>
<polygon fill="midnightblue" stroke="midnightblue" points="88.2949,-82.5697 80.1858,-75.7511 82.2729,-86.1383 88.2949,-82.5697"/>
</g>
<!-- Node5 -->
<g id="node6" class="node"><title>Node5</title>
<g id="a_node6"><a xlink:href="ultrasonic_8h.html" target="_top" xlink:title="ultrasonic.h">
<polygon fill="white" stroke="black" points="116.5,-56.5 116.5,-75.5 183.5,-75.5 183.5,-56.5 116.5,-56.5"/>
<text text-anchor="middle" x="150" y="-63.5" font-family="Helvetica,sans-Serif" font-size="10.00">ultrasonic.h</text>
</a>
</g>
</g>
<!-- Node1&#45;&gt;Node5 -->
<g id="edge6" class="edge"><title>Node1&#45;&gt;Node5</title>
<path fill="none" stroke="midnightblue" d="M114.101,-112.083C120.237,-104.377 129.27,-93.0333 136.739,-83.6531"/>
<polygon fill="midnightblue" stroke="midnightblue" points="139.54,-85.7542 143.032,-75.7511 134.064,-81.3936 139.54,-85.7542"/>
</g>
<!-- Node3 -->
<g id="node4" class="node"><title>Node3</title>
<polygon fill="white" stroke="#bfbfbf" points="91,-0.5 91,-19.5 133,-19.5 133,-0.5 91,-0.5"/>
<text text-anchor="middle" x="112" y="-7.5" font-family="Helvetica,sans-Serif" font-size="10.00">vector</text>
</g>
<!-- Node2&#45;&gt;Node3 -->
<g id="edge3" class="edge"><title>Node2&#45;&gt;Node3</title>
<path fill="none" stroke="midnightblue" d="M32.2634,-56.324C47.2214,-47.8215 70.2548,-34.7288 87.7267,-24.7975"/>
<polygon fill="midnightblue" stroke="midnightblue" points="89.8104,-27.639 96.7745,-19.6545 86.3512,-21.5534 89.8104,-27.639"/>
</g>
<!-- Node4&#45;&gt;Node3 -->
<g id="edge5" class="edge"><title>Node4&#45;&gt;Node3</title>
<path fill="none" stroke="midnightblue" d="M81.1098,-56.083C86.2822,-48.5341 93.8461,-37.4948 100.194,-28.2298"/>
<polygon fill="midnightblue" stroke="midnightblue" points="103.239,-29.9787 106.004,-19.7511 97.4643,-26.0221 103.239,-29.9787"/>
</g>
<!-- Node5&#45;&gt;Node3 -->
<g id="edge7" class="edge"><title>Node5&#45;&gt;Node3</title>
<path fill="none" stroke="midnightblue" d="M143.725,-56.083C138.358,-48.4554 130.482,-37.2645 123.921,-27.9408"/>
<polygon fill="midnightblue" stroke="midnightblue" points="126.775,-25.9149 118.158,-19.7511 121.051,-29.9434 126.775,-25.9149"/>
</g>
<!-- Node6&#45;&gt;Node3 -->
<g id="edge9" class="edge"><title>Node6&#45;&gt;Node3</title>
<path fill="none" stroke="midnightblue" d="M211.379,-112.481C210.001,-99.093 205.634,-72.9135 192,-56 179.293,-40.2361 159.491,-29.0348 142.769,-21.7504"/>
<polygon fill="midnightblue" stroke="midnightblue" points="143.937,-18.4468 133.355,-17.9092 141.292,-24.928 143.937,-18.4468"/>
</g>
<!-- Node7 -->
<g id="node8" class="node"><title>Node7</title>
<g id="a_node8"><a xlink:href="servo_8h.html" target="_top" xlink:title="servo.h">
<polygon fill="white" stroke="black" points="240.5,-56.5 240.5,-75.5 287.5,-75.5 287.5,-56.5 240.5,-56.5"/>
<text text-anchor="middle" x="264" y="-63.5" font-family="Helvetica,sans-Serif" font-size="10.00">servo.h</text>
</a>
</g>
</g>
<!-- Node6&#45;&gt;Node7 -->
<g id="edge10" class="edge"><title>Node6&#45;&gt;Node7</title>
<path fill="none" stroke="midnightblue" d="M220.587,-112.083C228.159,-104.22 239.378,-92.5688 248.514,-83.0813"/>
<polygon fill="midnightblue" stroke="midnightblue" points="251.158,-85.3821 255.573,-75.7511 246.115,-80.5266 251.158,-85.3821"/>
</g>
<!-- Node8 -->
<g id="node9" class="node"><title>Node8</title>
<g id="a_node9"><a xlink:href="_brick_pi3_8h.html" target="_top" xlink:title="BrickPi3.h">
<polygon fill="white" stroke="black" points="233,-0.5 233,-19.5 295,-19.5 295,-0.5 233,-0.5"/>
<text text-anchor="middle" x="264" y="-7.5" font-family="Helvetica,sans-Serif" font-size="10.00">BrickPi3.h</text>
</a>
</g>
</g>
<!-- Node7&#45;&gt;Node8 -->
<g id="edge11" class="edge"><title>Node7&#45;&gt;Node8</title>
<path fill="none" stroke="midnightblue" d="M264,-56.083C264,-49.0059 264,-38.8611 264,-29.9865"/>
<polygon fill="midnightblue" stroke="midnightblue" points="267.5,-29.751 264,-19.7511 260.5,-29.7511 267.5,-29.751"/>
</g>
</g>
</svg>
