<?xml version="1.0" encoding="UTF-8" standalone="no"?>
<!DOCTYPE svg PUBLIC "-//W3C//DTD SVG 1.1//EN"
 "http://www.w3.org/Graphics/SVG/1.1/DTD/svg11.dtd">
<!-- Generated by graphviz version 2.38.0 (20140413.2041)
 -->
<!-- Title: log.cpp Pages: 1 -->
<svg width="315pt" height="140pt"
 viewBox="0.00 0.00 315.00 140.00" xmlns="http://www.w3.org/2000/svg" xmlns:xlink="http://www.w3.org/1999/xlink">
<g id="graph0" class="graph" transform="scale(1 1) rotate(0) translate(4 136)">
<title>log.cpp</title>
<polygon fill="white" stroke="none" points="-4,4 -4,-136 311,-136 311,4 -4,4"/>
<!-- Node0 -->
<g id="node1" class="node"><title>Node0</title>
<polygon fill="#bfbfbf" stroke="black" points="139,-112.5 139,-131.5 187,-131.5 187,-112.5 139,-112.5"/>
<text text-anchor="middle" x="163" y="-119.5" font-family="Helvetica,sans-Serif" font-size="10.00">log.cpp</text>
</g>
<!-- Node1 -->
<g id="node2" class="node"><title>Node1</title>
<g id="a_node2"><a xlink:href="log_8h.html" target="_top" xlink:title="log.h">
<polygon fill="white" stroke="black" points="121,-56.5 121,-75.5 159,-75.5 159,-56.5 121,-56.5"/>
<text text-anchor="middle" x="140" y="-63.5" font-family="Helvetica,sans-Serif" font-size="10.00">log.h</text>
</a>
</g>
</g>
<!-- Node0&#45;&gt;Node1 -->
<g id="edge1" class="edge"><title>Node0&#45;&gt;Node1</title>
<path fill="none" stroke="midnightblue" d="M159.202,-112.083C156.087,-104.77 151.577,-94.1814 147.711,-85.1034"/>
<polygon fill="midnightblue" stroke="midnightblue" points="150.866,-83.5798 143.727,-75.7511 144.426,-86.3229 150.866,-83.5798"/>
</g>
<!-- Node2 -->
<g id="node3" class="node"><title>Node2</title>
<polygon fill="white" stroke="#bfbfbf" points="0,-0.5 0,-19.5 54,-19.5 54,-0.5 0,-0.5"/>
<text text-anchor="middle" x="27" y="-7.5" font-family="Helvetica,sans-Serif" font-size="10.00">iostream</text>
</g>
<!-- Node0&#45;&gt;Node2 -->
<g id="edge7" class="edge"><title>Node0&#45;&gt;Node2</title>
<path fill="none" stroke="midnightblue" d="M150.396,-112.367C137.686,-103.543 117.623,-89.2862 101,-76 80.9013,-59.936 58.8645,-40.3001 44.1114,-26.841"/>
<polygon fill="midnightblue" stroke="midnightblue" points="46.07,-23.8879 36.3364,-19.7038 41.3363,-29.0447 46.07,-23.8879"/>
</g>
<!-- Node3 -->
<g id="node4" class="node"><title>Node3</title>
<polygon fill="white" stroke="#bfbfbf" points="72.5,-0.5 72.5,-19.5 121.5,-19.5 121.5,-0.5 72.5,-0.5"/>
<text text-anchor="middle" x="97" y="-7.5" font-family="Helvetica,sans-Serif" font-size="10.00">fstream</text>
</g>
<!-- Node0&#45;&gt;Node3 -->
<g id="edge8" class="edge"><title>Node0&#45;&gt;Node3</title>
<path fill="none" stroke="midnightblue" d="M149.136,-112.388C137.443,-104.392 121.186,-91.4192 112,-76 103.572,-61.8532 99.8785,-43.3693 98.2606,-29.7303"/>
<polygon fill="midnightblue" stroke="midnightblue" points="101.731,-29.2524 97.3312,-19.6146 94.7608,-29.8929 101.731,-29.2524"/>
</g>
<!-- Node4 -->
<g id="node5" class="node"><title>Node4</title>
<polygon fill="white" stroke="#bfbfbf" points="139.5,-0.5 139.5,-19.5 180.5,-19.5 180.5,-0.5 139.5,-0.5"/>
<text text-anchor="middle" x="160" y="-7.5" font-family="Helvetica,sans-Serif" font-size="10.00">string</text>
</g>
<!-- Node0&#45;&gt;Node4 -->
<g id="edge9" class="edge"><title>Node0&#45;&gt;Node4</title>
<path fill="none" stroke="midnightblue" d="M164.603,-112.163C166.661,-99.654 169.77,-76.0682 168,-56 167.224,-47.1966 165.609,-37.5357 164.031,-29.4298"/>
<polygon fill="midnightblue" stroke="midnightblue" points="167.444,-28.648 161.987,-19.5666 160.59,-30.0689 167.444,-28.648"/>
</g>
<!-- Node5 -->
<g id="node6" class="node"><title>Node5</title>
<polygon fill="white" stroke="#bfbfbf" points="199,-0.5 199,-19.5 245,-19.5 245,-0.5 199,-0.5"/>
<text text-anchor="middle" x="222" y="-7.5" font-family="Helvetica,sans-Serif" font-size="10.00">stdio.h</text>
</g>
<!-- Node0&#45;&gt;Node5 -->
<g id="edge10" class="edge"><title>Node0&#45;&gt;Node5</title>
<path fill="none" stroke="midnightblue" d="M167.63,-112.368C177.28,-94.376 199.714,-52.5503 212.546,-28.6267"/>
<polygon fill="midnightblue" stroke="midnightblue" points="215.75,-30.0582 217.392,-19.5914 209.581,-26.7495 215.75,-30.0582"/>
</g>
<!-- Node6 -->
<g id="node7" class="node"><title>Node6</title>
<polygon fill="white" stroke="#bfbfbf" points="263,-0.5 263,-19.5 307,-19.5 307,-0.5 263,-0.5"/>
<text text-anchor="middle" x="285" y="-7.5" font-family="Helvetica,sans-Serif" font-size="10.00">time.h</text>
</g>
<!-- Node0&#45;&gt;Node6 -->
<g id="edge11" class="edge"><title>Node0&#45;&gt;Node6</title>
<path fill="none" stroke="midnightblue" d="M172.573,-112.368C193.152,-93.8137 241.842,-49.9129 267.878,-26.4376"/>
<polygon fill="midnightblue" stroke="midnightblue" points="270.388,-28.8872 275.471,-19.5914 265.701,-23.6884 270.388,-28.8872"/>
</g>
<!-- Node1&#45;&gt;Node2 -->
<g id="edge2" class="edge"><title>Node1&#45;&gt;Node2</title>
<path fill="none" stroke="midnightblue" d="M122.095,-56.4435C103.746,-47.6751 74.9946,-33.9355 53.9064,-23.8579"/>
<polygon fill="midnightblue" stroke="midnightblue" points="55.3532,-20.6703 44.8214,-19.5164 52.335,-26.9862 55.3532,-20.6703"/>
</g>
<!-- Node1&#45;&gt;Node3 -->
<g id="edge3" class="edge"><title>Node1&#45;&gt;Node3</title>
<path fill="none" stroke="midnightblue" d="M132.899,-56.083C126.763,-48.3768 117.73,-37.0333 110.261,-27.6531"/>
<polygon fill="midnightblue" stroke="midnightblue" points="112.936,-25.3936 103.968,-19.7511 107.46,-29.7542 112.936,-25.3936"/>
</g>
<!-- Node1&#45;&gt;Node4 -->
<g id="edge4" class="edge"><title>Node1&#45;&gt;Node4</title>
<path fill="none" stroke="midnightblue" d="M143.303,-56.083C145.982,-48.8486 149.849,-38.4087 153.186,-29.3968"/>
<polygon fill="midnightblue" stroke="midnightblue" points="156.568,-30.3442 156.759,-19.7511 150.004,-27.9129 156.568,-30.3442"/>
</g>
<!-- Node1&#45;&gt;Node5 -->
<g id="edge5" class="edge"><title>Node1&#45;&gt;Node5</title>
<path fill="none" stroke="midnightblue" d="M153.175,-56.324C165.847,-47.979 185.233,-35.2122 200.206,-25.3524"/>
<polygon fill="midnightblue" stroke="midnightblue" points="202.431,-28.0776 208.858,-19.6545 198.581,-22.2313 202.431,-28.0776"/>
</g>
<!-- Node1&#45;&gt;Node6 -->
<g id="edge6" class="edge"><title>Node1&#45;&gt;Node6</title>
<path fill="none" stroke="midnightblue" d="M159.255,-57.8292C183.236,-48.8982 224.54,-33.5162 253.237,-22.8291"/>
<polygon fill="midnightblue" stroke="midnightblue" points="254.663,-26.033 262.812,-19.263 252.22,-19.4731 254.663,-26.033"/>
</g>
</g>
</svg>
