<?xml version="1.0" encoding="UTF-8" standalone="no"?>
<!DOCTYPE svg PUBLIC "-//W3C//DTD SVG 1.1//EN"
 "http://www.w3.org/Graphics/SVG/1.1/DTD/svg11.dtd">
<!-- Generated by graphviz version 2.38.0 (20140413.2041)
 -->
<!-- Title: log.h Pages: 1 -->
<svg width="304pt" height="140pt"
 viewBox="0.00 0.00 303.50 140.00" xmlns="http://www.w3.org/2000/svg" xmlns:xlink="http://www.w3.org/1999/xlink">
<g id="graph0" class="graph" transform="scale(1 1) rotate(0) translate(4 136)">
<title>log.h</title>
<polygon fill="white" stroke="none" points="-4,4 -4,-136 299.5,-136 299.5,4 -4,4"/>
<!-- Node6 -->
<g id="node1" class="node"><title>Node6</title>
<polygon fill="#bfbfbf" stroke="black" points="137,-112.5 137,-131.5 175,-131.5 175,-112.5 137,-112.5"/>
<text text-anchor="middle" x="156" y="-119.5" font-family="Helvetica,sans-Serif" font-size="10.00">log.h</text>
</g>
<!-- Node7 -->
<g id="node2" class="node"><title>Node7</title>
<g id="a_node2"><a xlink:href="init_8cpp.html" target="_top" xlink:title="init.cpp">
<polygon fill="white" stroke="black" points="0,-56.5 0,-75.5 48,-75.5 48,-56.5 0,-56.5"/>
<text text-anchor="middle" x="24" y="-63.5" font-family="Helvetica,sans-Serif" font-size="10.00">init.cpp</text>
</a>
</g>
</g>
<!-- Node6&#45;&gt;Node7 -->
<g id="edge1" class="edge"><title>Node6&#45;&gt;Node7</title>
<path fill="none" stroke="midnightblue" d="M127.537,-109.356C102.712,-99.2004 67.2732,-84.7027 44.9625,-75.5756"/>
<polygon fill="midnightblue" stroke="midnightblue" points="126.225,-112.601 136.806,-113.148 128.876,-106.122 126.225,-112.601"/>
</g>
<!-- Node8 -->
<g id="node3" class="node"><title>Node8</title>
<g id="a_node3"><a xlink:href="log_8cpp.html" target="_top" xlink:title="log.cpp">
<polygon fill="white" stroke="black" points="66,-56.5 66,-75.5 114,-75.5 114,-56.5 66,-56.5"/>
<text text-anchor="middle" x="90" y="-63.5" font-family="Helvetica,sans-Serif" font-size="10.00">log.cpp</text>
</a>
</g>
</g>
<!-- Node6&#45;&gt;Node8 -->
<g id="edge2" class="edge"><title>Node6&#45;&gt;Node8</title>
<path fill="none" stroke="midnightblue" d="M137.446,-105.82C125.622,-96.1452 110.714,-83.9481 100.797,-75.8339"/>
<polygon fill="midnightblue" stroke="midnightblue" points="135.44,-108.7 145.396,-112.324 139.873,-103.283 135.44,-108.7"/>
</g>
<!-- Node9 -->
<g id="node4" class="node"><title>Node9</title>
<g id="a_node4"><a xlink:href="state_8h.html" target="_top" xlink:title="state.h">
<polygon fill="white" stroke="black" points="132.5,-56.5 132.5,-75.5 179.5,-75.5 179.5,-56.5 132.5,-56.5"/>
<text text-anchor="middle" x="156" y="-63.5" font-family="Helvetica,sans-Serif" font-size="10.00">state.h</text>
</a>
</g>
</g>
<!-- Node6&#45;&gt;Node9 -->
<g id="edge3" class="edge"><title>Node6&#45;&gt;Node9</title>
<path fill="none" stroke="midnightblue" d="M156,-101.805C156,-92.9102 156,-82.7798 156,-75.7511"/>
<polygon fill="midnightblue" stroke="midnightblue" points="152.5,-102.083 156,-112.083 159.5,-102.083 152.5,-102.083"/>
</g>
<!-- Node11 -->
<g id="node6" class="node"><title>Node11</title>
<g id="a_node6"><a xlink:href="state_8cpp.html" target="_top" xlink:title="state.cpp">
<polygon fill="white" stroke="black" points="179.5,-0.5 179.5,-19.5 236.5,-19.5 236.5,-0.5 179.5,-0.5"/>
<text text-anchor="middle" x="208" y="-7.5" font-family="Helvetica,sans-Serif" font-size="10.00">state.cpp</text>
</a>
</g>
</g>
<!-- Node6&#45;&gt;Node11 -->
<g id="edge7" class="edge"><title>Node6&#45;&gt;Node11</title>
<path fill="none" stroke="midnightblue" d="M170.345,-104.393C176.779,-96.2668 184.024,-86.0798 189,-76 198.368,-57.0238 203.955,-32.5979 206.447,-19.7675"/>
<polygon fill="midnightblue" stroke="midnightblue" points="167.487,-102.357 163.826,-112.3 172.888,-106.81 167.487,-102.357"/>
</g>
<!-- Node12 -->
<g id="node7" class="node"><title>Node12</title>
<g id="a_node7"><a xlink:href="notify_8cpp.html" target="_top" xlink:title="notify.cpp">
<polygon fill="white" stroke="black" points="236.5,-56.5 236.5,-75.5 295.5,-75.5 295.5,-56.5 236.5,-56.5"/>
<text text-anchor="middle" x="266" y="-63.5" font-family="Helvetica,sans-Serif" font-size="10.00">notify.cpp</text>
</a>
</g>
</g>
<!-- Node6&#45;&gt;Node12 -->
<g id="edge6" class="edge"><title>Node6&#45;&gt;Node12</title>
<path fill="none" stroke="midnightblue" d="M182.762,-107.862C203.159,-97.8492 230.666,-84.3458 248.37,-75.6545"/>
<polygon fill="midnightblue" stroke="midnightblue" points="181.108,-104.775 173.673,-112.324 184.192,-111.059 181.108,-104.775"/>
</g>
<!-- Node10 -->
<g id="node5" class="node"><title>Node10</title>
<g id="a_node5"><a xlink:href="main_8cpp.html" target="_top" xlink:title="main.cpp">
<polygon fill="white" stroke="black" points="105,-0.5 105,-19.5 161,-19.5 161,-0.5 105,-0.5"/>
<text text-anchor="middle" x="133" y="-7.5" font-family="Helvetica,sans-Serif" font-size="10.00">main.cpp</text>
</a>
</g>
</g>
<!-- Node9&#45;&gt;Node10 -->
<g id="edge4" class="edge"><title>Node9&#45;&gt;Node10</title>
<path fill="none" stroke="midnightblue" d="M148.201,-46.6897C144.325,-37.589 139.821,-27.0141 136.727,-19.7511"/>
<polygon fill="midnightblue" stroke="midnightblue" points="145.063,-48.2543 152.202,-56.083 151.503,-45.5112 145.063,-48.2543"/>
</g>
<!-- Node9&#45;&gt;Node11 -->
<g id="edge5" class="edge"><title>Node9&#45;&gt;Node11</title>
<path fill="none" stroke="midnightblue" d="M171.679,-48.7175C180.845,-39.1997 192.053,-27.5608 199.573,-19.7511"/>
<polygon fill="midnightblue" stroke="midnightblue" points="169.002,-46.452 164.587,-56.083 174.044,-51.3075 169.002,-46.452"/>
</g>
</g>
</svg>
