<?xml version="1.0" encoding="UTF-8" standalone="no"?>
<!DOCTYPE svg PUBLIC "-//W3C//DTD SVG 1.1//EN"
 "http://www.w3.org/Graphics/SVG/1.1/DTD/svg11.dtd">
<!-- Generated by graphviz version 2.38.0 (20140413.2041)
 -->
<!-- Title: log.h Pages: 1 -->
<svg width="315pt" height="84pt"
 viewBox="0.00 0.00 315.00 84.00" xmlns="http://www.w3.org/2000/svg" xmlns:xlink="http://www.w3.org/1999/xlink">
<g id="graph0" class="graph" transform="scale(1 1) rotate(0) translate(4 80)">
<title>log.h</title>
<polygon fill="white" stroke="none" points="-4,4 -4,-80 311,-80 311,4 -4,4"/>
<!-- Node0 -->
<g id="node1" class="node"><title>Node0</title>
<polygon fill="#bfbfbf" stroke="black" points="141,-56.5 141,-75.5 179,-75.5 179,-56.5 141,-56.5"/>
<text text-anchor="middle" x="160" y="-63.5" font-family="Helvetica,sans-Serif" font-size="10.00">log.h</text>
</g>
<!-- Node1 -->
<g id="node2" class="node"><title>Node1</title>
<polygon fill="white" stroke="#bfbfbf" points="0,-0.5 0,-19.5 54,-19.5 54,-0.5 0,-0.5"/>
<text text-anchor="middle" x="27" y="-7.5" font-family="Helvetica,sans-Serif" font-size="10.00">iostream</text>
</g>
<!-- Node0&#45;&gt;Node1 -->
<g id="edge1" class="edge"><title>Node0&#45;&gt;Node1</title>
<path fill="none" stroke="midnightblue" d="M140.944,-57.2631C119.162,-48.4192 83.2092,-33.8218 57.5138,-23.3891"/>
<polygon fill="midnightblue" stroke="midnightblue" points="58.8011,-20.1343 48.219,-19.6152 56.1678,-26.6201 58.8011,-20.1343"/>
</g>
<!-- Node2 -->
<g id="node3" class="node"><title>Node2</title>
<polygon fill="white" stroke="#bfbfbf" points="72.5,-0.5 72.5,-19.5 121.5,-19.5 121.5,-0.5 72.5,-0.5"/>
<text text-anchor="middle" x="97" y="-7.5" font-family="Helvetica,sans-Serif" font-size="10.00">fstream</text>
</g>
<!-- Node0&#45;&gt;Node2 -->
<g id="edge2" class="edge"><title>Node0&#45;&gt;Node2</title>
<path fill="none" stroke="midnightblue" d="M149.878,-56.324C140.474,-48.2631 126.256,-36.0765 114.931,-26.3695"/>
<polygon fill="midnightblue" stroke="midnightblue" points="117.177,-23.6844 107.306,-19.8339 112.621,-28.9993 117.177,-23.6844"/>
</g>
<!-- Node3 -->
<g id="node4" class="node"><title>Node3</title>
<polygon fill="white" stroke="#bfbfbf" points="139.5,-0.5 139.5,-19.5 180.5,-19.5 180.5,-0.5 139.5,-0.5"/>
<text text-anchor="middle" x="160" y="-7.5" font-family="Helvetica,sans-Serif" font-size="10.00">string</text>
</g>
<!-- Node0&#45;&gt;Node3 -->
<g id="edge3" class="edge"><title>Node0&#45;&gt;Node3</title>
<path fill="none" stroke="midnightblue" d="M160,-56.083C160,-49.0059 160,-38.8611 160,-29.9865"/>
<polygon fill="midnightblue" stroke="midnightblue" points="163.5,-29.751 160,-19.7511 156.5,-29.7511 163.5,-29.751"/>
</g>
<!-- Node4 -->
<g id="node5" class="node"><title>Node4</title>
<polygon fill="white" stroke="#bfbfbf" points="199,-0.5 199,-19.5 245,-19.5 245,-0.5 199,-0.5"/>
<text text-anchor="middle" x="222" y="-7.5" font-family="Helvetica,sans-Serif" font-size="10.00">stdio.h</text>
</g>
<!-- Node0&#45;&gt;Node4 -->
<g id="edge4" class="edge"><title>Node0&#45;&gt;Node4</title>
<path fill="none" stroke="midnightblue" d="M169.961,-56.324C179.127,-48.3414 192.937,-36.3128 204.028,-26.6529"/>
<polygon fill="midnightblue" stroke="midnightblue" points="206.615,-29.041 211.857,-19.8339 202.018,-23.7624 206.615,-29.041"/>
</g>
<!-- Node5 -->
<g id="node6" class="node"><title>Node5</title>
<polygon fill="white" stroke="#bfbfbf" points="263,-0.5 263,-19.5 307,-19.5 307,-0.5 263,-0.5"/>
<text text-anchor="middle" x="285" y="-7.5" font-family="Helvetica,sans-Serif" font-size="10.00">time.h</text>
</g>
<!-- Node0&#45;&gt;Node5 -->
<g id="edge5" class="edge"><title>Node0&#45;&gt;Node5</title>
<path fill="none" stroke="midnightblue" d="M179.257,-56.6808C199.722,-47.8401 232.319,-33.7581 255.915,-23.5646"/>
<polygon fill="midnightblue" stroke="midnightblue" points="257.309,-26.7754 265.101,-19.5966 254.532,-20.3494 257.309,-26.7754"/>
</g>
</g>
</svg>
