<?xml version="1.0" encoding="UTF-8" standalone="no"?>
<!DOCTYPE svg PUBLIC "-//W3C//DTD SVG 1.1//EN"
 "http://www.w3.org/Graphics/SVG/1.1/DTD/svg11.dtd">
<!-- Generated by graphviz version 2.38.0 (20140413.2041)
 -->
<!-- Title: sensor.h Pages: 1 -->
<svg width="257pt" height="196pt"
 viewBox="0.00 0.00 256.50 196.00" xmlns="http://www.w3.org/2000/svg" xmlns:xlink="http://www.w3.org/1999/xlink">
<g id="graph0" class="graph" transform="scale(1 1) rotate(0) translate(4 192)">
<title>sensor.h</title>
<polygon fill="white" stroke="none" points="-4,4 -4,-192 252.5,-192 252.5,4 -4,4"/>
<!-- Node5 -->
<g id="node1" class="node"><title>Node5</title>
<polygon fill="#bfbfbf" stroke="black" points="90,-168.5 90,-187.5 144,-187.5 144,-168.5 90,-168.5"/>
<text text-anchor="middle" x="117" y="-175.5" font-family="Helvetica,sans-Serif" font-size="10.00">sensor.h</text>
</g>
<!-- Node6 -->
<g id="node2" class="node"><title>Node6</title>
<g id="a_node2"><a xlink:href="init_8h.html" target="_top" xlink:title="init.h">
<polygon fill="white" stroke="black" points="51,-112.5 51,-131.5 89,-131.5 89,-112.5 51,-112.5"/>
<text text-anchor="middle" x="70" y="-119.5" font-family="Helvetica,sans-Serif" font-size="10.00">init.h</text>
</a>
</g>
</g>
<!-- Node5&#45;&gt;Node6 -->
<g id="edge1" class="edge"><title>Node5&#45;&gt;Node6</title>
<path fill="none" stroke="midnightblue" d="M102.579,-160.431C94.3419,-150.967 84.3461,-139.483 77.6167,-131.751"/>
<polygon fill="midnightblue" stroke="midnightblue" points="100.034,-162.838 109.239,-168.083 105.314,-158.242 100.034,-162.838"/>
</g>
<!-- Node7 -->
<g id="node3" class="node"><title>Node7</title>
<g id="a_node3"><a xlink:href="init_8cpp.html" target="_top" xlink:title="init.cpp">
<polygon fill="white" stroke="black" points="0,-56.5 0,-75.5 48,-75.5 48,-56.5 0,-56.5"/>
<text text-anchor="middle" x="24" y="-63.5" font-family="Helvetica,sans-Serif" font-size="10.00">init.cpp</text>
</a>
</g>
</g>
<!-- Node5&#45;&gt;Node7 -->
<g id="edge7" class="edge"><title>Node5&#45;&gt;Node7</title>
<path fill="none" stroke="midnightblue" d="M83.9943,-164.016C69.1996,-156.662 52.7082,-146.078 42,-132 29.0983,-115.038 25.4434,-89.3407 24.4085,-75.9018"/>
<polygon fill="midnightblue" stroke="midnightblue" points="82.8503,-167.344 93.3936,-168.387 85.8018,-160.996 82.8503,-167.344"/>
</g>
<!-- Node8 -->
<g id="node4" class="node"><title>Node8</title>
<g id="a_node4"><a xlink:href="state_8h.html" target="_top" xlink:title="state.h">
<polygon fill="white" stroke="black" points="145.5,-56.5 145.5,-75.5 192.5,-75.5 192.5,-56.5 145.5,-56.5"/>
<text text-anchor="middle" x="169" y="-63.5" font-family="Helvetica,sans-Serif" font-size="10.00">state.h</text>
</a>
</g>
</g>
<!-- Node5&#45;&gt;Node8 -->
<g id="edge8" class="edge"><title>Node5&#45;&gt;Node8</title>
<path fill="none" stroke="midnightblue" d="M125.358,-159.32C136.68,-135.37 156.45,-93.5484 164.939,-75.5914"/>
<polygon fill="midnightblue" stroke="midnightblue" points="122.19,-157.832 121.08,-168.368 128.518,-160.824 122.19,-157.832"/>
</g>
<!-- Node10 -->
<g id="node6" class="node"><title>Node10</title>
<g id="a_node6"><a xlink:href="state_8cpp.html" target="_top" xlink:title="state.cpp">
<polygon fill="white" stroke="black" points="76.5,-0.5 76.5,-19.5 133.5,-19.5 133.5,-0.5 76.5,-0.5"/>
<text text-anchor="middle" x="105" y="-7.5" font-family="Helvetica,sans-Serif" font-size="10.00">state.cpp</text>
</a>
</g>
</g>
<!-- Node5&#45;&gt;Node10 -->
<g id="edge10" class="edge"><title>Node5&#45;&gt;Node10</title>
<path fill="none" stroke="midnightblue" d="M115.621,-157.93C113.018,-121.92 107.475,-45.2312 105.619,-19.5681"/>
<polygon fill="midnightblue" stroke="midnightblue" points="112.143,-158.354 116.355,-168.075 119.125,-157.849 112.143,-158.354"/>
</g>
<!-- Node11 -->
<g id="node7" class="node"><title>Node11</title>
<g id="a_node7"><a xlink:href="sensor_8cpp.html" target="_top" xlink:title="sensor.cpp">
<polygon fill="white" stroke="black" points="183.5,-112.5 183.5,-131.5 248.5,-131.5 248.5,-112.5 183.5,-112.5"/>
<text text-anchor="middle" x="216" y="-119.5" font-family="Helvetica,sans-Serif" font-size="10.00">sensor.cpp</text>
</a>
</g>
</g>
<!-- Node5&#45;&gt;Node11 -->
<g id="edge9" class="edge"><title>Node5&#45;&gt;Node11</title>
<path fill="none" stroke="midnightblue" d="M141.837,-163.453C160.114,-153.483 184.416,-140.228 200.133,-131.655"/>
<polygon fill="midnightblue" stroke="midnightblue" points="140.009,-160.463 132.906,-168.324 143.361,-166.608 140.009,-160.463"/>
</g>
<!-- Node6&#45;&gt;Node7 -->
<g id="edge2" class="edge"><title>Node6&#45;&gt;Node7</title>
<path fill="none" stroke="midnightblue" d="M55.886,-104.431C47.824,-94.9673 38.0408,-83.4827 31.4546,-75.7511"/>
<polygon fill="midnightblue" stroke="midnightblue" points="53.255,-106.74 62.404,-112.083 58.5837,-102.201 53.255,-106.74"/>
</g>
<!-- Node6&#45;&gt;Node8 -->
<g id="edge3" class="edge"><title>Node6&#45;&gt;Node8</title>
<path fill="none" stroke="midnightblue" d="M94.837,-107.453C113.114,-97.4835 137.416,-84.2279 153.133,-75.6545"/>
<polygon fill="midnightblue" stroke="midnightblue" points="93.009,-104.463 85.9061,-112.324 96.361,-110.608 93.009,-104.463"/>
</g>
<!-- Node6&#45;&gt;Node10 -->
<g id="edge6" class="edge"><title>Node6&#45;&gt;Node10</title>
<path fill="none" stroke="midnightblue" d="M75.831,-102.674C83.483,-78.6248 96.6038,-37.3881 102.266,-19.5914"/>
<polygon fill="midnightblue" stroke="midnightblue" points="72.4433,-101.778 72.7464,-112.368 79.1137,-103.9 72.4433,-101.778"/>
</g>
<!-- Node9 -->
<g id="node5" class="node"><title>Node9</title>
<g id="a_node5"><a xlink:href="main_8cpp.html" target="_top" xlink:title="main.cpp">
<polygon fill="white" stroke="black" points="152,-0.5 152,-19.5 208,-19.5 208,-0.5 152,-0.5"/>
<text text-anchor="middle" x="180" y="-7.5" font-family="Helvetica,sans-Serif" font-size="10.00">main.cpp</text>
</a>
</g>
</g>
<!-- Node8&#45;&gt;Node9 -->
<g id="edge4" class="edge"><title>Node8&#45;&gt;Node9</title>
<path fill="none" stroke="midnightblue" d="M172.85,-46.1005C174.676,-37.1357 176.77,-26.8579 178.217,-19.7511"/>
<polygon fill="midnightblue" stroke="midnightblue" points="169.383,-45.5856 170.816,-56.083 176.242,-46.9829 169.383,-45.5856"/>
</g>
<!-- Node8&#45;&gt;Node10 -->
<g id="edge5" class="edge"><title>Node8&#45;&gt;Node10</title>
<path fill="none" stroke="midnightblue" d="M151.009,-49.8197C139.542,-40.1452 125.087,-27.9481 115.47,-19.8339"/>
<polygon fill="midnightblue" stroke="midnightblue" points="148.817,-52.5502 158.717,-56.324 153.331,-47.2002 148.817,-52.5502"/>
</g>
</g>
</svg>
