<?xml version="1.0" encoding="UTF-8" standalone="no"?>
<!DOCTYPE svg PUBLIC "-//W3C//DTD SVG 1.1//EN"
 "http://www.w3.org/Graphics/SVG/1.1/DTD/svg11.dtd">
<!-- Generated by graphviz version 2.38.0 (20140413.2041)
 -->
<!-- Title: sensor.h Pages: 1 -->
<svg width="192pt" height="140pt"
 viewBox="0.00 0.00 191.50 140.00" xmlns="http://www.w3.org/2000/svg" xmlns:xlink="http://www.w3.org/1999/xlink">
<g id="graph0" class="graph" transform="scale(1 1) rotate(0) translate(4 136)">
<title>sensor.h</title>
<polygon fill="white" stroke="none" points="-4,4 -4,-136 187.5,-136 187.5,4 -4,4"/>
<!-- Node0 -->
<g id="node1" class="node"><title>Node0</title>
<polygon fill="#bfbfbf" stroke="black" points="48,-112.5 48,-131.5 102,-131.5 102,-112.5 48,-112.5"/>
<text text-anchor="middle" x="75" y="-119.5" font-family="Helvetica,sans-Serif" font-size="10.00">sensor.h</text>
</g>
<!-- Node1 -->
<g id="node2" class="node"><title>Node1</title>
<g id="a_node2"><a xlink:href="_i_r_8h.html" target="_top" xlink:title="IR.h">
<polygon fill="white" stroke="black" points="0,-56.5 0,-75.5 34,-75.5 34,-56.5 0,-56.5"/>
<text text-anchor="middle" x="17" y="-63.5" font-family="Helvetica,sans-Serif" font-size="10.00">IR.h</text>
</a>
</g>
</g>
<!-- Node0&#45;&gt;Node1 -->
<g id="edge1" class="edge"><title>Node0&#45;&gt;Node1</title>
<path fill="none" stroke="midnightblue" d="M65.6813,-112.324C57.1074,-104.341 44.1878,-92.3128 33.8124,-82.6529"/>
<polygon fill="midnightblue" stroke="midnightblue" points="36.1922,-80.0865 26.4883,-75.8339 31.4223,-85.2098 36.1922,-80.0865"/>
</g>
<!-- Node3 -->
<g id="node4" class="node"><title>Node3</title>
<g id="a_node4"><a xlink:href="_r_g_b_8h.html" target="_top" xlink:title="RGB.h">
<polygon fill="white" stroke="black" points="52,-56.5 52,-75.5 98,-75.5 98,-56.5 52,-56.5"/>
<text text-anchor="middle" x="75" y="-63.5" font-family="Helvetica,sans-Serif" font-size="10.00">RGB.h</text>
</a>
</g>
</g>
<!-- Node0&#45;&gt;Node3 -->
<g id="edge3" class="edge"><title>Node0&#45;&gt;Node3</title>
<path fill="none" stroke="midnightblue" d="M75,-112.083C75,-105.006 75,-94.8611 75,-85.9865"/>
<polygon fill="midnightblue" stroke="midnightblue" points="78.5001,-85.751 75,-75.7511 71.5001,-85.7511 78.5001,-85.751"/>
</g>
<!-- Node4 -->
<g id="node5" class="node"><title>Node4</title>
<g id="a_node5"><a xlink:href="ultrasonic_8h.html" target="_top" xlink:title="ultrasonic.h">
<polygon fill="white" stroke="black" points="116.5,-56.5 116.5,-75.5 183.5,-75.5 183.5,-56.5 116.5,-56.5"/>
<text text-anchor="middle" x="150" y="-63.5" font-family="Helvetica,sans-Serif" font-size="10.00">ultrasonic.h</text>
</a>
</g>
</g>
<!-- Node0&#45;&gt;Node4 -->
<g id="edge5" class="edge"><title>Node0&#45;&gt;Node4</title>
<path fill="none" stroke="midnightblue" d="M87.05,-112.324C98.4631,-104.107 115.831,-91.6017 129.435,-81.8069"/>
<polygon fill="midnightblue" stroke="midnightblue" points="131.66,-84.5174 137.731,-75.8339 127.57,-78.8366 131.66,-84.5174"/>
</g>
<!-- Node2 -->
<g id="node3" class="node"><title>Node2</title>
<polygon fill="white" stroke="#bfbfbf" points="54,-0.5 54,-19.5 96,-19.5 96,-0.5 54,-0.5"/>
<text text-anchor="middle" x="75" y="-7.5" font-family="Helvetica,sans-Serif" font-size="10.00">vector</text>
</g>
<!-- Node1&#45;&gt;Node2 -->
<g id="edge2" class="edge"><title>Node1&#45;&gt;Node2</title>
<path fill="none" stroke="midnightblue" d="M26.3187,-56.324C34.8926,-48.3414 47.8122,-36.3128 58.1876,-26.6529"/>
<polygon fill="midnightblue" stroke="midnightblue" points="60.5777,-29.2098 65.5117,-19.8339 55.8078,-24.0865 60.5777,-29.2098"/>
</g>
<!-- Node3&#45;&gt;Node2 -->
<g id="edge4" class="edge"><title>Node3&#45;&gt;Node2</title>
<path fill="none" stroke="midnightblue" d="M75,-56.083C75,-49.0059 75,-38.8611 75,-29.9865"/>
<polygon fill="midnightblue" stroke="midnightblue" points="78.5001,-29.751 75,-19.7511 71.5001,-29.7511 78.5001,-29.751"/>
</g>
<!-- Node4&#45;&gt;Node2 -->
<g id="edge6" class="edge"><title>Node4&#45;&gt;Node2</title>
<path fill="none" stroke="midnightblue" d="M137.95,-56.324C126.537,-48.1066 109.169,-35.6017 95.5651,-25.8069"/>
<polygon fill="midnightblue" stroke="midnightblue" points="97.4297,-22.8366 87.2693,-19.8339 93.3396,-28.5174 97.4297,-22.8366"/>
</g>
</g>
</svg>
