<?xml version="1.0" encoding="UTF-8" standalone="no"?>
<!DOCTYPE svg PUBLIC "-//W3C//DTD SVG 1.1//EN"
 "http://www.w3.org/Graphics/SVG/1.1/DTD/svg11.dtd">
<!-- Generated by graphviz version 2.38.0 (20140413.2041)
 -->
<!-- Title: sensor.cpp Pages: 1 -->
<svg width="264pt" height="196pt"
 viewBox="0.00 0.00 263.50 196.00" xmlns="http://www.w3.org/2000/svg" xmlns:xlink="http://www.w3.org/1999/xlink">
<g id="graph0" class="graph" transform="scale(1 1) rotate(0) translate(4 192)">
<title>sensor.cpp</title>
<polygon fill="white" stroke="none" points="-4,4 -4,-192 259.5,-192 259.5,4 -4,4"/>
<!-- Node0 -->
<g id="node1" class="node"><title>Node0</title>
<polygon fill="#bfbfbf" stroke="black" points="87.5,-168.5 87.5,-187.5 152.5,-187.5 152.5,-168.5 87.5,-168.5"/>
<text text-anchor="middle" x="120" y="-175.5" font-family="Helvetica,sans-Serif" font-size="10.00">sensor.cpp</text>
</g>
<!-- Node1 -->
<g id="node2" class="node"><title>Node1</title>
<polygon fill="white" stroke="#bfbfbf" points="0,-112.5 0,-131.5 54,-131.5 54,-112.5 0,-112.5"/>
<text text-anchor="middle" x="27" y="-119.5" font-family="Helvetica,sans-Serif" font-size="10.00">iostream</text>
</g>
<!-- Node0&#45;&gt;Node1 -->
<g id="edge1" class="edge"><title>Node0&#45;&gt;Node1</title>
<path fill="none" stroke="midnightblue" d="M105.058,-168.324C90.4148,-159.822 67.8663,-146.729 50.7623,-136.797"/>
<polygon fill="midnightblue" stroke="midnightblue" points="52.3104,-133.649 41.905,-131.655 48.7954,-139.703 52.3104,-133.649"/>
</g>
<!-- Node2 -->
<g id="node3" class="node"><title>Node2</title>
<g id="a_node3"><a xlink:href="sensor_8h.html" target="_top" xlink:title="sensor.h">
<polygon fill="white" stroke="black" points="148,-112.5 148,-131.5 202,-131.5 202,-112.5 148,-112.5"/>
<text text-anchor="middle" x="175" y="-119.5" font-family="Helvetica,sans-Serif" font-size="10.00">sensor.h</text>
</a>
</g>
</g>
<!-- Node0&#45;&gt;Node2 -->
<g id="edge2" class="edge"><title>Node0&#45;&gt;Node2</title>
<path fill="none" stroke="midnightblue" d="M129.082,-168.083C137.171,-160.141 149.195,-148.335 158.91,-138.797"/>
<polygon fill="midnightblue" stroke="midnightblue" points="161.403,-141.254 166.087,-131.751 156.499,-136.26 161.403,-141.254"/>
</g>
<!-- Node3 -->
<g id="node4" class="node"><title>Node3</title>
<g id="a_node4"><a xlink:href="_i_r_8h.html" target="_top" xlink:title="IR.h">
<polygon fill="white" stroke="black" points="72,-56.5 72,-75.5 106,-75.5 106,-56.5 72,-56.5"/>
<text text-anchor="middle" x="89" y="-63.5" font-family="Helvetica,sans-Serif" font-size="10.00">IR.h</text>
</a>
</g>
</g>
<!-- Node0&#45;&gt;Node3 -->
<g id="edge9" class="edge"><title>Node0&#45;&gt;Node3</title>
<path fill="none" stroke="midnightblue" d="M117.567,-168.368C112.542,-150.537 100.92,-109.295 94.1493,-85.2717"/>
<polygon fill="midnightblue" stroke="midnightblue" points="97.5026,-84.2671 91.4212,-75.5914 90.765,-86.1659 97.5026,-84.2671"/>
</g>
<!-- Node5 -->
<g id="node6" class="node"><title>Node5</title>
<g id="a_node6"><a xlink:href="_r_g_b_8h.html" target="_top" xlink:title="RGB.h">
<polygon fill="white" stroke="black" points="124,-56.5 124,-75.5 170,-75.5 170,-56.5 124,-56.5"/>
<text text-anchor="middle" x="147" y="-63.5" font-family="Helvetica,sans-Serif" font-size="10.00">RGB.h</text>
</a>
</g>
</g>
<!-- Node0&#45;&gt;Node5 -->
<g id="edge10" class="edge"><title>Node0&#45;&gt;Node5</title>
<path fill="none" stroke="midnightblue" d="M122.119,-168.368C126.476,-150.617 136.527,-109.666 142.435,-85.5974"/>
<polygon fill="midnightblue" stroke="midnightblue" points="145.906,-86.1375 144.891,-75.5914 139.108,-84.4688 145.906,-86.1375"/>
</g>
<!-- Node6 -->
<g id="node7" class="node"><title>Node6</title>
<g id="a_node7"><a xlink:href="ultrasonic_8h.html" target="_top" xlink:title="ultrasonic.h">
<polygon fill="white" stroke="black" points="188.5,-56.5 188.5,-75.5 255.5,-75.5 255.5,-56.5 188.5,-56.5"/>
<text text-anchor="middle" x="222" y="-63.5" font-family="Helvetica,sans-Serif" font-size="10.00">ultrasonic.h</text>
</a>
</g>
</g>
<!-- Node0&#45;&gt;Node6 -->
<g id="edge11" class="edge"><title>Node0&#45;&gt;Node6</title>
<path fill="none" stroke="midnightblue" d="M152.699,-168.991C172.632,-162.39 196.904,-150.949 211,-132 220.82,-118.8 223.08,-99.9288 223.174,-85.918"/>
<polygon fill="midnightblue" stroke="midnightblue" points="226.661,-85.4135 222.862,-75.523 219.664,-85.6236 226.661,-85.4135"/>
</g>
<!-- Node2&#45;&gt;Node3 -->
<g id="edge3" class="edge"><title>Node2&#45;&gt;Node3</title>
<path fill="none" stroke="midnightblue" d="M161.183,-112.324C147.767,-103.9 127.176,-90.9709 111.414,-81.0741"/>
<polygon fill="midnightblue" stroke="midnightblue" points="113.113,-78.0081 102.783,-75.6545 109.391,-83.9364 113.113,-78.0081"/>
</g>
<!-- Node2&#45;&gt;Node5 -->
<g id="edge5" class="edge"><title>Node2&#45;&gt;Node5</title>
<path fill="none" stroke="midnightblue" d="M170.376,-112.083C166.544,-104.691 160.976,-93.9533 156.235,-84.8111"/>
<polygon fill="midnightblue" stroke="midnightblue" points="159.248,-83.0175 151.538,-75.7511 153.034,-86.2398 159.248,-83.0175"/>
</g>
<!-- Node2&#45;&gt;Node6 -->
<g id="edge7" class="edge"><title>Node2&#45;&gt;Node6</title>
<path fill="none" stroke="midnightblue" d="M182.761,-112.083C189.537,-104.298 199.543,-92.8015 207.755,-83.3665"/>
<polygon fill="midnightblue" stroke="midnightblue" points="210.458,-85.592 214.383,-75.7511 205.178,-80.9963 210.458,-85.592"/>
</g>
<!-- Node4 -->
<g id="node5" class="node"><title>Node4</title>
<polygon fill="white" stroke="#bfbfbf" points="126,-0.5 126,-19.5 168,-19.5 168,-0.5 126,-0.5"/>
<text text-anchor="middle" x="147" y="-7.5" font-family="Helvetica,sans-Serif" font-size="10.00">vector</text>
</g>
<!-- Node3&#45;&gt;Node4 -->
<g id="edge4" class="edge"><title>Node3&#45;&gt;Node4</title>
<path fill="none" stroke="midnightblue" d="M98.3187,-56.324C106.893,-48.3414 119.812,-36.3128 130.188,-26.6529"/>
<polygon fill="midnightblue" stroke="midnightblue" points="132.578,-29.2098 137.512,-19.8339 127.808,-24.0865 132.578,-29.2098"/>
</g>
<!-- Node5&#45;&gt;Node4 -->
<g id="edge6" class="edge"><title>Node5&#45;&gt;Node4</title>
<path fill="none" stroke="midnightblue" d="M147,-56.083C147,-49.0059 147,-38.8611 147,-29.9865"/>
<polygon fill="midnightblue" stroke="midnightblue" points="150.5,-29.751 147,-19.7511 143.5,-29.7511 150.5,-29.751"/>
</g>
<!-- Node6&#45;&gt;Node4 -->
<g id="edge8" class="edge"><title>Node6&#45;&gt;Node4</title>
<path fill="none" stroke="midnightblue" d="M209.95,-56.324C198.537,-48.1066 181.169,-35.6017 167.565,-25.8069"/>
<polygon fill="midnightblue" stroke="midnightblue" points="169.43,-22.8366 159.269,-19.8339 165.34,-28.5174 169.43,-22.8366"/>
</g>
</g>
</svg>
