<?xml version="1.0" encoding="UTF-8" standalone="no"?>
<!DOCTYPE svg PUBLIC "-//W3C//DTD SVG 1.1//EN"
 "http://www.w3.org/Graphics/SVG/1.1/DTD/svg11.dtd">
<!-- Generated by graphviz version 2.38.0 (20140413.2041)
 -->
<!-- Title: state.h Pages: 1 -->
<svg width="572pt" height="252pt"
 viewBox="0.00 0.00 572.00 252.00" xmlns="http://www.w3.org/2000/svg" xmlns:xlink="http://www.w3.org/1999/xlink">
<g id="graph0" class="graph" transform="scale(1 1) rotate(0) translate(4 248)">
<title>state.h</title>
<polygon fill="white" stroke="none" points="-4,4 -4,-248 568,-248 568,4 -4,4"/>
<!-- Node0 -->
<g id="node1" class="node"><title>Node0</title>
<polygon fill="#bfbfbf" stroke="black" points="175.5,-224.5 175.5,-243.5 222.5,-243.5 222.5,-224.5 175.5,-224.5"/>
<text text-anchor="middle" x="199" y="-231.5" font-family="Helvetica,sans-Serif" font-size="10.00">state.h</text>
</g>
<!-- Node1 -->
<g id="node2" class="node"><title>Node1</title>
<g id="a_node2"><a xlink:href="init_8h.html" target="_top" xlink:title="init.h">
<polygon fill="white" stroke="black" points="157,-168.5 157,-187.5 195,-187.5 195,-168.5 157,-168.5"/>
<text text-anchor="middle" x="176" y="-175.5" font-family="Helvetica,sans-Serif" font-size="10.00">init.h</text>
</a>
</g>
</g>
<!-- Node0&#45;&gt;Node1 -->
<g id="edge1" class="edge"><title>Node0&#45;&gt;Node1</title>
<path fill="none" stroke="midnightblue" d="M195.202,-224.083C192.087,-216.77 187.577,-206.181 183.711,-197.103"/>
<polygon fill="midnightblue" stroke="midnightblue" points="186.866,-195.58 179.727,-187.751 180.426,-198.323 186.866,-195.58"/>
</g>
<!-- Node2 -->
<g id="node3" class="node"><title>Node2</title>
<g id="a_node3"><a xlink:href="sensor_8h.html" target="_top" xlink:title="sensor.h">
<polygon fill="white" stroke="black" points="102,-112.5 102,-131.5 156,-131.5 156,-112.5 102,-112.5"/>
<text text-anchor="middle" x="129" y="-119.5" font-family="Helvetica,sans-Serif" font-size="10.00">sensor.h</text>
</a>
</g>
</g>
<!-- Node0&#45;&gt;Node2 -->
<g id="edge14" class="edge"><title>Node0&#45;&gt;Node2</title>
<path fill="none" stroke="midnightblue" d="M185.354,-224.254C173.801,-216.172 157.626,-203.148 148,-188 139.034,-173.891 134.166,-155.403 131.611,-141.753"/>
<polygon fill="midnightblue" stroke="midnightblue" points="135.024,-140.937 129.968,-131.627 128.114,-142.058 135.024,-140.937"/>
</g>
<!-- Node7 -->
<g id="node8" class="node"><title>Node7</title>
<g id="a_node8"><a xlink:href="motion_8h.html" target="_top" xlink:title="motion.h">
<polygon fill="white" stroke="black" points="185,-112.5 185,-131.5 239,-131.5 239,-112.5 185,-112.5"/>
<text text-anchor="middle" x="212" y="-119.5" font-family="Helvetica,sans-Serif" font-size="10.00">motion.h</text>
</a>
</g>
</g>
<!-- Node0&#45;&gt;Node7 -->
<g id="edge13" class="edge"><title>Node0&#45;&gt;Node7</title>
<path fill="none" stroke="midnightblue" d="M200.02,-224.368C202.118,-206.617 206.958,-165.666 209.802,-141.597"/>
<polygon fill="midnightblue" stroke="midnightblue" points="213.287,-141.933 210.985,-131.591 206.335,-141.112 213.287,-141.933"/>
</g>
<!-- Node10 -->
<g id="node11" class="node"><title>Node10</title>
<g id="a_node11"><a xlink:href="log_8h.html" target="_top" xlink:title="log.h">
<polygon fill="white" stroke="black" points="366,-168.5 366,-187.5 404,-187.5 404,-168.5 366,-168.5"/>
<text text-anchor="middle" x="385" y="-175.5" font-family="Helvetica,sans-Serif" font-size="10.00">log.h</text>
</a>
</g>
</g>
<!-- Node0&#45;&gt;Node10 -->
<g id="edge15" class="edge"><title>Node0&#45;&gt;Node10</title>
<path fill="none" stroke="midnightblue" d="M222.557,-226.161C256.601,-216.277 319.488,-198.02 356.23,-187.353"/>
<polygon fill="midnightblue" stroke="midnightblue" points="357.226,-190.708 365.854,-184.559 355.274,-183.986 357.226,-190.708"/>
</g>
<!-- Node1&#45;&gt;Node2 -->
<g id="edge2" class="edge"><title>Node1&#45;&gt;Node2</title>
<path fill="none" stroke="midnightblue" d="M168.239,-168.083C161.463,-160.298 151.457,-148.801 143.245,-139.367"/>
<polygon fill="midnightblue" stroke="midnightblue" points="145.822,-136.996 136.617,-131.751 140.542,-141.592 145.822,-136.996"/>
</g>
<!-- Node1&#45;&gt;Node7 -->
<g id="edge9" class="edge"><title>Node1&#45;&gt;Node7</title>
<path fill="none" stroke="midnightblue" d="M181.945,-168.083C186.977,-160.534 194.337,-149.495 200.513,-140.23"/>
<polygon fill="midnightblue" stroke="midnightblue" points="203.531,-142.013 206.166,-131.751 197.707,-138.13 203.531,-142.013"/>
</g>
<!-- Node3 -->
<g id="node4" class="node"><title>Node3</title>
<g id="a_node4"><a xlink:href="_i_r_8h.html" target="_top" xlink:title="IR.h">
<polygon fill="white" stroke="black" points="0,-56.5 0,-75.5 34,-75.5 34,-56.5 0,-56.5"/>
<text text-anchor="middle" x="17" y="-63.5" font-family="Helvetica,sans-Serif" font-size="10.00">IR.h</text>
</a>
</g>
</g>
<!-- Node2&#45;&gt;Node3 -->
<g id="edge3" class="edge"><title>Node2&#45;&gt;Node3</title>
<path fill="none" stroke="midnightblue" d="M111.005,-112.324C92.7488,-103.522 64.2888,-89.7999 43.4635,-79.7592"/>
<polygon fill="midnightblue" stroke="midnightblue" points="44.7422,-76.4902 34.2144,-75.2998 41.702,-82.7955 44.7422,-76.4902"/>
</g>
<!-- Node5 -->
<g id="node6" class="node"><title>Node5</title>
<g id="a_node6"><a xlink:href="_r_g_b_8h.html" target="_top" xlink:title="RGB.h">
<polygon fill="white" stroke="black" points="52,-56.5 52,-75.5 98,-75.5 98,-56.5 52,-56.5"/>
<text text-anchor="middle" x="75" y="-63.5" font-family="Helvetica,sans-Serif" font-size="10.00">RGB.h</text>
</a>
</g>
</g>
<!-- Node2&#45;&gt;Node5 -->
<g id="edge5" class="edge"><title>Node2&#45;&gt;Node5</title>
<path fill="none" stroke="midnightblue" d="M120.083,-112.083C112.22,-104.22 100.569,-92.5688 91.0813,-83.0813"/>
<polygon fill="midnightblue" stroke="midnightblue" points="93.2971,-80.3473 83.7511,-75.7511 88.3473,-85.2971 93.2971,-80.3473"/>
</g>
<!-- Node6 -->
<g id="node7" class="node"><title>Node6</title>
<g id="a_node7"><a xlink:href="ultrasonic_8h.html" target="_top" xlink:title="ultrasonic.h">
<polygon fill="white" stroke="black" points="116.5,-56.5 116.5,-75.5 183.5,-75.5 183.5,-56.5 116.5,-56.5"/>
<text text-anchor="middle" x="150" y="-63.5" font-family="Helvetica,sans-Serif" font-size="10.00">ultrasonic.h</text>
</a>
</g>
</g>
<!-- Node2&#45;&gt;Node6 -->
<g id="edge7" class="edge"><title>Node2&#45;&gt;Node6</title>
<path fill="none" stroke="midnightblue" d="M132.468,-112.083C135.312,-104.77 139.429,-94.1814 142.96,-85.1034"/>
<polygon fill="midnightblue" stroke="midnightblue" points="146.234,-86.3397 146.597,-75.7511 139.71,-83.8025 146.234,-86.3397"/>
</g>
<!-- Node4 -->
<g id="node5" class="node"><title>Node4</title>
<polygon fill="white" stroke="#bfbfbf" points="91,-0.5 91,-19.5 133,-19.5 133,-0.5 91,-0.5"/>
<text text-anchor="middle" x="112" y="-7.5" font-family="Helvetica,sans-Serif" font-size="10.00">vector</text>
</g>
<!-- Node3&#45;&gt;Node4 -->
<g id="edge4" class="edge"><title>Node3&#45;&gt;Node4</title>
<path fill="none" stroke="midnightblue" d="M32.2634,-56.324C47.2214,-47.8215 70.2548,-34.7288 87.7267,-24.7975"/>
<polygon fill="midnightblue" stroke="midnightblue" points="89.8104,-27.639 96.7745,-19.6545 86.3512,-21.5534 89.8104,-27.639"/>
</g>
<!-- Node5&#45;&gt;Node4 -->
<g id="edge6" class="edge"><title>Node5&#45;&gt;Node4</title>
<path fill="none" stroke="midnightblue" d="M81.1098,-56.083C86.2822,-48.5341 93.8461,-37.4948 100.194,-28.2298"/>
<polygon fill="midnightblue" stroke="midnightblue" points="103.239,-29.9787 106.004,-19.7511 97.4643,-26.0221 103.239,-29.9787"/>
</g>
<!-- Node6&#45;&gt;Node4 -->
<g id="edge8" class="edge"><title>Node6&#45;&gt;Node4</title>
<path fill="none" stroke="midnightblue" d="M143.725,-56.083C138.358,-48.4554 130.482,-37.2645 123.921,-27.9408"/>
<polygon fill="midnightblue" stroke="midnightblue" points="126.775,-25.9149 118.158,-19.7511 121.051,-29.9434 126.775,-25.9149"/>
</g>
<!-- Node7&#45;&gt;Node4 -->
<g id="edge10" class="edge"><title>Node7&#45;&gt;Node4</title>
<path fill="none" stroke="midnightblue" d="M211.379,-112.481C210.001,-99.093 205.634,-72.9135 192,-56 179.293,-40.2361 159.491,-29.0348 142.769,-21.7504"/>
<polygon fill="midnightblue" stroke="midnightblue" points="143.937,-18.4468 133.355,-17.9092 141.292,-24.928 143.937,-18.4468"/>
</g>
<!-- Node8 -->
<g id="node9" class="node"><title>Node8</title>
<g id="a_node9"><a xlink:href="servo_8h.html" target="_top" xlink:title="servo.h">
<polygon fill="white" stroke="black" points="240.5,-56.5 240.5,-75.5 287.5,-75.5 287.5,-56.5 240.5,-56.5"/>
<text text-anchor="middle" x="264" y="-63.5" font-family="Helvetica,sans-Serif" font-size="10.00">servo.h</text>
</a>
</g>
</g>
<!-- Node7&#45;&gt;Node8 -->
<g id="edge11" class="edge"><title>Node7&#45;&gt;Node8</title>
<path fill="none" stroke="midnightblue" d="M220.587,-112.083C228.159,-104.22 239.378,-92.5688 248.514,-83.0813"/>
<polygon fill="midnightblue" stroke="midnightblue" points="251.158,-85.3821 255.573,-75.7511 246.115,-80.5266 251.158,-85.3821"/>
</g>
<!-- Node9 -->
<g id="node10" class="node"><title>Node9</title>
<g id="a_node10"><a xlink:href="_brick_pi3_8h.html" target="_top" xlink:title="BrickPi3.h">
<polygon fill="white" stroke="black" points="233,-0.5 233,-19.5 295,-19.5 295,-0.5 233,-0.5"/>
<text text-anchor="middle" x="264" y="-7.5" font-family="Helvetica,sans-Serif" font-size="10.00">BrickPi3.h</text>
</a>
</g>
</g>
<!-- Node8&#45;&gt;Node9 -->
<g id="edge12" class="edge"><title>Node8&#45;&gt;Node9</title>
<path fill="none" stroke="midnightblue" d="M264,-56.083C264,-49.0059 264,-38.8611 264,-29.9865"/>
<polygon fill="midnightblue" stroke="midnightblue" points="267.5,-29.751 264,-19.7511 260.5,-29.7511 267.5,-29.751"/>
</g>
<!-- Node11 -->
<g id="node12" class="node"><title>Node11</title>
<polygon fill="white" stroke="#bfbfbf" points="257,-112.5 257,-131.5 311,-131.5 311,-112.5 257,-112.5"/>
<text text-anchor="middle" x="284" y="-119.5" font-family="Helvetica,sans-Serif" font-size="10.00">iostream</text>
</g>
<!-- Node10&#45;&gt;Node11 -->
<g id="edge16" class="edge"><title>Node10&#45;&gt;Node11</title>
<path fill="none" stroke="midnightblue" d="M368.773,-168.324C352.649,-159.703 327.7,-146.364 309.036,-136.386"/>
<polygon fill="midnightblue" stroke="midnightblue" points="310.656,-133.283 300.187,-131.655 307.356,-139.456 310.656,-133.283"/>
</g>
<!-- Node12 -->
<g id="node13" class="node"><title>Node12</title>
<polygon fill="white" stroke="#bfbfbf" points="329.5,-112.5 329.5,-131.5 378.5,-131.5 378.5,-112.5 329.5,-112.5"/>
<text text-anchor="middle" x="354" y="-119.5" font-family="Helvetica,sans-Serif" font-size="10.00">fstream</text>
</g>
<!-- Node10&#45;&gt;Node12 -->
<g id="edge17" class="edge"><title>Node10&#45;&gt;Node12</title>
<path fill="none" stroke="midnightblue" d="M379.881,-168.083C375.592,-160.613 369.342,-149.724 364.058,-140.52"/>
<polygon fill="midnightblue" stroke="midnightblue" points="367.038,-138.681 359.024,-131.751 360.967,-142.166 367.038,-138.681"/>
</g>
<!-- Node13 -->
<g id="node14" class="node"><title>Node13</title>
<polygon fill="white" stroke="#bfbfbf" points="396.5,-112.5 396.5,-131.5 437.5,-131.5 437.5,-112.5 396.5,-112.5"/>
<text text-anchor="middle" x="417" y="-119.5" font-family="Helvetica,sans-Serif" font-size="10.00">string</text>
</g>
<!-- Node10&#45;&gt;Node13 -->
<g id="edge18" class="edge"><title>Node10&#45;&gt;Node13</title>
<path fill="none" stroke="midnightblue" d="M390.284,-168.083C394.711,-160.613 401.163,-149.724 406.618,-140.52"/>
<polygon fill="midnightblue" stroke="midnightblue" points="409.727,-142.138 411.814,-131.751 403.705,-138.57 409.727,-142.138"/>
</g>
<!-- Node14 -->
<g id="node15" class="node"><title>Node14</title>
<polygon fill="white" stroke="#bfbfbf" points="456,-112.5 456,-131.5 502,-131.5 502,-112.5 456,-112.5"/>
<text text-anchor="middle" x="479" y="-119.5" font-family="Helvetica,sans-Serif" font-size="10.00">stdio.h</text>
</g>
<!-- Node10&#45;&gt;Node14 -->
<g id="edge19" class="edge"><title>Node10&#45;&gt;Node14</title>
<path fill="none" stroke="midnightblue" d="M400.103,-168.324C414.903,-159.822 437.694,-146.729 454.982,-136.797"/>
<polygon fill="midnightblue" stroke="midnightblue" points="457.007,-139.671 463.935,-131.655 453.52,-133.601 457.007,-139.671"/>
</g>
<!-- Node15 -->
<g id="node16" class="node"><title>Node15</title>
<polygon fill="white" stroke="#bfbfbf" points="520,-112.5 520,-131.5 564,-131.5 564,-112.5 520,-112.5"/>
<text text-anchor="middle" x="542" y="-119.5" font-family="Helvetica,sans-Serif" font-size="10.00">time.h</text>
</g>
<!-- Node10&#45;&gt;Node15 -->
<g id="edge20" class="edge"><title>Node10&#45;&gt;Node15</title>
<path fill="none" stroke="midnightblue" d="M404.251,-170.379C430.628,-161.306 478.343,-144.895 510.104,-133.971"/>
<polygon fill="midnightblue" stroke="midnightblue" points="511.49,-137.195 519.808,-130.633 509.213,-130.576 511.49,-137.195"/>
</g>
</g>
</svg>
