<?xml version="1.0" encoding="UTF-8" standalone="no"?>
<!DOCTYPE svg PUBLIC "-//W3C//DTD SVG 1.1//EN"
 "http://www.w3.org/Graphics/SVG/1.1/DTD/svg11.dtd">
<!-- Generated by graphviz version 2.38.0 (20140413.2041)
 -->
<!-- Title: state.cpp Pages: 1 -->
<!--zoomable 308 -->
<svg id="main" version="1.1" xmlns="http://www.w3.org/2000/svg" xmlns:xlink="http://www.w3.org/1999/xlink" xml:space="preserve" onload="init(evt)">
<style type="text/css"><![CDATA[
.edge:hover path { stroke: red; }
.edge:hover polygon { stroke: red; fill: red; }
]]></style>
<script type="text/javascript"><![CDATA[
var edges = document.getElementsByTagName('g');
if (edges && edges.length) {
  for (var i=0;i<edges.length;i++) {
    if (edges[i].id.substr(0,4)=='edge') {
      edges[i].setAttribute('class','edge');
    }
  }
}
]]></script>
        <defs>
                <circle id="rim" cx="0" cy="0" r="7"/>
                <circle id="rim2" cx="0" cy="0" r="3.5"/>
                <g id="zoomPlus">
                        <use xlink:href="#rim" fill="#404040">
                                <set attributeName="fill" to="#808080" begin="zoomplus.mouseover" end="zoomplus.mouseout"/>
                        </use>
                        <path d="M-4,0h8M0,-4v8" fill="none" stroke="white" stroke-width="1.5" pointer-events="none"/>
                </g>
                <g id="zoomMin">
                        <use xlink:href="#rim" fill="#404040">
                                <set attributeName="fill" to="#808080" begin="zoomminus.mouseover" end="zoomminus.mouseout"/>
                        </use>
                        <path d="M-4,0h8" fill="none" stroke="white" stroke-width="1.5" pointer-events="none"/>
                </g>
                <g id="dirArrow">
                        <path fill="none" stroke="white" stroke-width="1.5" d="M0,-3.0v7 M-2.5,-0.5L0,-3.0L2.5,-0.5"/>
                </g>
               <g id="resetDef">
                       <use xlink:href="#rim2" fill="#404040">
                               <set attributeName="fill" to="#808080" begin="reset.mouseover" end="reset.mouseout"/>
                       </use>
               </g>
        </defs>

<script type="text/javascript">
var viewWidth = 572;
var viewHeight = 308;
var sectionId = 'dynsection-0';
</script>
<script xlink:href="svgpan.js"/>
<svg id="graph" class="graph">
<g id="viewport">
<title>state.cpp</title>
<polygon fill="white" stroke="none" points="-4,4 -4,-304 568,-304 568,4 -4,4"/>
<!-- Node0 -->
<g id="node1" class="node"><title>Node0</title>
<polygon fill="#bfbfbf" stroke="black" points="246.5,-280.5 246.5,-299.5 303.5,-299.5 303.5,-280.5 246.5,-280.5"/>
<text text-anchor="middle" x="275" y="-287.5" font-family="Helvetica,sans-Serif" font-size="10.00">state.cpp</text>
</g>
<!-- Node1 -->
<g id="node2" class="node"><title>Node1</title>
<g id="a_node2"><a xlink:href="state_8h.html" target="_top" xlink:title="state.h">
<polygon fill="white" stroke="black" points="225.5,-224.5 225.5,-243.5 272.5,-243.5 272.5,-224.5 225.5,-224.5"/>
<text text-anchor="middle" x="249" y="-231.5" font-family="Helvetica,sans-Serif" font-size="10.00">state.h</text>
</a>
</g>
</g>
<!-- Node0&#45;&gt;Node1 -->
<g id="edge1" class="edge"><title>Node0&#45;&gt;Node1</title>
<path fill="none" stroke="midnightblue" d="M270.707,-280.083C267.148,-272.691 261.978,-261.953 257.576,-252.811"/>
<polygon fill="midnightblue" stroke="midnightblue" points="260.705,-251.243 253.213,-243.751 254.398,-254.279 260.705,-251.243"/>
</g>
<!-- Node2 -->
<g id="node3" class="node"><title>Node2</title>
<g id="a_node3"><a xlink:href="init_8h.html" target="_top" xlink:title="init.h">
<polygon fill="white" stroke="black" points="159,-168.5 159,-187.5 197,-187.5 197,-168.5 159,-168.5"/>
<text text-anchor="middle" x="178" y="-175.5" font-family="Helvetica,sans-Serif" font-size="10.00">init.h</text>
</a>
</g>
</g>
<!-- Node0&#45;&gt;Node2 -->
<g id="edge25" class="edge"><title>Node0&#45;&gt;Node2</title>
<path fill="none" stroke="midnightblue" d="M260.624,-280.339C247.824,-272.127 229.143,-258.861 216,-244 203.441,-229.799 192.916,-210.826 186.151,-197.047"/>
<polygon fill="midnightblue" stroke="midnightblue" points="189.169,-195.24 181.739,-187.687 182.837,-198.224 189.169,-195.24"/>
</g>
<!-- Node3 -->
<g id="node4" class="node"><title>Node3</title>
<g id="a_node4"><a xlink:href="sensor_8h.html" target="_top" xlink:title="sensor.h">
<polygon fill="white" stroke="black" points="110,-112.5 110,-131.5 164,-131.5 164,-112.5 110,-112.5"/>
<text text-anchor="middle" x="137" y="-119.5" font-family="Helvetica,sans-Serif" font-size="10.00">sensor.h</text>
</a>
</g>
</g>
<!-- Node0&#45;&gt;Node3 -->
<g id="edge24" class="edge"><title>Node0&#45;&gt;Node3</title>
<path fill="none" stroke="midnightblue" d="M256.231,-280.48C227.214,-266.141 172.469,-234.158 150,-188 142.917,-173.449 139.693,-155.271 138.225,-141.841"/>
<polygon fill="midnightblue" stroke="midnightblue" points="141.711,-141.52 137.36,-131.86 134.737,-142.125 141.711,-141.52"/>
</g>
<!-- Node8 -->
<g id="node9" class="node"><title>Node8</title>
<g id="a_node9"><a xlink:href="motion_8h.html" target="_top" xlink:title="motion.h">
<polygon fill="white" stroke="black" points="185,-112.5 185,-131.5 239,-131.5 239,-112.5 185,-112.5"/>
<text text-anchor="middle" x="212" y="-119.5" font-family="Helvetica,sans-Serif" font-size="10.00">motion.h</text>
</a>
</g>
</g>
<!-- Node0&#45;&gt;Node8 -->
<g id="edge22" class="edge"><title>Node0&#45;&gt;Node8</title>
<path fill="none" stroke="midnightblue" d="M277.396,-280.49C280.558,-267.981 285.251,-243.951 281,-224 275.32,-197.342 271.323,-190.541 256,-168 248.663,-157.207 238.595,-146.69 229.941,-138.541"/>
<polygon fill="midnightblue" stroke="midnightblue" points="232.263,-135.921 222.51,-131.782 227.553,-141.1 232.263,-135.921"/>
</g>
<!-- Node11 -->
<g id="node12" class="node"><title>Node11</title>
<g id="a_node12"><a xlink:href="log_8h.html" target="_top" xlink:title="log.h">
<polygon fill="white" stroke="black" points="329,-168.5 329,-187.5 367,-187.5 367,-168.5 329,-168.5"/>
<text text-anchor="middle" x="348" y="-175.5" font-family="Helvetica,sans-Serif" font-size="10.00">log.h</text>
</a>
</g>
</g>
<!-- Node0&#45;&gt;Node11 -->
<g id="edge23" class="edge"><title>Node0&#45;&gt;Node11</title>
<path fill="none" stroke="midnightblue" d="M284.008,-280.265C292.642,-271.59 305.699,-257.647 315,-244 325.123,-229.146 334.171,-210.767 340.221,-197.346"/>
<polygon fill="midnightblue" stroke="midnightblue" points="343.592,-198.372 344.394,-187.808 337.179,-195.567 343.592,-198.372"/>
</g>
<!-- Node12 -->
<g id="node13" class="node"><title>Node12</title>
<polygon fill="white" stroke="#bfbfbf" points="510,-112.5 510,-131.5 564,-131.5 564,-112.5 510,-112.5"/>
<text text-anchor="middle" x="537" y="-119.5" font-family="Helvetica,sans-Serif" font-size="10.00">iostream</text>
</g>
<!-- Node0&#45;&gt;Node12 -->
<g id="edge26" class="edge"><title>Node0&#45;&gt;Node12</title>
<path fill="none" stroke="midnightblue" d="M288.717,-280.309C331.428,-253.248 462.308,-170.324 514.84,-137.041"/>
<polygon fill="midnightblue" stroke="midnightblue" points="516.844,-139.914 523.418,-131.605 513.098,-134.001 516.844,-139.914"/>
</g>
<!-- Node1&#45;&gt;Node2 -->
<g id="edge2" class="edge"><title>Node1&#45;&gt;Node2</title>
<path fill="none" stroke="midnightblue" d="M237.593,-224.324C226.891,-216.185 210.659,-203.839 197.837,-194.087"/>
<polygon fill="midnightblue" stroke="midnightblue" points="199.693,-191.102 189.615,-187.834 195.456,-196.673 199.693,-191.102"/>
</g>
<!-- Node1&#45;&gt;Node3 -->
<g id="edge15" class="edge"><title>Node1&#45;&gt;Node3</title>
<path fill="none" stroke="midnightblue" d="M244.677,-224.197C237.833,-210.887 223.47,-185.356 206,-168 193.388,-155.47 176.754,-144.498 162.978,-136.525"/>
<polygon fill="midnightblue" stroke="midnightblue" points="164.42,-133.322 153.982,-131.503 161.008,-139.433 164.42,-133.322"/>
</g>
<!-- Node1&#45;&gt;Node8 -->
<g id="edge14" class="edge"><title>Node1&#45;&gt;Node8</title>
<path fill="none" stroke="midnightblue" d="M248.725,-224.326C248.088,-211.612 245.98,-187.33 239,-168 235.486,-158.269 229.776,-148.316 224.511,-140.253"/>
<polygon fill="midnightblue" stroke="midnightblue" points="227.239,-138.043 218.691,-131.782 221.469,-142.006 227.239,-138.043"/>
</g>
<!-- Node1&#45;&gt;Node11 -->
<g id="edge16" class="edge"><title>Node1&#45;&gt;Node11</title>
<path fill="none" stroke="midnightblue" d="M264.906,-224.324C280.638,-215.743 304.942,-202.486 323.209,-192.522"/>
<polygon fill="midnightblue" stroke="midnightblue" points="325.03,-195.516 332.133,-187.655 321.678,-189.37 325.03,-195.516"/>
</g>
<!-- Node2&#45;&gt;Node3 -->
<g id="edge3" class="edge"><title>Node2&#45;&gt;Node3</title>
<path fill="none" stroke="midnightblue" d="M171.23,-168.083C165.438,-160.455 156.942,-149.264 149.862,-139.941"/>
<polygon fill="midnightblue" stroke="midnightblue" points="152.479,-137.599 143.644,-131.751 146.904,-141.832 152.479,-137.599"/>
</g>
<!-- Node2&#45;&gt;Node8 -->
<g id="edge10" class="edge"><title>Node2&#45;&gt;Node8</title>
<path fill="none" stroke="midnightblue" d="M183.614,-168.083C188.367,-160.534 195.318,-149.495 201.152,-140.23"/>
<polygon fill="midnightblue" stroke="midnightblue" points="204.124,-142.078 206.49,-131.751 198.2,-138.349 204.124,-142.078"/>
</g>
<!-- Node4 -->
<g id="node5" class="node"><title>Node4</title>
<g id="a_node5"><a xlink:href="_i_r_8h.html" target="_top" xlink:title="IR.h">
<polygon fill="white" stroke="black" points="0,-56.5 0,-75.5 34,-75.5 34,-56.5 0,-56.5"/>
<text text-anchor="middle" x="17" y="-63.5" font-family="Helvetica,sans-Serif" font-size="10.00">IR.h</text>
</a>
</g>
</g>
<!-- Node3&#45;&gt;Node4 -->
<g id="edge4" class="edge"><title>Node3&#45;&gt;Node4</title>
<path fill="none" stroke="midnightblue" d="M117.986,-112.444C97.9519,-103.428 66.2406,-89.1583 43.7024,-79.0161"/>
<polygon fill="midnightblue" stroke="midnightblue" points="44.9224,-75.7271 34.3669,-74.8151 42.0498,-82.1105 44.9224,-75.7271"/>
</g>
<!-- Node6 -->
<g id="node7" class="node"><title>Node6</title>
<g id="a_node7"><a xlink:href="_r_g_b_8h.html" target="_top" xlink:title="RGB.h">
<polygon fill="white" stroke="black" points="52,-56.5 52,-75.5 98,-75.5 98,-56.5 52,-56.5"/>
<text text-anchor="middle" x="75" y="-63.5" font-family="Helvetica,sans-Serif" font-size="10.00">RGB.h</text>
</a>
</g>
</g>
<!-- Node3&#45;&gt;Node6 -->
<g id="edge6" class="edge"><title>Node3&#45;&gt;Node6</title>
<path fill="none" stroke="midnightblue" d="M127.039,-112.324C117.873,-104.341 104.063,-92.3128 92.9718,-82.6529"/>
<polygon fill="midnightblue" stroke="midnightblue" points="94.9822,-79.7624 85.1426,-75.8339 90.3847,-85.041 94.9822,-79.7624"/>
</g>
<!-- Node7 -->
<g id="node8" class="node"><title>Node7</title>
<g id="a_node8"><a xlink:href="ultrasonic_8h.html" target="_top" xlink:title="ultrasonic.h">
<polygon fill="white" stroke="black" points="116.5,-56.5 116.5,-75.5 183.5,-75.5 183.5,-56.5 116.5,-56.5"/>
<text text-anchor="middle" x="150" y="-63.5" font-family="Helvetica,sans-Serif" font-size="10.00">ultrasonic.h</text>
</a>
</g>
</g>
<!-- Node3&#45;&gt;Node7 -->
<g id="edge8" class="edge"><title>Node3&#45;&gt;Node7</title>
<path fill="none" stroke="midnightblue" d="M139.147,-112.083C140.869,-104.927 143.347,-94.6353 145.5,-85.6911"/>
<polygon fill="midnightblue" stroke="midnightblue" points="148.955,-86.2925 147.893,-75.7511 142.15,-84.6541 148.955,-86.2925"/>
</g>
<!-- Node5 -->
<g id="node6" class="node"><title>Node5</title>
<polygon fill="white" stroke="#bfbfbf" points="91,-0.5 91,-19.5 133,-19.5 133,-0.5 91,-0.5"/>
<text text-anchor="middle" x="112" y="-7.5" font-family="Helvetica,sans-Serif" font-size="10.00">vector</text>
</g>
<!-- Node4&#45;&gt;Node5 -->
<g id="edge5" class="edge"><title>Node4&#45;&gt;Node5</title>
<path fill="none" stroke="midnightblue" d="M32.2634,-56.324C47.2214,-47.8215 70.2548,-34.7288 87.7267,-24.7975"/>
<polygon fill="midnightblue" stroke="midnightblue" points="89.8104,-27.639 96.7745,-19.6545 86.3512,-21.5534 89.8104,-27.639"/>
</g>
<!-- Node6&#45;&gt;Node5 -->
<g id="edge7" class="edge"><title>Node6&#45;&gt;Node5</title>
<path fill="none" stroke="midnightblue" d="M81.1098,-56.083C86.2822,-48.5341 93.8461,-37.4948 100.194,-28.2298"/>
<polygon fill="midnightblue" stroke="midnightblue" points="103.239,-29.9787 106.004,-19.7511 97.4643,-26.0221 103.239,-29.9787"/>
</g>
<!-- Node7&#45;&gt;Node5 -->
<g id="edge9" class="edge"><title>Node7&#45;&gt;Node5</title>
<path fill="none" stroke="midnightblue" d="M143.725,-56.083C138.358,-48.4554 130.482,-37.2645 123.921,-27.9408"/>
<polygon fill="midnightblue" stroke="midnightblue" points="126.775,-25.9149 118.158,-19.7511 121.051,-29.9434 126.775,-25.9149"/>
</g>
<!-- Node8&#45;&gt;Node5 -->
<g id="edge11" class="edge"><title>Node8&#45;&gt;Node5</title>
<path fill="none" stroke="midnightblue" d="M211.379,-112.481C210.001,-99.093 205.634,-72.9135 192,-56 179.293,-40.2361 159.491,-29.0348 142.769,-21.7504"/>
<polygon fill="midnightblue" stroke="midnightblue" points="143.937,-18.4468 133.355,-17.9092 141.292,-24.928 143.937,-18.4468"/>
</g>
<!-- Node9 -->
<g id="node10" class="node"><title>Node9</title>
<g id="a_node10"><a xlink:href="servo_8h.html" target="_top" xlink:title="servo.h">
<polygon fill="white" stroke="black" points="240.5,-56.5 240.5,-75.5 287.5,-75.5 287.5,-56.5 240.5,-56.5"/>
<text text-anchor="middle" x="264" y="-63.5" font-family="Helvetica,sans-Serif" font-size="10.00">servo.h</text>
</a>
</g>
</g>
<!-- Node8&#45;&gt;Node9 -->
<g id="edge12" class="edge"><title>Node8&#45;&gt;Node9</title>
<path fill="none" stroke="midnightblue" d="M220.587,-112.083C228.159,-104.22 239.378,-92.5688 248.514,-83.0813"/>
<polygon fill="midnightblue" stroke="midnightblue" points="251.158,-85.3821 255.573,-75.7511 246.115,-80.5266 251.158,-85.3821"/>
</g>
<!-- Node10 -->
<g id="node11" class="node"><title>Node10</title>
<g id="a_node11"><a xlink:href="_brick_pi3_8h.html" target="_top" xlink:title="BrickPi3.h">
<polygon fill="white" stroke="black" points="233,-0.5 233,-19.5 295,-19.5 295,-0.5 233,-0.5"/>
<text text-anchor="middle" x="264" y="-7.5" font-family="Helvetica,sans-Serif" font-size="10.00">BrickPi3.h</text>
</a>
</g>
</g>
<!-- Node9&#45;&gt;Node10 -->
<g id="edge13" class="edge"><title>Node9&#45;&gt;Node10</title>
<path fill="none" stroke="midnightblue" d="M264,-56.083C264,-49.0059 264,-38.8611 264,-29.9865"/>
<polygon fill="midnightblue" stroke="midnightblue" points="267.5,-29.751 264,-19.7511 260.5,-29.7511 267.5,-29.751"/>
</g>
<!-- Node11&#45;&gt;Node12 -->
<g id="edge17" class="edge"><title>Node11&#45;&gt;Node12</title>
<path fill="none" stroke="midnightblue" d="M367.162,-171.525C398.308,-162.626 460.435,-144.876 500.293,-133.488"/>
<polygon fill="midnightblue" stroke="midnightblue" points="501.261,-136.851 509.915,-130.739 499.338,-130.121 501.261,-136.851"/>
</g>
<!-- Node13 -->
<g id="node14" class="node"><title>Node13</title>
<polygon fill="white" stroke="#bfbfbf" points="257.5,-112.5 257.5,-131.5 306.5,-131.5 306.5,-112.5 257.5,-112.5"/>
<text text-anchor="middle" x="282" y="-119.5" font-family="Helvetica,sans-Serif" font-size="10.00">fstream</text>
</g>
<!-- Node11&#45;&gt;Node13 -->
<g id="edge18" class="edge"><title>Node11&#45;&gt;Node13</title>
<path fill="none" stroke="midnightblue" d="M337.396,-168.324C327.544,-160.263 312.649,-148.077 300.785,-138.369"/>
<polygon fill="midnightblue" stroke="midnightblue" points="302.753,-135.457 292.797,-131.834 298.32,-140.875 302.753,-135.457"/>
</g>
<!-- Node14 -->
<g id="node15" class="node"><title>Node14</title>
<polygon fill="white" stroke="#bfbfbf" points="324.5,-112.5 324.5,-131.5 365.5,-131.5 365.5,-112.5 324.5,-112.5"/>
<text text-anchor="middle" x="345" y="-119.5" font-family="Helvetica,sans-Serif" font-size="10.00">string</text>
</g>
<!-- Node11&#45;&gt;Node14 -->
<g id="edge19" class="edge"><title>Node11&#45;&gt;Node14</title>
<path fill="none" stroke="midnightblue" d="M347.505,-168.083C347.111,-161.006 346.548,-150.861 346.055,-141.986"/>
<polygon fill="midnightblue" stroke="midnightblue" points="349.536,-141.542 345.486,-131.751 342.546,-141.93 349.536,-141.542"/>
</g>
<!-- Node15 -->
<g id="node16" class="node"><title>Node15</title>
<polygon fill="white" stroke="#bfbfbf" points="384,-112.5 384,-131.5 430,-131.5 430,-112.5 384,-112.5"/>
<text text-anchor="middle" x="407" y="-119.5" font-family="Helvetica,sans-Serif" font-size="10.00">stdio.h</text>
</g>
<!-- Node11&#45;&gt;Node15 -->
<g id="edge20" class="edge"><title>Node11&#45;&gt;Node15</title>
<path fill="none" stroke="midnightblue" d="M357.479,-168.324C366.201,-160.341 379.343,-148.313 389.898,-138.653"/>
<polygon fill="midnightblue" stroke="midnightblue" points="392.334,-141.167 397.348,-131.834 387.608,-136.004 392.334,-141.167"/>
</g>
<!-- Node16 -->
<g id="node17" class="node"><title>Node16</title>
<polygon fill="white" stroke="#bfbfbf" points="448,-112.5 448,-131.5 492,-131.5 492,-112.5 448,-112.5"/>
<text text-anchor="middle" x="470" y="-119.5" font-family="Helvetica,sans-Serif" font-size="10.00">time.h</text>
</g>
<!-- Node11&#45;&gt;Node16 -->
<g id="edge21" class="edge"><title>Node11&#45;&gt;Node16</title>
<path fill="none" stroke="midnightblue" d="M367.063,-168.563C387,-159.738 418.522,-145.785 441.435,-135.644"/>
<polygon fill="midnightblue" stroke="midnightblue" points="442.941,-138.804 450.669,-131.556 440.108,-132.403 442.941,-138.804"/>
</g>
</g>
</svg>
        <g id="navigator" transform="translate(0 0)" fill="#404254">
                <rect fill="#f2f5e9" fill-opacity="0.5" stroke="#606060" stroke-width=".5" x="0" y="0" width="60" height="60"/>
                <use id="zoomplus" xlink:href="#zoomPlus" x="17" y="9" onmousedown="handleZoom(evt,'in')"/>
                <use id="zoomminus" xlink:href="#zoomMin" x="42" y="9" onmousedown="handleZoom(evt,'out')"/>
                <use id="reset" xlink:href="#resetDef" x="30" y="36" onmousedown="handleReset()"/>
                <g id="arrowUp" xlink:href="#dirArrow" transform="translate(30 24)" onmousedown="handlePan(0,-1)">
                  <use xlink:href="#rim" fill="#404040">
                        <set attributeName="fill" to="#808080" begin="arrowUp.mouseover" end="arrowUp.mouseout"/>
                  </use>
                  <path fill="none" stroke="white" stroke-width="1.5" d="M0,-3.0v7 M-2.5,-0.5L0,-3.0L2.5,-0.5"/>
                </g>
                <g id="arrowRight" xlink:href="#dirArrow" transform="rotate(90) translate(36 -43)" onmousedown="handlePan(1,0)">
                  <use xlink:href="#rim" fill="#404040">
                        <set attributeName="fill" to="#808080" begin="arrowRight.mouseover" end="arrowRight.mouseout"/>
                  </use>
                  <path fill="none" stroke="white" stroke-width="1.5" d="M0,-3.0v7 M-2.5,-0.5L0,-3.0L2.5,-0.5"/>
                </g>
                <g id="arrowDown" xlink:href="#dirArrow" transform="rotate(180) translate(-30 -48)" onmousedown="handlePan(0,1)">
                  <use xlink:href="#rim" fill="#404040">
                        <set attributeName="fill" to="#808080" begin="arrowDown.mouseover" end="arrowDown.mouseout"/>
                  </use>
                  <path fill="none" stroke="white" stroke-width="1.5" d="M0,-3.0v7 M-2.5,-0.5L0,-3.0L2.5,-0.5"/>
                </g>
                <g id="arrowLeft" xlink:href="#dirArrow" transform="rotate(270) translate(-36 17)" onmousedown="handlePan(-1,0)">
                  <use xlink:href="#rim" fill="#404040">
                        <set attributeName="fill" to="#808080" begin="arrowLeft.mouseover" end="arrowLeft.mouseout"/>
                  </use>
                  <path fill="none" stroke="white" stroke-width="1.5" d="M0,-3.0v7 M-2.5,-0.5L0,-3.0L2.5,-0.5"/>
                </g>
        </g>
        <svg viewBox="0 0 15 15" width="100%" height="30px" preserveAspectRatio="xMaxYMin meet">
         <g id="arrow_out" transform="scale(0.3 0.3)">
          <a xlink:href="state_8cpp__incl_org.svg" target="_base">
           <rect id="button" ry="5" rx="5" y="6" x="6" height="38" width="38"
                fill="#f2f5e9" fill-opacity="0.5" stroke="#606060" stroke-width="1.0"/>
           <path id="arrow"
             d="M 11.500037,31.436501 C 11.940474,20.09759 22.043105,11.32322 32.158766,21.979434 L 37.068811,17.246167 C 37.068811,17.246167 37.088388,32 37.088388,32 L 22.160133,31.978069 C 22.160133,31.978069 26.997745,27.140456 26.997745,27.140456 C 18.528582,18.264221 13.291696,25.230495 11.500037,31.436501 z"
             style="fill:#404040;"/>
          </a>
         </g>
        </svg>
</svg>
