<?xml version="1.0" encoding="UTF-8" standalone="no"?>
<!DOCTYPE svg PUBLIC "-//W3C//DTD SVG 1.1//EN"
 "http://www.w3.org/Graphics/SVG/1.1/DTD/svg11.dtd">
<!-- Generated by graphviz version 2.38.0 (20140413.2041)
 -->
<!-- Title: ultrasonic.cpp Pages: 1 -->
<svg width="85pt" height="140pt"
 viewBox="0.00 0.00 85.00 140.00" xmlns="http://www.w3.org/2000/svg" xmlns:xlink="http://www.w3.org/1999/xlink">
<g id="graph0" class="graph" transform="scale(1 1) rotate(0) translate(4 136)">
<title>ultrasonic.cpp</title>
<polygon fill="white" stroke="none" points="-4,4 -4,-136 81,-136 81,4 -4,4"/>
<!-- Node0 -->
<g id="node1" class="node"><title>Node0</title>
<polygon fill="#bfbfbf" stroke="black" points="0,-112.5 0,-131.5 77,-131.5 77,-112.5 0,-112.5"/>
<text text-anchor="middle" x="38.5" y="-119.5" font-family="Helvetica,sans-Serif" font-size="10.00">ultrasonic.cpp</text>
</g>
<!-- Node1 -->
<g id="node2" class="node"><title>Node1</title>
<g id="a_node2"><a xlink:href="ultrasonic_8h.html" target="_top" xlink:title="ultrasonic.h">
<polygon fill="white" stroke="black" points="5,-56.5 5,-75.5 72,-75.5 72,-56.5 5,-56.5"/>
<text text-anchor="middle" x="38.5" y="-63.5" font-family="Helvetica,sans-Serif" font-size="10.00">ultrasonic.h</text>
</a>
</g>
</g>
<!-- Node0&#45;&gt;Node1 -->
<g id="edge1" class="edge"><title>Node0&#45;&gt;Node1</title>
<path fill="none" stroke="midnightblue" d="M38.5,-112.083C38.5,-105.006 38.5,-94.8611 38.5,-85.9865"/>
<polygon fill="midnightblue" stroke="midnightblue" points="42.0001,-85.751 38.5,-75.7511 35.0001,-85.7511 42.0001,-85.751"/>
</g>
<!-- Node2 -->
<g id="node3" class="node"><title>Node2</title>
<polygon fill="white" stroke="#bfbfbf" points="17.5,-0.5 17.5,-19.5 59.5,-19.5 59.5,-0.5 17.5,-0.5"/>
<text text-anchor="middle" x="38.5" y="-7.5" font-family="Helvetica,sans-Serif" font-size="10.00">vector</text>
</g>
<!-- Node1&#45;&gt;Node2 -->
<g id="edge2" class="edge"><title>Node1&#45;&gt;Node2</title>
<path fill="none" stroke="midnightblue" d="M38.5,-56.083C38.5,-49.0059 38.5,-38.8611 38.5,-29.9865"/>
<polygon fill="midnightblue" stroke="midnightblue" points="42.0001,-29.751 38.5,-19.7511 35.0001,-29.7511 42.0001,-29.751"/>
</g>
</g>
</svg>
