<?xml version="1.0" encoding="UTF-8" standalone="no"?>
<!DOCTYPE svg PUBLIC "-//W3C//DTD SVG 1.1//EN"
 "http://www.w3.org/Graphics/SVG/1.1/DTD/svg11.dtd">
<!-- Generated by graphviz version 2.38.0 (20140413.2041)
 -->
<!-- Title: ultrasonic.h Pages: 1 -->
<svg width="362pt" height="252pt"
 viewBox="0.00 0.00 361.50 252.00" xmlns="http://www.w3.org/2000/svg" xmlns:xlink="http://www.w3.org/1999/xlink">
<g id="graph0" class="graph" transform="scale(1 1) rotate(0) translate(4 248)">
<title>ultrasonic.h</title>
<polygon fill="white" stroke="none" points="-4,4 -4,-248 357.5,-248 357.5,4 -4,4"/>
<!-- Node2 -->
<g id="node1" class="node"><title>Node2</title>
<polygon fill="#bfbfbf" stroke="black" points="214.5,-224.5 214.5,-243.5 281.5,-243.5 281.5,-224.5 214.5,-224.5"/>
<text text-anchor="middle" x="248" y="-231.5" font-family="Helvetica,sans-Serif" font-size="10.00">ultrasonic.h</text>
</g>
<!-- Node3 -->
<g id="node2" class="node"><title>Node3</title>
<g id="a_node2"><a xlink:href="sensor_8h.html" target="_top" xlink:title="sensor.h">
<polygon fill="white" stroke="black" points="137,-168.5 137,-187.5 191,-187.5 191,-168.5 137,-168.5"/>
<text text-anchor="middle" x="164" y="-175.5" font-family="Helvetica,sans-Serif" font-size="10.00">sensor.h</text>
</a>
</g>
</g>
<!-- Node2&#45;&gt;Node3 -->
<g id="edge1" class="edge"><title>Node2&#45;&gt;Node3</title>
<path fill="none" stroke="midnightblue" d="M226.068,-218.901C210.665,-208.999 190.554,-196.071 177.463,-187.655"/>
<polygon fill="midnightblue" stroke="midnightblue" points="224.199,-221.86 234.504,-224.324 227.985,-215.972 224.199,-221.86"/>
</g>
<!-- Node9 -->
<g id="node8" class="node"><title>Node9</title>
<g id="a_node8"><a xlink:href="sensor_8cpp.html" target="_top" xlink:title="sensor.cpp">
<polygon fill="white" stroke="black" points="223.5,-112.5 223.5,-131.5 288.5,-131.5 288.5,-112.5 223.5,-112.5"/>
<text text-anchor="middle" x="256" y="-119.5" font-family="Helvetica,sans-Serif" font-size="10.00">sensor.cpp</text>
</a>
</g>
</g>
<!-- Node2&#45;&gt;Node9 -->
<g id="edge12" class="edge"><title>Node2&#45;&gt;Node9</title>
<path fill="none" stroke="midnightblue" d="M249.357,-214.348C251.109,-190.254 254.087,-149.308 255.375,-131.591"/>
<polygon fill="midnightblue" stroke="midnightblue" points="245.862,-214.141 248.628,-224.368 252.844,-214.649 245.862,-214.141"/>
</g>
<!-- Node10 -->
<g id="node9" class="node"><title>Node10</title>
<g id="a_node9"><a xlink:href="ultrasonic_8cpp.html" target="_top" xlink:title="ultrasonic.cpp">
<polygon fill="white" stroke="black" points="276.5,-168.5 276.5,-187.5 353.5,-187.5 353.5,-168.5 276.5,-168.5"/>
<text text-anchor="middle" x="315" y="-175.5" font-family="Helvetica,sans-Serif" font-size="10.00">ultrasonic.cpp</text>
</a>
</g>
</g>
<!-- Node2&#45;&gt;Node10 -->
<g id="edge13" class="edge"><title>Node2&#45;&gt;Node10</title>
<path fill="none" stroke="midnightblue" d="M266.835,-217.82C278.838,-208.145 293.972,-195.948 304.039,-187.834"/>
<polygon fill="midnightblue" stroke="midnightblue" points="264.354,-215.324 258.765,-224.324 268.747,-220.774 264.354,-215.324"/>
</g>
<!-- Node4 -->
<g id="node3" class="node"><title>Node4</title>
<g id="a_node3"><a xlink:href="init_8h.html" target="_top" xlink:title="init.h">
<polygon fill="white" stroke="black" points="82,-112.5 82,-131.5 120,-131.5 120,-112.5 82,-112.5"/>
<text text-anchor="middle" x="101" y="-119.5" font-family="Helvetica,sans-Serif" font-size="10.00">init.h</text>
</a>
</g>
</g>
<!-- Node3&#45;&gt;Node4 -->
<g id="edge2" class="edge"><title>Node3&#45;&gt;Node4</title>
<path fill="none" stroke="midnightblue" d="M145.96,-161.537C134.727,-151.909 120.681,-139.869 111.306,-131.834"/>
<polygon fill="midnightblue" stroke="midnightblue" points="144.008,-164.473 153.878,-168.324 148.563,-159.159 144.008,-164.473"/>
</g>
<!-- Node5 -->
<g id="node4" class="node"><title>Node5</title>
<g id="a_node4"><a xlink:href="init_8cpp.html" target="_top" xlink:title="init.cpp">
<polygon fill="white" stroke="black" points="119,-56.5 119,-75.5 167,-75.5 167,-56.5 119,-56.5"/>
<text text-anchor="middle" x="143" y="-63.5" font-family="Helvetica,sans-Serif" font-size="10.00">init.cpp</text>
</a>
</g>
</g>
<!-- Node3&#45;&gt;Node5 -->
<g id="edge8" class="edge"><title>Node3&#45;&gt;Node5</title>
<path fill="none" stroke="midnightblue" d="M160.439,-158.348C155.839,-134.254 148.022,-93.3079 144.64,-75.5914"/>
<polygon fill="midnightblue" stroke="midnightblue" points="157.039,-159.202 162.352,-168.368 163.915,-157.89 157.039,-159.202"/>
</g>
<!-- Node6 -->
<g id="node5" class="node"><title>Node6</title>
<g id="a_node5"><a xlink:href="state_8h.html" target="_top" xlink:title="state.h">
<polygon fill="white" stroke="black" points="15.5,-56.5 15.5,-75.5 62.5,-75.5 62.5,-56.5 15.5,-56.5"/>
<text text-anchor="middle" x="39" y="-63.5" font-family="Helvetica,sans-Serif" font-size="10.00">state.h</text>
</a>
</g>
</g>
<!-- Node3&#45;&gt;Node6 -->
<g id="edge9" class="edge"><title>Node3&#45;&gt;Node6</title>
<path fill="none" stroke="midnightblue" d="M127.34,-165.031C109.293,-157.714 88.2065,-146.865 73,-132 56.2434,-115.62 46.01,-89.2069 41.5791,-75.6455"/>
<polygon fill="midnightblue" stroke="midnightblue" points="126.406,-168.421 136.996,-168.735 128.913,-161.886 126.406,-168.421"/>
</g>
<!-- Node8 -->
<g id="node7" class="node"><title>Node8</title>
<g id="a_node7"><a xlink:href="state_8cpp.html" target="_top" xlink:title="state.cpp">
<polygon fill="white" stroke="black" points="74.5,-0.5 74.5,-19.5 131.5,-19.5 131.5,-0.5 74.5,-0.5"/>
<text text-anchor="middle" x="103" y="-7.5" font-family="Helvetica,sans-Serif" font-size="10.00">state.cpp</text>
</a>
</g>
</g>
<!-- Node3&#45;&gt;Node8 -->
<g id="edge11" class="edge"><title>Node3&#45;&gt;Node8</title>
<path fill="none" stroke="midnightblue" d="M171.825,-159.127C181.415,-134.299 194.278,-88.7398 176,-56 166.057,-38.1908 145.85,-26.5554 129.211,-19.5863"/>
<polygon fill="midnightblue" stroke="midnightblue" points="168.578,-157.82 168.016,-168.4 175.053,-160.48 168.578,-157.82"/>
</g>
<!-- Node3&#45;&gt;Node9 -->
<g id="edge10" class="edge"><title>Node3&#45;&gt;Node9</title>
<path fill="none" stroke="midnightblue" d="M187.55,-163.177C204.479,-153.241 226.783,-140.149 241.255,-131.655"/>
<polygon fill="midnightblue" stroke="midnightblue" points="185.634,-160.243 178.781,-168.324 189.177,-166.28 185.634,-160.243"/>
</g>
<!-- Node4&#45;&gt;Node5 -->
<g id="edge3" class="edge"><title>Node4&#45;&gt;Node5</title>
<path fill="none" stroke="midnightblue" d="M114.11,-104.144C121.428,-94.7357 130.241,-83.4046 136.194,-75.7511"/>
<polygon fill="midnightblue" stroke="midnightblue" points="111.312,-102.041 107.935,-112.083 116.838,-106.338 111.312,-102.041"/>
</g>
<!-- Node4&#45;&gt;Node6 -->
<g id="edge4" class="edge"><title>Node4&#45;&gt;Node6</title>
<path fill="none" stroke="midnightblue" d="M83.2464,-105.537C72.1915,-95.9087 58.3685,-83.8694 49.1426,-75.8339"/>
<polygon fill="midnightblue" stroke="midnightblue" points="81.199,-108.395 91.0386,-112.324 85.7965,-103.117 81.199,-108.395"/>
</g>
<!-- Node4&#45;&gt;Node8 -->
<g id="edge7" class="edge"><title>Node4&#45;&gt;Node8</title>
<path fill="none" stroke="midnightblue" d="M101.339,-102.348C101.777,-78.2538 102.522,-37.3079 102.844,-19.5914"/>
<polygon fill="midnightblue" stroke="midnightblue" points="97.8394,-102.306 101.157,-112.368 104.838,-102.434 97.8394,-102.306"/>
</g>
<!-- Node7 -->
<g id="node6" class="node"><title>Node7</title>
<g id="a_node6"><a xlink:href="main_8cpp.html" target="_top" xlink:title="main.cpp">
<polygon fill="white" stroke="black" points="0,-0.5 0,-19.5 56,-19.5 56,-0.5 0,-0.5"/>
<text text-anchor="middle" x="28" y="-7.5" font-family="Helvetica,sans-Serif" font-size="10.00">main.cpp</text>
</a>
</g>
</g>
<!-- Node6&#45;&gt;Node7 -->
<g id="edge5" class="edge"><title>Node6&#45;&gt;Node7</title>
<path fill="none" stroke="midnightblue" d="M35.1501,-46.1005C33.3239,-37.1357 31.2303,-26.8579 29.7826,-19.7511"/>
<polygon fill="midnightblue" stroke="midnightblue" points="31.7579,-46.9829 37.1836,-56.083 38.617,-45.5856 31.7579,-46.9829"/>
</g>
<!-- Node6&#45;&gt;Node8 -->
<g id="edge6" class="edge"><title>Node6&#45;&gt;Node8</title>
<path fill="none" stroke="midnightblue" d="M56.9915,-49.8197C68.4576,-40.1452 82.9133,-27.9481 92.5302,-19.8339"/>
<polygon fill="midnightblue" stroke="midnightblue" points="54.6686,-47.2002 49.2827,-56.324 59.1827,-52.5502 54.6686,-47.2002"/>
</g>
</g>
</svg>
