<?xml version="1.0" encoding="UTF-8" standalone="no"?>
<!DOCTYPE svg PUBLIC "-//W3C//DTD SVG 1.1//EN"
 "http://www.w3.org/Graphics/SVG/1.1/DTD/svg11.dtd">
<!-- Generated by graphviz version 2.38.0 (20140413.2041)
 -->
<!-- Title: RGB::is_white Pages: 1 -->
<svg width="584pt" height="116pt"
 viewBox="0.00 0.00 584.00 115.50" xmlns="http://www.w3.org/2000/svg" xmlns:xlink="http://www.w3.org/1999/xlink">
<g id="graph0" class="graph" transform="scale(1 1) rotate(0) translate(4 111.5)">
<title>RGB::is_white</title>
<polygon fill="white" stroke="none" points="-4,4 -4,-111.5 580,-111.5 580,4 -4,4"/>
<!-- Node21 -->
<g id="node1" class="node"><title>Node21</title>
<polygon fill="#bfbfbf" stroke="black" points="0,-50 0,-69 79,-69 79,-50 0,-50"/>
<text text-anchor="middle" x="39.5" y="-57" font-family="Helvetica,sans-Serif" font-size="10.00">RGB::is_white</text>
</g>
<!-- Node22 -->
<g id="node2" class="node"><title>Node22</title>
<g id="a_node2"><a xlink:href="$class_sensor.html#a32ebdbb3ba6fbe19739a10b17dc11cba" xlink:title="Sensor::both_black">
<polygon fill="white" stroke="black" points="123,-88 123,-107 224,-107 224,-88 123,-88"/>
<text text-anchor="middle" x="173.5" y="-95" font-family="Helvetica,sans-Serif" font-size="10.00">Sensor::both_black</text>
</a>
</g>
</g>
<!-- Node21&#45;&gt;Node22 -->
<g id="edge1" class="edge"><title>Node21&#45;&gt;Node22</title>
<path fill="none" stroke="midnightblue" d="M83.5409,-71.8906C101.618,-77.0945 122.319,-83.0541 139.201,-87.9141"/>
<polygon fill="midnightblue" stroke="midnightblue" points="84.3872,-68.4921 73.8092,-69.089 82.4506,-75.2189 84.3872,-68.4921"/>
</g>
<!-- Node23 -->
<g id="node3" class="node"><title>Node23</title>
<g id="a_node3"><a xlink:href="$class_sensor.html#add2279da6d407ed7678064ab1fe7d02d" xlink:title="Sensor::both_white">
<polygon fill="white" stroke="black" points="123.5,-50 123.5,-69 223.5,-69 223.5,-50 123.5,-50"/>
<text text-anchor="middle" x="173.5" y="-57" font-family="Helvetica,sans-Serif" font-size="10.00">Sensor::both_white</text>
</a>
</g>
</g>
<!-- Node21&#45;&gt;Node23 -->
<g id="edge2" class="edge"><title>Node21&#45;&gt;Node23</title>
<path fill="none" stroke="midnightblue" d="M89.0559,-59.5C100.232,-59.5 112.127,-59.5 123.329,-59.5"/>
<polygon fill="midnightblue" stroke="midnightblue" points="89.0347,-56.0001 79.0347,-59.5 89.0347,-63.0001 89.0347,-56.0001"/>
</g>
<!-- Node27 -->
<g id="node7" class="node"><title>Node27</title>
<g id="a_node7"><a xlink:href="$class_sensor.html#a03b8f6886c672badadfeef89d069e1ea" xlink:title="Sensor::IR_black_RGB\l_white">
<polygon fill="white" stroke="black" points="115,-0.5 115,-30.5 232,-30.5 232,-0.5 115,-0.5"/>
<text text-anchor="start" x="123" y="-18.5" font-family="Helvetica,sans-Serif" font-size="10.00">Sensor::IR_black_RGB</text>
<text text-anchor="middle" x="173.5" y="-7.5" font-family="Helvetica,sans-Serif" font-size="10.00">_white</text>
</a>
</g>
</g>
<!-- Node21&#45;&gt;Node27 -->
<g id="edge8" class="edge"><title>Node21&#45;&gt;Node27</title>
<path fill="none" stroke="midnightblue" d="M78.7308,-46.7564C93.9143,-41.6952 111.496,-35.8347 127.304,-30.5654"/>
<polygon fill="midnightblue" stroke="midnightblue" points="77.5221,-43.4699 69.142,-49.9527 79.7357,-50.1107 77.5221,-43.4699"/>
</g>
<!-- Node24 -->
<g id="node4" class="node"><title>Node24</title>
<g id="a_node4"><a xlink:href="$class_state.html#aed3bf8334ee32e0cccba11fc2dc42b68" xlink:title="State::clear">
<polygon fill="white" stroke="black" points="509,-66 509,-85 576,-85 576,-66 509,-66"/>
<text text-anchor="middle" x="542.5" y="-73" font-family="Helvetica,sans-Serif" font-size="10.00">State::clear</text>
</a>
</g>
</g>
<!-- Node23&#45;&gt;Node24 -->
<g id="edge3" class="edge"><title>Node23&#45;&gt;Node24</title>
<path fill="none" stroke="midnightblue" d="M234.06,-68.757C245.31,-70.2282 256.997,-71.5694 268,-72.5 354.589,-79.8236 457.142,-78.2097 508.588,-76.6938"/>
<polygon fill="midnightblue" stroke="midnightblue" points="234.263,-65.2526 223.884,-67.3773 233.323,-72.1891 234.263,-65.2526"/>
</g>
<!-- Node25 -->
<g id="node5" class="node"><title>Node25</title>
<g id="a_node5"><a xlink:href="$class_state.html#ae03eae00675106f8b6b9481c4b0e50dc" xlink:title="State::object_or_turn">
<polygon fill="white" stroke="black" points="366,-47 366,-66 473,-66 473,-47 366,-47"/>
<text text-anchor="middle" x="419.5" y="-54" font-family="Helvetica,sans-Serif" font-size="10.00">State::object_or_turn</text>
</a>
</g>
</g>
<!-- Node23&#45;&gt;Node25 -->
<g id="edge4" class="edge"><title>Node23&#45;&gt;Node25</title>
<path fill="none" stroke="midnightblue" d="M233.799,-58.7709C274.073,-58.2757 326.866,-57.6266 365.692,-57.1493"/>
<polygon fill="midnightblue" stroke="midnightblue" points="233.54,-55.2737 223.584,-58.8965 233.626,-62.2732 233.54,-55.2737"/>
</g>
<!-- Node26 -->
<g id="node6" class="node"><title>Node26</title>
<g id="a_node6"><a xlink:href="$class_state.html#ae5ed95e28512e11f7cc41c603ca58ad5" xlink:title="State::turn">
<polygon fill="white" stroke="black" points="268,-9 268,-28 330,-28 330,-9 268,-9"/>
<text text-anchor="middle" x="299" y="-16" font-family="Helvetica,sans-Serif" font-size="10.00">State::turn</text>
</a>
</g>
</g>
<!-- Node23&#45;&gt;Node26 -->
<g id="edge6" class="edge"><title>Node23&#45;&gt;Node26</title>
<path fill="none" stroke="midnightblue" d="M212.853,-46.7674C231.004,-40.7416 252.32,-33.665 269.084,-28.0997"/>
<polygon fill="midnightblue" stroke="midnightblue" points="211.532,-43.5182 203.144,-49.9907 213.737,-50.1616 211.532,-43.5182"/>
</g>
<!-- Node25&#45;&gt;Node24 -->
<g id="edge5" class="edge"><title>Node25&#45;&gt;Node24</title>
<path fill="none" stroke="midnightblue" d="M483.201,-66.3455C492.052,-67.7355 500.841,-69.1156 508.808,-70.3665"/>
<polygon fill="midnightblue" stroke="midnightblue" points="483.642,-62.8721 473.22,-64.7784 482.556,-69.7874 483.642,-62.8721"/>
</g>
<!-- Node26&#45;&gt;Node25 -->
<g id="edge7" class="edge"><title>Node26&#45;&gt;Node25</title>
<path fill="none" stroke="midnightblue" d="M339.543,-31.1804C355.554,-36.3148 373.732,-42.1441 388.607,-46.9141"/>
<polygon fill="midnightblue" stroke="midnightblue" points="340.494,-27.8098 329.903,-28.089 338.356,-34.4755 340.494,-27.8098"/>
</g>
<!-- Node27&#45;&gt;Node26 -->
<g id="edge9" class="edge"><title>Node27&#45;&gt;Node26</title>
<path fill="none" stroke="midnightblue" d="M242.373,-17.1487C251.29,-17.3654 260.036,-17.5778 267.855,-17.7677"/>
<polygon fill="midnightblue" stroke="midnightblue" points="242.355,-13.6474 232.272,-16.9034 242.184,-20.6453 242.355,-13.6474"/>
</g>
</g>
</svg>
