<?xml version="1.0" encoding="UTF-8" standalone="no"?>
<!DOCTYPE svg PUBLIC "-//W3C//DTD SVG 1.1//EN"
 "http://www.w3.org/Graphics/SVG/1.1/DTD/svg11.dtd">
<!-- Generated by graphviz version 2.38.0 (20140413.2041)
 -->
<!-- Title: State::clear Pages: 1 -->
<svg width="689pt" height="211pt"
 viewBox="0.00 0.00 689.00 211.00" xmlns="http://www.w3.org/2000/svg" xmlns:xlink="http://www.w3.org/1999/xlink">
<g id="graph0" class="graph" transform="scale(1 1) rotate(0) translate(4 207)">
<title>State::clear</title>
<polygon fill="white" stroke="none" points="-4,4 -4,-207 685,-207 685,4 -4,4"/>
<!-- Node6 -->
<g id="node1" class="node"><title>Node6</title>
<polygon fill="#bfbfbf" stroke="black" points="0,-123.5 0,-142.5 67,-142.5 67,-123.5 0,-123.5"/>
<text text-anchor="middle" x="33.5" y="-130.5" font-family="Helvetica,sans-Serif" font-size="10.00">State::clear</text>
</g>
<!-- Node7 -->
<g id="node2" class="node"><title>Node7</title>
<g id="a_node2"><a xlink:href="$class_sensor.html#add2279da6d407ed7678064ab1fe7d02d" xlink:title="Sensor::both_white">
<polygon fill="white" stroke="black" points="352.5,-57.5 352.5,-76.5 452.5,-76.5 452.5,-57.5 352.5,-57.5"/>
<text text-anchor="middle" x="402.5" y="-64.5" font-family="Helvetica,sans-Serif" font-size="10.00">Sensor::both_white</text>
</a>
</g>
</g>
<!-- Node6&#45;&gt;Node7 -->
<g id="edge1" class="edge"><title>Node6&#45;&gt;Node7</title>
<path fill="none" stroke="midnightblue" d="M67.2206,-123.8C78.5415,-120.649 91.3178,-117.131 103,-114 166.41,-97.0038 181.176,-87.375 246,-77 277.541,-71.9518 313.068,-69.433 342.194,-68.1843"/>
<polygon fill="midnightblue" stroke="midnightblue" points="342.356,-71.6808 352.212,-67.7935 342.083,-64.6861 342.356,-71.6808"/>
</g>
<!-- Node13 -->
<g id="node8" class="node"><title>Node13</title>
<g id="a_node8"><a xlink:href="$class_sensor.html#a4f797e3f6a549cfdefab639eb6a86787" xlink:title="Sensor::object_near">
<polygon fill="white" stroke="black" points="350.5,-183.5 350.5,-202.5 454.5,-202.5 454.5,-183.5 350.5,-183.5"/>
<text text-anchor="middle" x="402.5" y="-190.5" font-family="Helvetica,sans-Serif" font-size="10.00">Sensor::object_near</text>
</a>
</g>
</g>
<!-- Node6&#45;&gt;Node13 -->
<g id="edge8" class="edge"><title>Node6&#45;&gt;Node13</title>
<path fill="none" stroke="midnightblue" d="M66.7737,-142.504C78.171,-145.713 91.1093,-149.191 103,-152 166.028,-166.888 181.857,-171.067 246,-180 276.827,-184.293 311.304,-187.351 339.946,-189.418"/>
<polygon fill="midnightblue" stroke="midnightblue" points="339.997,-192.93 350.217,-190.135 340.485,-185.947 339.997,-192.93"/>
</g>
<!-- Node14 -->
<g id="node9" class="node"><title>Node14</title>
<g id="a_node9"><a xlink:href="$class_state.html#ae03eae00675106f8b6b9481c4b0e50dc" xlink:title="State::object_or_turn">
<polygon fill="white" stroke="black" points="103,-123.5 103,-142.5 210,-142.5 210,-123.5 103,-123.5"/>
<text text-anchor="middle" x="156.5" y="-130.5" font-family="Helvetica,sans-Serif" font-size="10.00">State::object_or_turn</text>
</a>
</g>
</g>
<!-- Node6&#45;&gt;Node14 -->
<g id="edge9" class="edge"><title>Node6&#45;&gt;Node14</title>
<path fill="none" stroke="midnightblue" d="M67.2443,-133C75.0919,-133 83.735,-133 92.4487,-133"/>
<polygon fill="midnightblue" stroke="midnightblue" points="92.6669,-136.5 102.667,-133 92.6669,-129.5 92.6669,-136.5"/>
</g>
<!-- Node8 -->
<g id="node3" class="node"><title>Node8</title>
<g id="a_node3"><a xlink:href="$class_i_r.html#a2f62691ee90ca2a9035c088029dab4bb" xlink:title="IR::is_black">
<polygon fill="white" stroke="black" points="503,-0.5 503,-19.5 571,-19.5 571,-0.5 503,-0.5"/>
<text text-anchor="middle" x="537" y="-7.5" font-family="Helvetica,sans-Serif" font-size="10.00">IR::is_black</text>
</a>
</g>
</g>
<!-- Node7&#45;&gt;Node8 -->
<g id="edge2" class="edge"><title>Node7&#45;&gt;Node8</title>
<path fill="none" stroke="midnightblue" d="M433.324,-57.4437C442.311,-54.346 452.138,-50.7383 461,-47 477.482,-40.0472 480.959,-36.9174 497,-29 500.204,-27.4187 503.559,-25.771 506.901,-24.1359"/>
<polygon fill="midnightblue" stroke="midnightblue" points="508.689,-27.1578 516.14,-19.6263 505.618,-20.8671 508.689,-27.1578"/>
</g>
<!-- Node10 -->
<g id="node5" class="node"><title>Node10</title>
<g id="a_node5"><a xlink:href="$class_r_g_b.html#a6d5013f3b077886a1a92fa2b16628d22" xlink:title="RGB::is_black">
<polygon fill="white" stroke="black" points="497,-76.5 497,-95.5 577,-95.5 577,-76.5 497,-76.5"/>
<text text-anchor="middle" x="537" y="-83.5" font-family="Helvetica,sans-Serif" font-size="10.00">RGB::is_black</text>
</a>
</g>
</g>
<!-- Node7&#45;&gt;Node10 -->
<g id="edge4" class="edge"><title>Node7&#45;&gt;Node10</title>
<path fill="none" stroke="midnightblue" d="M452.838,-74.0749C463.992,-75.6743 475.831,-77.372 486.972,-78.9696"/>
<polygon fill="midnightblue" stroke="midnightblue" points="486.572,-82.448 496.968,-80.4029 487.566,-75.5188 486.572,-82.448"/>
</g>
<!-- Node11 -->
<g id="node6" class="node"><title>Node11</title>
<g id="a_node6"><a xlink:href="$class_i_r.html#ae05cf1ad5888262586007946f21ac14e" xlink:title="IR::is_white">
<polygon fill="white" stroke="black" points="503.5,-114.5 503.5,-133.5 570.5,-133.5 570.5,-114.5 503.5,-114.5"/>
<text text-anchor="middle" x="537" y="-121.5" font-family="Helvetica,sans-Serif" font-size="10.00">IR::is_white</text>
</a>
</g>
</g>
<!-- Node7&#45;&gt;Node11 -->
<g id="edge5" class="edge"><title>Node7&#45;&gt;Node11</title>
<path fill="none" stroke="midnightblue" d="M435.486,-76.5219C443.89,-79.3071 452.874,-82.5416 461,-86 477.647,-93.0849 480.866,-96.8149 497,-105 500.186,-106.616 503.531,-108.286 506.866,-109.934"/>
<polygon fill="midnightblue" stroke="midnightblue" points="505.578,-113.201 516.098,-114.458 508.658,-106.915 505.578,-113.201"/>
</g>
<!-- Node12 -->
<g id="node7" class="node"><title>Node12</title>
<g id="a_node7"><a xlink:href="$class_r_g_b.html#aa8289d37cc58a81e02b857fb91bfca5c" xlink:title="RGB::is_white">
<polygon fill="white" stroke="black" points="497.5,-38.5 497.5,-57.5 576.5,-57.5 576.5,-38.5 497.5,-38.5"/>
<text text-anchor="middle" x="537" y="-45.5" font-family="Helvetica,sans-Serif" font-size="10.00">RGB::is_white</text>
</a>
</g>
</g>
<!-- Node7&#45;&gt;Node12 -->
<g id="edge7" class="edge"><title>Node7&#45;&gt;Node12</title>
<path fill="none" stroke="midnightblue" d="M452.838,-59.9251C464.105,-58.3095 476.071,-56.5937 487.31,-54.982"/>
<polygon fill="midnightblue" stroke="midnightblue" points="487.984,-58.4212 497.386,-53.5371 486.991,-51.492 487.984,-58.4212"/>
</g>
<!-- Node9 -->
<g id="node4" class="node"><title>Node9</title>
<g id="a_node4"><a xlink:href="$class_i_r.html#a388cfd7a959fa4a24d8e2bad1e9d95d5" xlink:title="IR::in_range">
<polygon fill="white" stroke="black" points="613,-57.5 613,-76.5 681,-76.5 681,-57.5 613,-57.5"/>
<text text-anchor="middle" x="647" y="-64.5" font-family="Helvetica,sans-Serif" font-size="10.00">IR::in_range</text>
</a>
</g>
</g>
<!-- Node8&#45;&gt;Node9 -->
<g id="edge3" class="edge"><title>Node8&#45;&gt;Node9</title>
<path fill="none" stroke="midnightblue" d="M558.338,-19.6702C564.376,-22.605 570.982,-25.8797 577,-29 591.459,-36.4974 607.398,-45.243 620.311,-52.4529"/>
<polygon fill="midnightblue" stroke="midnightblue" points="618.68,-55.5513 629.114,-57.3916 622.105,-49.4464 618.68,-55.5513"/>
</g>
<!-- Node11&#45;&gt;Node9 -->
<g id="edge6" class="edge"><title>Node11&#45;&gt;Node9</title>
<path fill="none" stroke="midnightblue" d="M558.338,-114.33C564.376,-111.395 570.982,-108.12 577,-105 591.459,-97.5026 607.398,-88.757 620.311,-81.5471"/>
<polygon fill="midnightblue" stroke="midnightblue" points="622.105,-84.5536 629.114,-76.6084 618.68,-78.4487 622.105,-84.5536"/>
</g>
<!-- Node14&#45;&gt;Node7 -->
<g id="edge10" class="edge"><title>Node14&#45;&gt;Node7</title>
<path fill="none" stroke="midnightblue" d="M176.366,-123.405C193.971,-114.815 221.178,-102.457 246,-95 277.137,-85.645 312.775,-78.9504 342.071,-74.4582"/>
<polygon fill="midnightblue" stroke="midnightblue" points="342.775,-77.8922 352.151,-72.9603 341.746,-70.9682 342.775,-77.8922"/>
</g>
<!-- Node14&#45;&gt;Node13 -->
<g id="edge12" class="edge"><title>Node14&#45;&gt;Node13</title>
<path fill="none" stroke="midnightblue" d="M189.754,-142.563C206.479,-147.407 227.274,-153.251 246,-158 279.136,-166.403 316.502,-174.846 346.299,-181.334"/>
<polygon fill="midnightblue" stroke="midnightblue" points="345.583,-184.76 356.097,-183.457 347.065,-177.919 345.583,-184.76"/>
</g>
<!-- Node15 -->
<g id="node10" class="node"><title>Node15</title>
<g id="a_node10"><a xlink:href="$class_state.html#a975afaa8e6091654888d7ed58b8c29c1" xlink:title="State::obstacle_avoid">
<polygon fill="white" stroke="black" points="347.5,-145.5 347.5,-164.5 457.5,-164.5 457.5,-145.5 347.5,-145.5"/>
<text text-anchor="middle" x="402.5" y="-152.5" font-family="Helvetica,sans-Serif" font-size="10.00">State::obstacle_avoid</text>
</a>
</g>
</g>
<!-- Node14&#45;&gt;Node15 -->
<g id="edge11" class="edge"><title>Node14&#45;&gt;Node15</title>
<path fill="none" stroke="midnightblue" d="M210.144,-137.747C247.39,-141.105 297.55,-145.627 337.17,-149.2"/>
<polygon fill="midnightblue" stroke="midnightblue" points="336.988,-152.697 347.262,-150.11 337.616,-145.726 336.988,-152.697"/>
</g>
<!-- Node16 -->
<g id="node11" class="node"><title>Node16</title>
<g id="a_node11"><a xlink:href="$class_state.html#ae5ed95e28512e11f7cc41c603ca58ad5" xlink:title="State::turn">
<polygon fill="white" stroke="black" points="246,-104.5 246,-123.5 308,-123.5 308,-104.5 246,-104.5"/>
<text text-anchor="middle" x="277" y="-111.5" font-family="Helvetica,sans-Serif" font-size="10.00">State::turn</text>
</a>
</g>
</g>
<!-- Node14&#45;&gt;Node16 -->
<g id="edge13" class="edge"><title>Node14&#45;&gt;Node16</title>
<path fill="none" stroke="midnightblue" d="M210.166,-124.556C218.771,-123.176 227.565,-121.766 235.807,-120.444"/>
<polygon fill="midnightblue" stroke="midnightblue" points="236.578,-123.866 245.898,-118.827 235.47,-116.954 236.578,-123.866"/>
</g>
<!-- Node16&#45;&gt;Node7 -->
<g id="edge14" class="edge"><title>Node16&#45;&gt;Node7</title>
<path fill="none" stroke="midnightblue" d="M299.222,-104.473C312.074,-98.8343 328.857,-91.7029 344,-86 349.547,-83.9111 355.439,-81.8207 361.255,-79.831"/>
<polygon fill="midnightblue" stroke="midnightblue" points="362.531,-83.0947 370.898,-76.5952 360.305,-76.4583 362.531,-83.0947"/>
</g>
<!-- Node16&#45;&gt;Node13 -->
<g id="edge15" class="edge"><title>Node16&#45;&gt;Node13</title>
<path fill="none" stroke="midnightblue" d="M286.412,-123.89C298.095,-137.052 320.464,-160.258 344,-174 347.626,-176.117 351.52,-178.036 355.51,-179.767"/>
<polygon fill="midnightblue" stroke="midnightblue" points="354.328,-183.063 364.915,-183.47 356.892,-176.55 354.328,-183.063"/>
</g>
<!-- Node16&#45;&gt;Node15 -->
<g id="edge16" class="edge"><title>Node16&#45;&gt;Node15</title>
<path fill="none" stroke="midnightblue" d="M306.644,-123.509C323.358,-129.058 344.666,-136.132 362.851,-142.169"/>
<polygon fill="midnightblue" stroke="midnightblue" points="361.99,-145.571 372.584,-145.4 364.196,-138.928 361.99,-145.571"/>
</g>
<!-- Node17 -->
<g id="node12" class="node"><title>Node17</title>
<g id="a_node12"><a xlink:href="$class_sensor.html#a03b8f6886c672badadfeef89d069e1ea" xlink:title="Sensor::IR_black_RGB\l_white">
<polygon fill="white" stroke="black" points="344,-8 344,-38 461,-38 461,-8 344,-8"/>
<text text-anchor="start" x="352" y="-26" font-family="Helvetica,sans-Serif" font-size="10.00">Sensor::IR_black_RGB</text>
<text text-anchor="middle" x="402.5" y="-15" font-family="Helvetica,sans-Serif" font-size="10.00">_white</text>
</a>
</g>
</g>
<!-- Node16&#45;&gt;Node17 -->
<g id="edge17" class="edge"><title>Node16&#45;&gt;Node17</title>
<path fill="none" stroke="midnightblue" d="M285.622,-104.343C297.055,-90.3762 319.89,-64.4157 344,-48 346.699,-46.1621 349.556,-44.4117 352.495,-42.7534"/>
<polygon fill="midnightblue" stroke="midnightblue" points="354.243,-45.7894 361.489,-38.0599 351.004,-39.5836 354.243,-45.7894"/>
</g>
<!-- Node18 -->
<g id="node13" class="node"><title>Node18</title>
<g id="a_node13"><a xlink:href="$class_sensor.html#aa75ec0ed5bd2782f726f7e01796b2285" xlink:title="Sensor::RGB_black_IR\l_white">
<polygon fill="white" stroke="black" points="344,-96 344,-126 461,-126 461,-96 344,-96"/>
<text text-anchor="start" x="352" y="-114" font-family="Helvetica,sans-Serif" font-size="10.00">Sensor::RGB_black_IR</text>
<text text-anchor="middle" x="402.5" y="-103" font-family="Helvetica,sans-Serif" font-size="10.00">_white</text>
</a>
</g>
</g>
<!-- Node16&#45;&gt;Node18 -->
<g id="edge20" class="edge"><title>Node16&#45;&gt;Node18</title>
<path fill="none" stroke="midnightblue" d="M308.211,-113.266C315.994,-113.077 324.69,-112.866 333.559,-112.65"/>
<polygon fill="midnightblue" stroke="midnightblue" points="333.693,-116.148 343.605,-112.406 333.523,-109.15 333.693,-116.148"/>
</g>
<!-- Node17&#45;&gt;Node8 -->
<g id="edge18" class="edge"><title>Node17&#45;&gt;Node8</title>
<path fill="none" stroke="midnightblue" d="M461.231,-17.3358C471.79,-16.2999 482.642,-15.2351 492.691,-14.2492"/>
<polygon fill="midnightblue" stroke="midnightblue" points="493.216,-17.7146 502.826,-13.2548 492.532,-10.748 493.216,-17.7146"/>
</g>
<!-- Node17&#45;&gt;Node12 -->
<g id="edge19" class="edge"><title>Node17&#45;&gt;Node12</title>
<path fill="none" stroke="midnightblue" d="M461.231,-33.8926C469.858,-35.5203 478.681,-37.185 487.101,-38.7738"/>
<polygon fill="midnightblue" stroke="midnightblue" points="486.657,-42.2517 497.133,-40.6665 487.955,-35.373 486.657,-42.2517"/>
</g>
<!-- Node18&#45;&gt;Node10 -->
<g id="edge22" class="edge"><title>Node18&#45;&gt;Node10</title>
<path fill="none" stroke="midnightblue" d="M461.231,-100.107C469.759,-98.4984 478.478,-96.8532 486.811,-95.281"/>
<polygon fill="midnightblue" stroke="midnightblue" points="487.567,-98.7002 496.744,-93.4067 486.269,-91.8216 487.567,-98.7002"/>
</g>
<!-- Node18&#45;&gt;Node11 -->
<g id="edge21" class="edge"><title>Node18&#45;&gt;Node11</title>
<path fill="none" stroke="midnightblue" d="M461.231,-116.664C471.893,-117.71 482.855,-118.786 492.986,-119.78"/>
<polygon fill="midnightblue" stroke="midnightblue" points="492.903,-123.288 503.197,-120.782 493.586,-116.322 492.903,-123.288"/>
</g>
</g>
</svg>
