<?xml version="1.0" encoding="UTF-8" standalone="no"?>
<!DOCTYPE svg PUBLIC "-//W3C//DTD SVG 1.1//EN"
 "http://www.w3.org/Graphics/SVG/1.1/DTD/svg11.dtd">
<!-- Generated by graphviz version 2.38.0 (20140413.2041)
 -->
<!-- Title: Servo::set_speed Pages: 1 -->
<svg width="243pt" height="142pt"
 viewBox="0.00 0.00 243.00 142.00" xmlns="http://www.w3.org/2000/svg" xmlns:xlink="http://www.w3.org/1999/xlink">
<g id="graph0" class="graph" transform="scale(1 1) rotate(0) translate(4 138)">
<title>Servo::set_speed</title>
<polygon fill="white" stroke="none" points="-4,4 -4,-138 239,-138 239,4 -4,4"/>
<!-- Node13 -->
<g id="node1" class="node"><title>Node13</title>
<polygon fill="#bfbfbf" stroke="black" points="0,-57.5 0,-76.5 92,-76.5 92,-57.5 0,-57.5"/>
<text text-anchor="middle" x="46" y="-64.5" font-family="Helvetica,sans-Serif" font-size="10.00">Servo::set_speed</text>
</g>
<!-- Node14 -->
<g id="node2" class="node"><title>Node14</title>
<g id="a_node2"><a xlink:href="$class_motion.html#af922ccbd27054420dd1ff679d48f588d" xlink:title="Motion::turn">
<polygon fill="white" stroke="black" points="147.5,-114.5 147.5,-133.5 215.5,-133.5 215.5,-114.5 147.5,-114.5"/>
<text text-anchor="middle" x="181.5" y="-121.5" font-family="Helvetica,sans-Serif" font-size="10.00">Motion::turn</text>
</a>
</g>
</g>
<!-- Node13&#45;&gt;Node14 -->
<g id="edge1" class="edge"><title>Node13&#45;&gt;Node14</title>
<path fill="none" stroke="midnightblue" d="M75.1243,-80.9682C90.5777,-88.4464 110.176,-97.6117 128,-105 135.88,-108.266 144.546,-111.532 152.527,-114.412"/>
<polygon fill="midnightblue" stroke="midnightblue" points="76.6129,-77.8002 66.0908,-76.561 73.5435,-84.0914 76.6129,-77.8002"/>
</g>
<!-- Node15 -->
<g id="node3" class="node"><title>Node15</title>
<g id="a_node3"><a xlink:href="$class_motion.html#a343e5cef901d8309b64735b3a0923728" xlink:title="Motion::drive">
<polygon fill="white" stroke="black" points="146,-76.5 146,-95.5 217,-95.5 217,-76.5 146,-76.5"/>
<text text-anchor="middle" x="181.5" y="-83.5" font-family="Helvetica,sans-Serif" font-size="10.00">Motion::drive</text>
</a>
</g>
</g>
<!-- Node13&#45;&gt;Node15 -->
<g id="edge2" class="edge"><title>Node13&#45;&gt;Node15</title>
<path fill="none" stroke="midnightblue" d="M102.266,-74.8656C117.043,-76.9686 132.594,-79.1819 145.903,-81.0761"/>
<polygon fill="midnightblue" stroke="midnightblue" points="102.59,-71.3766 92.197,-73.4325 101.604,-78.3067 102.59,-71.3766"/>
</g>
<!-- Node16 -->
<g id="node4" class="node"><title>Node16</title>
<g id="a_node4"><a xlink:href="$class_motion.html#a3bc12224ab575f75c71054d547ae0add" xlink:title="Motion::drive_reverse">
<polygon fill="white" stroke="black" points="128,-38.5 128,-57.5 235,-57.5 235,-38.5 128,-38.5"/>
<text text-anchor="middle" x="181.5" y="-45.5" font-family="Helvetica,sans-Serif" font-size="10.00">Motion::drive_reverse</text>
</a>
</g>
</g>
<!-- Node13&#45;&gt;Node16 -->
<g id="edge3" class="edge"><title>Node13&#45;&gt;Node16</title>
<path fill="none" stroke="midnightblue" d="M102.369,-59.1197C110.842,-57.9138 119.567,-56.672 127.977,-55.4752"/>
<polygon fill="midnightblue" stroke="midnightblue" points="101.604,-55.6933 92.197,-60.5675 102.59,-62.6234 101.604,-55.6933"/>
</g>
<!-- Node17 -->
<g id="node5" class="node"><title>Node17</title>
<g id="a_node5"><a xlink:href="$class_motion.html#a73524a9eb0bf44b4956622fcea759fd0" xlink:title="Motion::turn_reverse">
<polygon fill="white" stroke="black" points="129.5,-0.5 129.5,-19.5 233.5,-19.5 233.5,-0.5 129.5,-0.5"/>
<text text-anchor="middle" x="181.5" y="-7.5" font-family="Helvetica,sans-Serif" font-size="10.00">Motion::turn_reverse</text>
</a>
</g>
</g>
<!-- Node13&#45;&gt;Node17 -->
<g id="edge4" class="edge"><title>Node13&#45;&gt;Node17</title>
<path fill="none" stroke="midnightblue" d="M75.1243,-53.0318C90.5777,-45.5536 110.176,-36.3883 128,-29 135.88,-25.7338 144.546,-22.468 152.527,-19.5882"/>
<polygon fill="midnightblue" stroke="midnightblue" points="73.5435,-49.9086 66.0908,-57.439 76.6129,-56.1998 73.5435,-49.9086"/>
</g>
</g>
</svg>
