<?xml version="1.0" encoding="UTF-8" standalone="no"?>
<!DOCTYPE svg PUBLIC "-//W3C//DTD SVG 1.1//EN"
 "http://www.w3.org/Graphics/SVG/1.1/DTD/svg11.dtd">
<!-- Generated by graphviz version 2.38.0 (20140413.2041)
 -->
<!-- Title: Sensor::IR_black_RGB_white Pages: 1 -->
<svg width="344pt" height="66pt"
 viewBox="0.00 0.00 344.00 66.00" xmlns="http://www.w3.org/2000/svg" xmlns:xlink="http://www.w3.org/1999/xlink">
<g id="graph0" class="graph" transform="scale(1 1) rotate(0) translate(4 62)">
<title>Sensor::IR_black_RGB_white</title>
<polygon fill="white" stroke="none" points="-4,4 -4,-62 340,-62 340,4 -4,4"/>
<!-- Node34 -->
<g id="node1" class="node"><title>Node34</title>
<polygon fill="#bfbfbf" stroke="black" points="0,-14 0,-44 117,-44 117,-14 0,-14"/>
<text text-anchor="start" x="8" y="-32" font-family="Helvetica,sans-Serif" font-size="10.00">Sensor::IR_black_RGB</text>
<text text-anchor="middle" x="58.5" y="-21" font-family="Helvetica,sans-Serif" font-size="10.00">_white</text>
</g>
<!-- Node35 -->
<g id="node2" class="node"><title>Node35</title>
<g id="a_node2"><a xlink:href="$class_i_r.html#a2f62691ee90ca2a9035c088029dab4bb" xlink:title="IR::is_black">
<polygon fill="white" stroke="black" points="158.5,-38.5 158.5,-57.5 226.5,-57.5 226.5,-38.5 158.5,-38.5"/>
<text text-anchor="middle" x="192.5" y="-45.5" font-family="Helvetica,sans-Serif" font-size="10.00">IR::is_black</text>
</a>
</g>
</g>
<!-- Node34&#45;&gt;Node35 -->
<g id="edge1" class="edge"><title>Node34&#45;&gt;Node35</title>
<path fill="none" stroke="midnightblue" d="M117.013,-37.2784C127.532,-38.7925 138.344,-40.3487 148.355,-41.7897"/>
<polygon fill="midnightblue" stroke="midnightblue" points="148.055,-45.2825 158.452,-43.243 149.052,-38.3539 148.055,-45.2825"/>
</g>
<!-- Node37 -->
<g id="node4" class="node"><title>Node37</title>
<g id="a_node4"><a xlink:href="$class_r_g_b.html#aa8289d37cc58a81e02b857fb91bfca5c" xlink:title="RGB::is_white">
<polygon fill="white" stroke="black" points="153,-0.5 153,-19.5 232,-19.5 232,-0.5 153,-0.5"/>
<text text-anchor="middle" x="192.5" y="-7.5" font-family="Helvetica,sans-Serif" font-size="10.00">RGB::is_white</text>
</a>
</g>
</g>
<!-- Node34&#45;&gt;Node37 -->
<g id="edge3" class="edge"><title>Node34&#45;&gt;Node37</title>
<path fill="none" stroke="midnightblue" d="M117.013,-20.7216C125.607,-19.4845 134.397,-18.2194 142.786,-17.0119"/>
<polygon fill="midnightblue" stroke="midnightblue" points="143.38,-20.4625 152.779,-15.5734 142.383,-13.5339 143.38,-20.4625"/>
</g>
<!-- Node36 -->
<g id="node3" class="node"><title>Node36</title>
<g id="a_node3"><a xlink:href="$class_i_r.html#a388cfd7a959fa4a24d8e2bad1e9d95d5" xlink:title="IR::in_range">
<polygon fill="white" stroke="black" points="268,-38.5 268,-57.5 336,-57.5 336,-38.5 268,-38.5"/>
<text text-anchor="middle" x="302" y="-45.5" font-family="Helvetica,sans-Serif" font-size="10.00">IR::in_range</text>
</a>
</g>
</g>
<!-- Node35&#45;&gt;Node36 -->
<g id="edge2" class="edge"><title>Node35&#45;&gt;Node36</title>
<path fill="none" stroke="midnightblue" d="M226.631,-48C236.44,-48 247.328,-48 257.68,-48"/>
<polygon fill="midnightblue" stroke="midnightblue" points="257.794,-51.5001 267.794,-48 257.794,-44.5001 257.794,-51.5001"/>
</g>
</g>
</svg>
