<?xml version="1.0" encoding="UTF-8" standalone="no"?>
<!DOCTYPE svg PUBLIC "-//W3C//DTD SVG 1.1//EN"
 "http://www.w3.org/Graphics/SVG/1.1/DTD/svg11.dtd">
<!-- Generated by graphviz version 2.38.0 (20140413.2041)
 -->
<!-- Title: State::obstacle_avoid Pages: 1 -->
<svg width="462pt" height="47pt"
 viewBox="0.00 0.00 462.00 47.00" xmlns="http://www.w3.org/2000/svg" xmlns:xlink="http://www.w3.org/1999/xlink">
<g id="graph0" class="graph" transform="scale(1 1) rotate(0) translate(4 43)">
<title>State::obstacle_avoid</title>
<polygon fill="white" stroke="none" points="-4,4 -4,-43 458,-43 458,4 -4,4"/>
<!-- Node41 -->
<g id="node1" class="node"><title>Node41</title>
<polygon fill="#bfbfbf" stroke="black" points="0,-19.5 0,-38.5 110,-38.5 110,-19.5 0,-19.5"/>
<text text-anchor="middle" x="55" y="-26.5" font-family="Helvetica,sans-Serif" font-size="10.00">State::obstacle_avoid</text>
</g>
<!-- Node42 -->
<g id="node2" class="node"><title>Node42</title>
<g id="a_node2"><a xlink:href="$class_state.html#ae03eae00675106f8b6b9481c4b0e50dc" xlink:title="State::object_or_turn">
<polygon fill="white" stroke="black" points="244,-19.5 244,-38.5 351,-38.5 351,-19.5 244,-19.5"/>
<text text-anchor="middle" x="297.5" y="-26.5" font-family="Helvetica,sans-Serif" font-size="10.00">State::object_or_turn</text>
</a>
</g>
</g>
<!-- Node41&#45;&gt;Node42 -->
<g id="edge1" class="edge"><title>Node41&#45;&gt;Node42</title>
<path fill="none" stroke="midnightblue" d="M120.36,-29C158.925,-29 207.353,-29 243.665,-29"/>
<polygon fill="midnightblue" stroke="midnightblue" points="120.273,-25.5001 110.273,-29 120.273,-32.5001 120.273,-25.5001"/>
</g>
<!-- Node44 -->
<g id="node4" class="node"><title>Node44</title>
<g id="a_node4"><a xlink:href="$class_state.html#ae5ed95e28512e11f7cc41c603ca58ad5" xlink:title="State::turn">
<polygon fill="white" stroke="black" points="146,-0.5 146,-19.5 208,-19.5 208,-0.5 146,-0.5"/>
<text text-anchor="middle" x="177" y="-7.5" font-family="Helvetica,sans-Serif" font-size="10.00">State::turn</text>
</a>
</g>
</g>
<!-- Node41&#45;&gt;Node44 -->
<g id="edge3" class="edge"><title>Node41&#45;&gt;Node44</title>
<path fill="none" stroke="midnightblue" d="M120.169,-18.8399C129.139,-17.4197 137.984,-16.0192 145.897,-14.7663"/>
<polygon fill="midnightblue" stroke="midnightblue" points="119.362,-15.424 110.032,-20.4449 120.457,-22.3379 119.362,-15.424"/>
</g>
<!-- Node43 -->
<g id="node3" class="node"><title>Node43</title>
<g id="a_node3"><a xlink:href="$class_state.html#aed3bf8334ee32e0cccba11fc2dc42b68" xlink:title="State::clear">
<polygon fill="white" stroke="black" points="387,-19.5 387,-38.5 454,-38.5 454,-19.5 387,-19.5"/>
<text text-anchor="middle" x="420.5" y="-26.5" font-family="Helvetica,sans-Serif" font-size="10.00">State::clear</text>
</a>
</g>
</g>
<!-- Node42&#45;&gt;Node43 -->
<g id="edge2" class="edge"><title>Node42&#45;&gt;Node43</title>
<path fill="none" stroke="midnightblue" d="M361.486,-29C370.241,-29 378.927,-29 386.808,-29"/>
<polygon fill="midnightblue" stroke="midnightblue" points="361.22,-25.5001 351.22,-29 361.22,-32.5001 361.22,-25.5001"/>
</g>
<!-- Node44&#45;&gt;Node42 -->
<g id="edge4" class="edge"><title>Node44&#45;&gt;Node42</title>
<path fill="none" stroke="midnightblue" d="M218.259,-16.455C226.465,-17.7708 235.216,-19.1738 243.781,-20.5472"/>
<polygon fill="midnightblue" stroke="midnightblue" points="218.637,-12.971 208.209,-14.8437 217.529,-19.8828 218.637,-12.971"/>
</g>
</g>
</svg>
