<?xml version="1.0" encoding="UTF-8" standalone="no"?>
<!DOCTYPE svg PUBLIC "-//W3C//DTD SVG 1.1//EN"
 "http://www.w3.org/Graphics/SVG/1.1/DTD/svg11.dtd">
<!-- Generated by graphviz version 2.38.0 (20140413.2041)
 -->
<!-- Title: Sensor::RGB_black_IR_white Pages: 1 -->
<svg width="345pt" height="66pt"
 viewBox="0.00 0.00 345.00 66.00" xmlns="http://www.w3.org/2000/svg" xmlns:xlink="http://www.w3.org/1999/xlink">
<g id="graph0" class="graph" transform="scale(1 1) rotate(0) translate(4 62)">
<title>Sensor::RGB_black_IR_white</title>
<polygon fill="white" stroke="none" points="-4,4 -4,-62 341,-62 341,4 -4,4"/>
<!-- Node47 -->
<g id="node1" class="node"><title>Node47</title>
<polygon fill="#bfbfbf" stroke="black" points="0,-14 0,-44 117,-44 117,-14 0,-14"/>
<text text-anchor="start" x="8" y="-32" font-family="Helvetica,sans-Serif" font-size="10.00">Sensor::RGB_black_IR</text>
<text text-anchor="middle" x="58.5" y="-21" font-family="Helvetica,sans-Serif" font-size="10.00">_white</text>
</g>
<!-- Node48 -->
<g id="node2" class="node"><title>Node48</title>
<g id="a_node2"><a xlink:href="$class_i_r.html#ae05cf1ad5888262586007946f21ac14e" xlink:title="IR::is_white">
<polygon fill="white" stroke="black" points="159.5,-38.5 159.5,-57.5 226.5,-57.5 226.5,-38.5 159.5,-38.5"/>
<text text-anchor="middle" x="193" y="-45.5" font-family="Helvetica,sans-Serif" font-size="10.00">IR::is_white</text>
</a>
</g>
</g>
<!-- Node47&#45;&gt;Node48 -->
<g id="edge1" class="edge"><title>Node47&#45;&gt;Node48</title>
<path fill="none" stroke="midnightblue" d="M117.231,-37.2784C127.893,-38.8073 138.855,-40.3792 148.986,-41.832"/>
<polygon fill="midnightblue" stroke="midnightblue" points="148.801,-45.3412 159.197,-43.2961 149.795,-38.412 148.801,-45.3412"/>
</g>
<!-- Node50 -->
<g id="node4" class="node"><title>Node50</title>
<g id="a_node4"><a xlink:href="$class_r_g_b.html#a6d5013f3b077886a1a92fa2b16628d22" xlink:title="RGB::is_black">
<polygon fill="white" stroke="black" points="153,-0.5 153,-19.5 233,-19.5 233,-0.5 153,-0.5"/>
<text text-anchor="middle" x="193" y="-7.5" font-family="Helvetica,sans-Serif" font-size="10.00">RGB::is_black</text>
</a>
</g>
</g>
<!-- Node47&#45;&gt;Node50 -->
<g id="edge3" class="edge"><title>Node47&#45;&gt;Node50</title>
<path fill="none" stroke="midnightblue" d="M117.231,-20.7216C125.759,-19.4988 134.478,-18.2485 142.811,-17.0536"/>
<polygon fill="midnightblue" stroke="midnightblue" points="143.342,-20.5132 152.744,-15.6291 142.349,-13.5841 143.342,-20.5132"/>
</g>
<!-- Node49 -->
<g id="node3" class="node"><title>Node49</title>
<g id="a_node3"><a xlink:href="$class_i_r.html#a388cfd7a959fa4a24d8e2bad1e9d95d5" xlink:title="IR::in_range">
<polygon fill="white" stroke="black" points="269,-38.5 269,-57.5 337,-57.5 337,-38.5 269,-38.5"/>
<text text-anchor="middle" x="303" y="-45.5" font-family="Helvetica,sans-Serif" font-size="10.00">IR::in_range</text>
</a>
</g>
</g>
<!-- Node48&#45;&gt;Node49 -->
<g id="edge2" class="edge"><title>Node48&#45;&gt;Node49</title>
<path fill="none" stroke="midnightblue" d="M226.697,-48C236.661,-48 247.778,-48 258.346,-48"/>
<polygon fill="midnightblue" stroke="midnightblue" points="258.668,-51.5001 268.668,-48 258.668,-44.5001 258.668,-51.5001"/>
</g>
</g>
</svg>
