<?xml version="1.0" encoding="UTF-8" standalone="no"?>
<!DOCTYPE svg PUBLIC "-//W3C//DTD SVG 1.1//EN"
 "http://www.w3.org/Graphics/SVG/1.1/DTD/svg11.dtd">
<!-- Generated by graphviz version 2.38.0 (20140413.2041)
 -->
<!-- Title: State::turn Pages: 1 -->
<svg width="443pt" height="211pt"
 viewBox="0.00 0.00 443.00 211.00" xmlns="http://www.w3.org/2000/svg" xmlns:xlink="http://www.w3.org/1999/xlink">
<g id="graph0" class="graph" transform="scale(1 1) rotate(0) translate(4 207)">
<title>State::turn</title>
<polygon fill="white" stroke="none" points="-4,4 -4,-207 439,-207 439,4 -4,4"/>
<!-- Node45 -->
<g id="node1" class="node"><title>Node45</title>
<polygon fill="#bfbfbf" stroke="black" points="0,-82.5 0,-101.5 62,-101.5 62,-82.5 0,-82.5"/>
<text text-anchor="middle" x="31" y="-89.5" font-family="Helvetica,sans-Serif" font-size="10.00">State::turn</text>
</g>
<!-- Node46 -->
<g id="node2" class="node"><title>Node46</title>
<g id="a_node2"><a xlink:href="$class_sensor.html#add2279da6d407ed7678064ab1fe7d02d" xlink:title="Sensor::both_white">
<polygon fill="white" stroke="black" points="106.5,-126.5 106.5,-145.5 206.5,-145.5 206.5,-126.5 106.5,-126.5"/>
<text text-anchor="middle" x="156.5" y="-133.5" font-family="Helvetica,sans-Serif" font-size="10.00">Sensor::both_white</text>
</a>
</g>
</g>
<!-- Node45&#45;&gt;Node46 -->
<g id="edge1" class="edge"><title>Node45&#45;&gt;Node46</title>
<path fill="none" stroke="midnightblue" d="M56.3559,-101.512C68.7732,-106.288 84.1413,-112.088 98,-117 103.918,-119.097 110.204,-121.25 116.364,-123.318"/>
<polygon fill="midnightblue" stroke="midnightblue" points="115.276,-126.645 125.87,-126.479 117.485,-120.003 115.276,-126.645"/>
</g>
<!-- Node52 -->
<g id="node8" class="node"><title>Node52</title>
<g id="a_node8"><a xlink:href="$class_sensor.html#a4f797e3f6a549cfdefab639eb6a86787" xlink:title="Sensor::object_near">
<polygon fill="white" stroke="black" points="104.5,-38.5 104.5,-57.5 208.5,-57.5 208.5,-38.5 104.5,-38.5"/>
<text text-anchor="middle" x="156.5" y="-45.5" font-family="Helvetica,sans-Serif" font-size="10.00">Sensor::object_near</text>
</a>
</g>
</g>
<!-- Node45&#45;&gt;Node52 -->
<g id="edge8" class="edge"><title>Node45&#45;&gt;Node52</title>
<path fill="none" stroke="midnightblue" d="M57.9876,-82.4547C70.1293,-78.0195 84.7896,-72.6991 98,-68 104.49,-65.6915 111.402,-63.2622 118.101,-60.9232"/>
<polygon fill="midnightblue" stroke="midnightblue" points="119.395,-64.1787 127.688,-57.5855 117.093,-57.5678 119.395,-64.1787"/>
</g>
<!-- Node53 -->
<g id="node9" class="node"><title>Node53</title>
<g id="a_node9"><a xlink:href="$class_state.html#a975afaa8e6091654888d7ed58b8c29c1" xlink:title="State::obstacle_avoid">
<polygon fill="white" stroke="black" points="101.5,-0.5 101.5,-19.5 211.5,-19.5 211.5,-0.5 101.5,-0.5"/>
<text text-anchor="middle" x="156.5" y="-7.5" font-family="Helvetica,sans-Serif" font-size="10.00">State::obstacle_avoid</text>
</a>
</g>
</g>
<!-- Node45&#45;&gt;Node53 -->
<g id="edge9" class="edge"><title>Node45&#45;&gt;Node53</title>
<path fill="none" stroke="midnightblue" d="M39.9148,-82.06C51.3602,-68.3013 73.8253,-43.5122 98,-29 101.451,-26.9285 105.155,-25.0517 108.96,-23.3577"/>
<polygon fill="midnightblue" stroke="midnightblue" points="110.56,-26.487 118.539,-19.5164 107.955,-19.99 110.56,-26.487"/>
</g>
<!-- Node54 -->
<g id="node10" class="node"><title>Node54</title>
<g id="a_node10"><a xlink:href="$class_sensor.html#a03b8f6886c672badadfeef89d069e1ea" xlink:title="Sensor::IR_black_RGB\l_white">
<polygon fill="white" stroke="black" points="98,-165 98,-195 215,-195 215,-165 98,-165"/>
<text text-anchor="start" x="106" y="-183" font-family="Helvetica,sans-Serif" font-size="10.00">Sensor::IR_black_RGB</text>
<text text-anchor="middle" x="156.5" y="-172" font-family="Helvetica,sans-Serif" font-size="10.00">_white</text>
</a>
</g>
</g>
<!-- Node45&#45;&gt;Node54 -->
<g id="edge10" class="edge"><title>Node45&#45;&gt;Node54</title>
<path fill="none" stroke="midnightblue" d="M40.1056,-101.638C51.7776,-115.038 74.5103,-139.403 98,-155 100.766,-156.836 103.689,-158.59 106.692,-160.255"/>
<polygon fill="midnightblue" stroke="midnightblue" points="105.374,-163.512 115.867,-164.975 108.576,-157.288 105.374,-163.512"/>
</g>
<!-- Node55 -->
<g id="node11" class="node"><title>Node55</title>
<g id="a_node11"><a xlink:href="$class_sensor.html#aa75ec0ed5bd2782f726f7e01796b2285" xlink:title="Sensor::RGB_black_IR\l_white">
<polygon fill="white" stroke="black" points="98,-77 98,-107 215,-107 215,-77 98,-77"/>
<text text-anchor="start" x="106" y="-95" font-family="Helvetica,sans-Serif" font-size="10.00">Sensor::RGB_black_IR</text>
<text text-anchor="middle" x="156.5" y="-84" font-family="Helvetica,sans-Serif" font-size="10.00">_white</text>
</a>
</g>
</g>
<!-- Node45&#45;&gt;Node55 -->
<g id="edge13" class="edge"><title>Node45&#45;&gt;Node55</title>
<path fill="none" stroke="midnightblue" d="M62.2115,-92C69.9941,-92 78.6903,-92 87.5586,-92"/>
<polygon fill="midnightblue" stroke="midnightblue" points="87.6048,-95.5001 97.6048,-92 87.6048,-88.5001 87.6048,-95.5001"/>
</g>
<!-- Node47 -->
<g id="node3" class="node"><title>Node47</title>
<g id="a_node3"><a xlink:href="$class_i_r.html#a2f62691ee90ca2a9035c088029dab4bb" xlink:title="IR::is_black">
<polygon fill="white" stroke="black" points="257,-183.5 257,-202.5 325,-202.5 325,-183.5 257,-183.5"/>
<text text-anchor="middle" x="291" y="-190.5" font-family="Helvetica,sans-Serif" font-size="10.00">IR::is_black</text>
</a>
</g>
</g>
<!-- Node46&#45;&gt;Node47 -->
<g id="edge2" class="edge"><title>Node46&#45;&gt;Node47</title>
<path fill="none" stroke="midnightblue" d="M187.324,-145.556C196.311,-148.654 206.138,-152.262 215,-156 231.482,-162.953 234.959,-166.083 251,-174 254.204,-175.581 257.559,-177.229 260.901,-178.864"/>
<polygon fill="midnightblue" stroke="midnightblue" points="259.618,-182.133 270.14,-183.374 262.689,-175.842 259.618,-182.133"/>
</g>
<!-- Node49 -->
<g id="node5" class="node"><title>Node49</title>
<g id="a_node5"><a xlink:href="$class_r_g_b.html#a6d5013f3b077886a1a92fa2b16628d22" xlink:title="RGB::is_black">
<polygon fill="white" stroke="black" points="251,-69.5 251,-88.5 331,-88.5 331,-69.5 251,-69.5"/>
<text text-anchor="middle" x="291" y="-76.5" font-family="Helvetica,sans-Serif" font-size="10.00">RGB::is_black</text>
</a>
</g>
</g>
<!-- Node46&#45;&gt;Node49 -->
<g id="edge4" class="edge"><title>Node46&#45;&gt;Node49</title>
<path fill="none" stroke="midnightblue" d="M189.486,-126.478C197.89,-123.693 206.874,-120.458 215,-117 231.647,-109.915 234.866,-106.185 251,-98 254.186,-96.3836 257.531,-94.7138 260.866,-93.066"/>
<polygon fill="midnightblue" stroke="midnightblue" points="262.658,-96.0853 270.098,-88.5425 259.578,-89.7992 262.658,-96.0853"/>
</g>
<!-- Node50 -->
<g id="node6" class="node"><title>Node50</title>
<g id="a_node6"><a xlink:href="$class_i_r.html#ae05cf1ad5888262586007946f21ac14e" xlink:title="IR::is_white">
<polygon fill="white" stroke="black" points="257.5,-107.5 257.5,-126.5 324.5,-126.5 324.5,-107.5 257.5,-107.5"/>
<text text-anchor="middle" x="291" y="-114.5" font-family="Helvetica,sans-Serif" font-size="10.00">IR::is_white</text>
</a>
</g>
</g>
<!-- Node46&#45;&gt;Node50 -->
<g id="edge5" class="edge"><title>Node46&#45;&gt;Node50</title>
<path fill="none" stroke="midnightblue" d="M206.838,-128.925C220.075,-127.027 234.278,-124.99 247.133,-123.147"/>
<polygon fill="midnightblue" stroke="midnightblue" points="247.707,-126.601 257.109,-121.716 246.713,-119.671 247.707,-126.601"/>
</g>
<!-- Node51 -->
<g id="node7" class="node"><title>Node51</title>
<g id="a_node7"><a xlink:href="$class_r_g_b.html#aa8289d37cc58a81e02b857fb91bfca5c" xlink:title="RGB::is_white">
<polygon fill="white" stroke="black" points="251.5,-145.5 251.5,-164.5 330.5,-164.5 330.5,-145.5 251.5,-145.5"/>
<text text-anchor="middle" x="291" y="-152.5" font-family="Helvetica,sans-Serif" font-size="10.00">RGB::is_white</text>
</a>
</g>
</g>
<!-- Node46&#45;&gt;Node51 -->
<g id="edge7" class="edge"><title>Node46&#45;&gt;Node51</title>
<path fill="none" stroke="midnightblue" d="M206.838,-143.075C218.105,-144.69 230.071,-146.406 241.31,-148.018"/>
<polygon fill="midnightblue" stroke="midnightblue" points="240.991,-151.508 251.386,-149.463 241.984,-144.579 240.991,-151.508"/>
</g>
<!-- Node48 -->
<g id="node4" class="node"><title>Node48</title>
<g id="a_node4"><a xlink:href="$class_i_r.html#a388cfd7a959fa4a24d8e2bad1e9d95d5" xlink:title="IR::in_range">
<polygon fill="white" stroke="black" points="367,-145.5 367,-164.5 435,-164.5 435,-145.5 367,-145.5"/>
<text text-anchor="middle" x="401" y="-152.5" font-family="Helvetica,sans-Serif" font-size="10.00">IR::in_range</text>
</a>
</g>
</g>
<!-- Node47&#45;&gt;Node48 -->
<g id="edge3" class="edge"><title>Node47&#45;&gt;Node48</title>
<path fill="none" stroke="midnightblue" d="M319.253,-183.411C332.555,-178.731 348.754,-173.031 363.142,-167.968"/>
<polygon fill="midnightblue" stroke="midnightblue" points="364.484,-171.207 372.756,-164.586 362.161,-164.603 364.484,-171.207"/>
</g>
<!-- Node50&#45;&gt;Node48 -->
<g id="edge6" class="edge"><title>Node50&#45;&gt;Node48</title>
<path fill="none" stroke="midnightblue" d="M319.253,-126.589C332.555,-131.269 348.754,-136.969 363.142,-142.032"/>
<polygon fill="midnightblue" stroke="midnightblue" points="362.161,-145.397 372.756,-145.414 364.484,-138.793 362.161,-145.397"/>
</g>
<!-- Node54&#45;&gt;Node47 -->
<g id="edge11" class="edge"><title>Node54&#45;&gt;Node47</title>
<path fill="none" stroke="midnightblue" d="M215.231,-185.664C225.79,-186.7 236.642,-187.765 246.691,-188.751"/>
<polygon fill="midnightblue" stroke="midnightblue" points="246.532,-192.252 256.826,-189.745 247.216,-185.285 246.532,-192.252"/>
</g>
<!-- Node54&#45;&gt;Node51 -->
<g id="edge12" class="edge"><title>Node54&#45;&gt;Node51</title>
<path fill="none" stroke="midnightblue" d="M215.231,-169.107C223.858,-167.48 232.681,-165.815 241.101,-164.226"/>
<polygon fill="midnightblue" stroke="midnightblue" points="241.955,-167.627 251.133,-162.333 240.657,-160.748 241.955,-167.627"/>
</g>
<!-- Node55&#45;&gt;Node49 -->
<g id="edge15" class="edge"><title>Node55&#45;&gt;Node49</title>
<path fill="none" stroke="midnightblue" d="M215.231,-86.3358C223.665,-85.5083 232.286,-84.6625 240.536,-83.8531"/>
<polygon fill="midnightblue" stroke="midnightblue" points="241.134,-87.3113 250.744,-82.8515 240.45,-80.3448 241.134,-87.3113"/>
</g>
<!-- Node55&#45;&gt;Node50 -->
<g id="edge14" class="edge"><title>Node55&#45;&gt;Node50</title>
<path fill="none" stroke="midnightblue" d="M215.231,-102.893C226.006,-104.926 237.086,-107.016 247.306,-108.945"/>
<polygon fill="midnightblue" stroke="midnightblue" points="246.721,-112.396 257.197,-110.811 248.019,-105.517 246.721,-112.396"/>
</g>
</g>
</svg>
