<?xml version="1.0" encoding="UTF-8" standalone="no"?>
<!DOCTYPE svg PUBLIC "-//W3C//DTD SVG 1.1//EN"
 "http://www.w3.org/Graphics/SVG/1.1/DTD/svg11.dtd">
<!-- Generated by graphviz version 2.38.0 (20140413.2041)
 -->
<!-- Title: RGB::is_black Pages: 1 -->
<svg width="585pt" height="116pt"
 viewBox="0.00 0.00 585.00 115.50" xmlns="http://www.w3.org/2000/svg" xmlns:xlink="http://www.w3.org/1999/xlink">
<g id="graph0" class="graph" transform="scale(1 1) rotate(0) translate(4 111.5)">
<title>RGB::is_black</title>
<polygon fill="white" stroke="none" points="-4,4 -4,-111.5 581,-111.5 581,4 -4,4"/>
<!-- Node13 -->
<g id="node1" class="node"><title>Node13</title>
<polygon fill="#bfbfbf" stroke="black" points="0,-50 0,-69 80,-69 80,-50 0,-50"/>
<text text-anchor="middle" x="40" y="-57" font-family="Helvetica,sans-Serif" font-size="10.00">RGB::is_black</text>
</g>
<!-- Node14 -->
<g id="node2" class="node"><title>Node14</title>
<g id="a_node2"><a xlink:href="$class_sensor.html#a32ebdbb3ba6fbe19739a10b17dc11cba" xlink:title="Sensor::both_black">
<polygon fill="white" stroke="black" points="124,-88 124,-107 225,-107 225,-88 124,-88"/>
<text text-anchor="middle" x="174.5" y="-95" font-family="Helvetica,sans-Serif" font-size="10.00">Sensor::both_black</text>
</a>
</g>
</g>
<!-- Node13&#45;&gt;Node14 -->
<g id="edge1" class="edge"><title>Node13&#45;&gt;Node14</title>
<path fill="none" stroke="midnightblue" d="M84.2039,-71.8906C102.349,-77.0945 123.129,-83.0541 140.075,-87.9141"/>
<polygon fill="midnightblue" stroke="midnightblue" points="85.0127,-68.4815 74.4353,-69.089 83.0829,-75.2102 85.0127,-68.4815"/>
</g>
<!-- Node15 -->
<g id="node3" class="node"><title>Node15</title>
<g id="a_node3"><a xlink:href="$class_sensor.html#add2279da6d407ed7678064ab1fe7d02d" xlink:title="Sensor::both_white">
<polygon fill="white" stroke="black" points="124.5,-50 124.5,-69 224.5,-69 224.5,-50 124.5,-50"/>
<text text-anchor="middle" x="174.5" y="-57" font-family="Helvetica,sans-Serif" font-size="10.00">Sensor::both_white</text>
</a>
</g>
</g>
<!-- Node13&#45;&gt;Node15 -->
<g id="edge2" class="edge"><title>Node13&#45;&gt;Node15</title>
<path fill="none" stroke="midnightblue" d="M90.0846,-59.5C101.284,-59.5 113.185,-59.5 124.385,-59.5"/>
<polygon fill="midnightblue" stroke="midnightblue" points="90.0378,-56.0001 80.0377,-59.5 90.0377,-63.0001 90.0378,-56.0001"/>
</g>
<!-- Node19 -->
<g id="node7" class="node"><title>Node19</title>
<g id="a_node7"><a xlink:href="$class_sensor.html#aa75ec0ed5bd2782f726f7e01796b2285" xlink:title="Sensor::RGB_black_IR\l_white">
<polygon fill="white" stroke="black" points="116,-0.5 116,-30.5 233,-30.5 233,-0.5 116,-0.5"/>
<text text-anchor="start" x="124" y="-18.5" font-family="Helvetica,sans-Serif" font-size="10.00">Sensor::RGB_black_IR</text>
<text text-anchor="middle" x="174.5" y="-7.5" font-family="Helvetica,sans-Serif" font-size="10.00">_white</text>
</a>
</g>
</g>
<!-- Node13&#45;&gt;Node19 -->
<g id="edge8" class="edge"><title>Node13&#45;&gt;Node19</title>
<path fill="none" stroke="midnightblue" d="M79.3756,-46.7564C94.6166,-41.6952 112.265,-35.8347 128.133,-30.5654"/>
<polygon fill="midnightblue" stroke="midnightblue" points="78.1379,-43.4794 69.7505,-49.9527 80.344,-50.1227 78.1379,-43.4794"/>
</g>
<!-- Node16 -->
<g id="node4" class="node"><title>Node16</title>
<g id="a_node4"><a xlink:href="$class_state.html#aed3bf8334ee32e0cccba11fc2dc42b68" xlink:title="State::clear">
<polygon fill="white" stroke="black" points="510,-66 510,-85 577,-85 577,-66 510,-66"/>
<text text-anchor="middle" x="543.5" y="-73" font-family="Helvetica,sans-Serif" font-size="10.00">State::clear</text>
</a>
</g>
</g>
<!-- Node15&#45;&gt;Node16 -->
<g id="edge3" class="edge"><title>Node15&#45;&gt;Node16</title>
<path fill="none" stroke="midnightblue" d="M235.06,-68.757C246.31,-70.2282 257.997,-71.5694 269,-72.5 355.589,-79.8236 458.142,-78.2097 509.588,-76.6938"/>
<polygon fill="midnightblue" stroke="midnightblue" points="235.263,-65.2526 224.884,-67.3773 234.323,-72.1891 235.263,-65.2526"/>
</g>
<!-- Node17 -->
<g id="node5" class="node"><title>Node17</title>
<g id="a_node5"><a xlink:href="$class_state.html#ae03eae00675106f8b6b9481c4b0e50dc" xlink:title="State::object_or_turn">
<polygon fill="white" stroke="black" points="367,-47 367,-66 474,-66 474,-47 367,-47"/>
<text text-anchor="middle" x="420.5" y="-54" font-family="Helvetica,sans-Serif" font-size="10.00">State::object_or_turn</text>
</a>
</g>
</g>
<!-- Node15&#45;&gt;Node17 -->
<g id="edge4" class="edge"><title>Node15&#45;&gt;Node17</title>
<path fill="none" stroke="midnightblue" d="M234.799,-58.7709C275.073,-58.2757 327.866,-57.6266 366.692,-57.1493"/>
<polygon fill="midnightblue" stroke="midnightblue" points="234.54,-55.2737 224.584,-58.8965 234.626,-62.2732 234.54,-55.2737"/>
</g>
<!-- Node18 -->
<g id="node6" class="node"><title>Node18</title>
<g id="a_node6"><a xlink:href="$class_state.html#ae5ed95e28512e11f7cc41c603ca58ad5" xlink:title="State::turn">
<polygon fill="white" stroke="black" points="269,-9 269,-28 331,-28 331,-9 269,-9"/>
<text text-anchor="middle" x="300" y="-16" font-family="Helvetica,sans-Serif" font-size="10.00">State::turn</text>
</a>
</g>
</g>
<!-- Node15&#45;&gt;Node18 -->
<g id="edge6" class="edge"><title>Node15&#45;&gt;Node18</title>
<path fill="none" stroke="midnightblue" d="M213.853,-46.7674C232.004,-40.7416 253.32,-33.665 270.084,-28.0997"/>
<polygon fill="midnightblue" stroke="midnightblue" points="212.532,-43.5182 204.144,-49.9907 214.737,-50.1616 212.532,-43.5182"/>
</g>
<!-- Node17&#45;&gt;Node16 -->
<g id="edge5" class="edge"><title>Node17&#45;&gt;Node16</title>
<path fill="none" stroke="midnightblue" d="M484.201,-66.3455C493.052,-67.7355 501.841,-69.1156 509.808,-70.3665"/>
<polygon fill="midnightblue" stroke="midnightblue" points="484.642,-62.8721 474.22,-64.7784 483.556,-69.7874 484.642,-62.8721"/>
</g>
<!-- Node18&#45;&gt;Node17 -->
<g id="edge7" class="edge"><title>Node18&#45;&gt;Node17</title>
<path fill="none" stroke="midnightblue" d="M340.543,-31.1804C356.554,-36.3148 374.732,-42.1441 389.607,-46.9141"/>
<polygon fill="midnightblue" stroke="midnightblue" points="341.494,-27.8098 330.903,-28.089 339.356,-34.4755 341.494,-27.8098"/>
</g>
<!-- Node19&#45;&gt;Node18 -->
<g id="edge9" class="edge"><title>Node19&#45;&gt;Node18</title>
<path fill="none" stroke="midnightblue" d="M243.373,-17.1487C252.29,-17.3654 261.036,-17.5778 268.855,-17.7677"/>
<polygon fill="midnightblue" stroke="midnightblue" points="243.355,-13.6474 233.272,-16.9034 243.184,-20.6453 243.355,-13.6474"/>
</g>
</g>
</svg>
