<?xml version="1.0" encoding="UTF-8" standalone="no"?>
<!DOCTYPE svg PUBLIC "-//W3C//DTD SVG 1.1//EN"
 "http://www.w3.org/Graphics/SVG/1.1/DTD/svg11.dtd">
<!-- Generated by graphviz version 2.38.0 (20140413.2041)
 -->
<!-- Title: IR::set_ranges Pages: 1 -->
<svg width="374pt" height="47pt"
 viewBox="0.00 0.00 374.00 47.00" xmlns="http://www.w3.org/2000/svg" xmlns:xlink="http://www.w3.org/1999/xlink">
<g id="graph0" class="graph" transform="scale(1 1) rotate(0) translate(4 43)">
<title>IR::set_ranges</title>
<polygon fill="white" stroke="none" points="-4,4 -4,-43 370,-43 370,4 -4,4"/>
<!-- Node43 -->
<g id="node1" class="node"><title>Node43</title>
<polygon fill="#bfbfbf" stroke="black" points="0,-19.5 0,-38.5 80,-38.5 80,-19.5 0,-19.5"/>
<text text-anchor="middle" x="40" y="-26.5" font-family="Helvetica,sans-Serif" font-size="10.00">IR::set_ranges</text>
</g>
<!-- Node44 -->
<g id="node2" class="node"><title>Node44</title>
<g id="a_node2"><a xlink:href="$class_i_r.html#a2d60cbf66f48bad8167e2c4231ed3f95" xlink:title="IR::set_current_value">
<polygon fill="white" stroke="black" points="259,-19.5 259,-38.5 366,-38.5 366,-19.5 259,-19.5"/>
<text text-anchor="middle" x="312.5" y="-26.5" font-family="Helvetica,sans-Serif" font-size="10.00">IR::set_current_value</text>
</a>
</g>
</g>
<!-- Node43&#45;&gt;Node44 -->
<g id="edge1" class="edge"><title>Node43&#45;&gt;Node44</title>
<path fill="none" stroke="midnightblue" d="M80.0441,-29C124.211,-29 196.757,-29 248.863,-29"/>
<polygon fill="midnightblue" stroke="midnightblue" points="248.998,-32.5001 258.998,-29 248.998,-25.5001 248.998,-32.5001"/>
</g>
<!-- Node45 -->
<g id="node3" class="node"><title>Node45</title>
<g id="a_node3"><a xlink:href="$class_i_r.html#a5b71d10f57e8dbb76cdf01e043cfdda1" xlink:title="IR::get_current_value">
<polygon fill="white" stroke="black" points="116,-0.5 116,-19.5 223,-19.5 223,-0.5 116,-0.5"/>
<text text-anchor="middle" x="169.5" y="-7.5" font-family="Helvetica,sans-Serif" font-size="10.00">IR::get_current_value</text>
</a>
</g>
</g>
<!-- Node43&#45;&gt;Node45 -->
<g id="edge2" class="edge"><title>Node43&#45;&gt;Node45</title>
<path fill="none" stroke="midnightblue" d="M80.2946,-23.1443C88.3935,-21.9374 97.113,-20.6381 105.806,-19.3426"/>
<polygon fill="midnightblue" stroke="midnightblue" points="106.586,-22.7651 115.961,-17.8294 105.554,-15.8416 106.586,-22.7651"/>
</g>
<!-- Node45&#45;&gt;Node44 -->
<g id="edge3" class="edge"><title>Node45&#45;&gt;Node44</title>
<path fill="none" stroke="midnightblue" d="M223.003,-17.0749C231.445,-18.2124 240.255,-19.3996 248.905,-20.5652"/>
<polygon fill="midnightblue" stroke="midnightblue" points="248.575,-24.0523 258.953,-21.9192 249.51,-17.115 248.575,-24.0523"/>
</g>
</g>
</svg>
