<?xml version="1.0" encoding="UTF-8" standalone="no"?>
<!DOCTYPE svg PUBLIC "-//W3C//DTD SVG 1.1//EN"
 "http://www.w3.org/Graphics/SVG/1.1/DTD/svg11.dtd">
<!-- Generated by graphviz version 2.38.0 (20140413.2041)
 -->
<!-- Title: Log::currentDateTime Pages: 1 -->
<svg width="323pt" height="28pt"
 viewBox="0.00 0.00 323.00 28.00" xmlns="http://www.w3.org/2000/svg" xmlns:xlink="http://www.w3.org/1999/xlink">
<g id="graph0" class="graph" transform="scale(1 1) rotate(0) translate(4 24)">
<title>Log::currentDateTime</title>
<polygon fill="white" stroke="none" points="-4,4 -4,-24 319,-24 319,4 -4,4"/>
<!-- Node7 -->
<g id="node1" class="node"><title>Node7</title>
<polygon fill="#bfbfbf" stroke="black" points="0,-0.5 0,-19.5 110,-19.5 110,-0.5 0,-0.5"/>
<text text-anchor="middle" x="55" y="-7.5" font-family="Helvetica,sans-Serif" font-size="10.00">Log::currentDateTime</text>
</g>
<!-- Node8 -->
<g id="node2" class="node"><title>Node8</title>
<g id="a_node2"><a xlink:href="$class_log.html#aeb1d174708785f8f763895ad8e41d580" xlink:title="Log::write_line">
<polygon fill="white" stroke="black" points="146,-0.5 146,-19.5 225,-19.5 225,-0.5 146,-0.5"/>
<text text-anchor="middle" x="185.5" y="-7.5" font-family="Helvetica,sans-Serif" font-size="10.00">Log::write_line</text>
</a>
</g>
</g>
<!-- Node7&#45;&gt;Node8 -->
<g id="edge1" class="edge"><title>Node7&#45;&gt;Node8</title>
<path fill="none" stroke="midnightblue" d="M120.269,-10C128.943,-10 137.617,-10 145.658,-10"/>
<polygon fill="midnightblue" stroke="midnightblue" points="120.123,-6.5001 110.123,-10 120.123,-13.5001 120.123,-6.5001"/>
</g>
<!-- Node9 -->
<g id="node3" class="node"><title>Node9</title>
<g id="a_node3"><a xlink:href="$class_log.html#af6071a60aa52b6c1b511f99b4bc1b8fe" xlink:title="Log::Log">
<polygon fill="white" stroke="black" points="261,-0.5 261,-19.5 315,-19.5 315,-0.5 261,-0.5"/>
<text text-anchor="middle" x="288" y="-7.5" font-family="Helvetica,sans-Serif" font-size="10.00">Log::Log</text>
</a>
</g>
</g>
<!-- Node8&#45;&gt;Node9 -->
<g id="edge2" class="edge"><title>Node8&#45;&gt;Node9</title>
<path fill="none" stroke="midnightblue" d="M235.314,-10C244.119,-10 252.984,-10 260.824,-10"/>
<polygon fill="midnightblue" stroke="midnightblue" points="235.069,-6.5001 225.069,-10 235.068,-13.5001 235.069,-6.5001"/>
</g>
</g>
</svg>
