<?xml version="1.0" encoding="UTF-8" standalone="no"?>
<!DOCTYPE svg PUBLIC "-//W3C//DTD SVG 1.1//EN"
 "http://www.w3.org/Graphics/SVG/1.1/DTD/svg11.dtd">
<!-- Generated by graphviz version 2.38.0 (20140413.2041)
 -->
<!-- Title: init.h Pages: 1 -->
<svg width="179pt" height="140pt"
 viewBox="0.00 0.00 178.50 140.00" xmlns="http://www.w3.org/2000/svg" xmlns:xlink="http://www.w3.org/1999/xlink">
<g id="graph0" class="graph" transform="scale(1 1) rotate(0) translate(4 136)">
<title>init.h</title>
<polygon fill="white" stroke="none" points="-4,4 -4,-136 174.5,-136 174.5,4 -4,4"/>
<!-- Node9 -->
<g id="node1" class="node"><title>Node9</title>
<polygon fill="#bfbfbf" stroke="black" points="71,-112.5 71,-131.5 109,-131.5 109,-112.5 71,-112.5"/>
<text text-anchor="middle" x="90" y="-119.5" font-family="Helvetica,sans-Serif" font-size="10.00">init.h</text>
</g>
<!-- Node10 -->
<g id="node2" class="node"><title>Node10</title>
<g id="a_node2"><a xlink:href="$init_8cpp.html" xlink:title="init.cpp">
<polygon fill="white" stroke="black" points="0,-56.5 0,-75.5 48,-75.5 48,-56.5 0,-56.5"/>
<text text-anchor="middle" x="24" y="-63.5" font-family="Helvetica,sans-Serif" font-size="10.00">init.cpp</text>
</a>
</g>
</g>
<!-- Node9&#45;&gt;Node10 -->
<g id="edge1" class="edge"><title>Node9&#45;&gt;Node10</title>
<path fill="none" stroke="midnightblue" d="M71.4463,-105.82C59.6219,-96.1452 44.7144,-83.9481 34.797,-75.8339"/>
<polygon fill="midnightblue" stroke="midnightblue" points="69.44,-108.7 79.396,-112.324 73.8727,-103.283 69.44,-108.7"/>
</g>
<!-- Node11 -->
<g id="node3" class="node"><title>Node11</title>
<g id="a_node3"><a xlink:href="$state_8h.html" xlink:title="state.h">
<polygon fill="white" stroke="black" points="66.5,-56.5 66.5,-75.5 113.5,-75.5 113.5,-56.5 66.5,-56.5"/>
<text text-anchor="middle" x="90" y="-63.5" font-family="Helvetica,sans-Serif" font-size="10.00">state.h</text>
</a>
</g>
</g>
<!-- Node9&#45;&gt;Node11 -->
<g id="edge2" class="edge"><title>Node9&#45;&gt;Node11</title>
<path fill="none" stroke="midnightblue" d="M90,-101.805C90,-92.9102 90,-82.7798 90,-75.7511"/>
<polygon fill="midnightblue" stroke="midnightblue" points="86.5001,-102.083 90,-112.083 93.5001,-102.083 86.5001,-102.083"/>
</g>
<!-- Node13 -->
<g id="node5" class="node"><title>Node13</title>
<g id="a_node5"><a xlink:href="$state_8cpp.html" xlink:title="state.cpp">
<polygon fill="white" stroke="black" points="113.5,-0.5 113.5,-19.5 170.5,-19.5 170.5,-0.5 113.5,-0.5"/>
<text text-anchor="middle" x="142" y="-7.5" font-family="Helvetica,sans-Serif" font-size="10.00">state.cpp</text>
</a>
</g>
</g>
<!-- Node9&#45;&gt;Node13 -->
<g id="edge5" class="edge"><title>Node9&#45;&gt;Node13</title>
<path fill="none" stroke="midnightblue" d="M103.824,-104.299C110.045,-96.1525 117.079,-85.9753 122,-76 131.403,-56.941 137.471,-32.5487 140.245,-19.7456"/>
<polygon fill="midnightblue" stroke="midnightblue" points="101.001,-102.226 97.5318,-112.237 106.487,-106.575 101.001,-102.226"/>
</g>
<!-- Node12 -->
<g id="node4" class="node"><title>Node12</title>
<g id="a_node4"><a xlink:href="$main_8cpp.html" xlink:title="main.cpp">
<polygon fill="white" stroke="black" points="39,-0.5 39,-19.5 95,-19.5 95,-0.5 39,-0.5"/>
<text text-anchor="middle" x="67" y="-7.5" font-family="Helvetica,sans-Serif" font-size="10.00">main.cpp</text>
</a>
</g>
</g>
<!-- Node11&#45;&gt;Node12 -->
<g id="edge3" class="edge"><title>Node11&#45;&gt;Node12</title>
<path fill="none" stroke="midnightblue" d="M82.2012,-46.6897C78.325,-37.589 73.8208,-27.0141 70.7273,-19.7511"/>
<polygon fill="midnightblue" stroke="midnightblue" points="79.0633,-48.2543 86.202,-56.083 85.5034,-45.5112 79.0633,-48.2543"/>
</g>
<!-- Node11&#45;&gt;Node13 -->
<g id="edge4" class="edge"><title>Node11&#45;&gt;Node13</title>
<path fill="none" stroke="midnightblue" d="M105.679,-48.7175C114.845,-39.1997 126.053,-27.5608 133.573,-19.7511"/>
<polygon fill="midnightblue" stroke="midnightblue" points="103.002,-46.452 98.5867,-56.083 108.044,-51.3075 103.002,-46.452"/>
</g>
</g>
</svg>
