<?xml version="1.0" encoding="UTF-8" standalone="no"?>
<!DOCTYPE svg PUBLIC "-//W3C//DTD SVG 1.1//EN"
 "http://www.w3.org/Graphics/SVG/1.1/DTD/svg11.dtd">
<!-- Generated by graphviz version 2.38.0 (20140413.2041)
 -->
<!-- Title: main.cpp Pages: 1 -->
<svg width="515pt" height="308pt"
 viewBox="0.00 0.00 515.00 308.00" xmlns="http://www.w3.org/2000/svg" xmlns:xlink="http://www.w3.org/1999/xlink">
<g id="graph0" class="graph" transform="scale(1 1) rotate(0) translate(4 304)">
<title>main.cpp</title>
<polygon fill="white" stroke="none" points="-4,4 -4,-304 511,-304 511,4 -4,4"/>
<!-- Node0 -->
<g id="node1" class="node"><title>Node0</title>
<polygon fill="#bfbfbf" stroke="black" points="63,-280.5 63,-299.5 119,-299.5 119,-280.5 63,-280.5"/>
<text text-anchor="middle" x="91" y="-287.5" font-family="Helvetica,sans-Serif" font-size="10.00">main.cpp</text>
</g>
<!-- Node1 -->
<g id="node2" class="node"><title>Node1</title>
<polygon fill="white" stroke="#bfbfbf" points="0,-112.5 0,-131.5 46,-131.5 46,-112.5 0,-112.5"/>
<text text-anchor="middle" x="23" y="-119.5" font-family="Helvetica,sans-Serif" font-size="10.00">stdio.h</text>
</g>
<!-- Node0&#45;&gt;Node1 -->
<g id="edge1" class="edge"><title>Node0&#45;&gt;Node1</title>
<path fill="none" stroke="midnightblue" d="M87.344,-280.075C76.5939,-253.832 44.9342,-176.545 30.4212,-141.117"/>
<polygon fill="midnightblue" stroke="midnightblue" points="33.5394,-139.495 26.5098,-131.568 27.0618,-142.149 33.5394,-139.495"/>
</g>
<!-- Node2 -->
<g id="node3" class="node"><title>Node2</title>
<polygon fill="white" stroke="#bfbfbf" points="64,-112.5 64,-131.5 118,-131.5 118,-112.5 64,-112.5"/>
<text text-anchor="middle" x="91" y="-119.5" font-family="Helvetica,sans-Serif" font-size="10.00">iostream</text>
</g>
<!-- Node0&#45;&gt;Node2 -->
<g id="edge2" class="edge"><title>Node0&#45;&gt;Node2</title>
<path fill="none" stroke="midnightblue" d="M91,-280.075C91,-253.945 91,-177.211 91,-141.577"/>
<polygon fill="midnightblue" stroke="midnightblue" points="94.5001,-141.568 91,-131.568 87.5001,-141.568 94.5001,-141.568"/>
</g>
<!-- Node3 -->
<g id="node4" class="node"><title>Node3</title>
<g id="a_node4"><a xlink:href="$state_8h.html" xlink:title="state.h">
<polygon fill="white" stroke="black" points="287.5,-224.5 287.5,-243.5 334.5,-243.5 334.5,-224.5 287.5,-224.5"/>
<text text-anchor="middle" x="311" y="-231.5" font-family="Helvetica,sans-Serif" font-size="10.00">state.h</text>
</a>
</g>
</g>
<!-- Node0&#45;&gt;Node3 -->
<g id="edge3" class="edge"><title>Node0&#45;&gt;Node3</title>
<path fill="none" stroke="midnightblue" d="M119.311,-282.051C159.923,-272.083 234.568,-253.761 277.751,-243.161"/>
<polygon fill="midnightblue" stroke="midnightblue" points="278.62,-246.552 287.497,-240.769 276.951,-239.754 278.62,-246.552"/>
</g>
<!-- Node4 -->
<g id="node5" class="node"><title>Node4</title>
<g id="a_node5"><a xlink:href="$init_8h.html" xlink:title="init.h">
<polygon fill="white" stroke="black" points="339,-168.5 339,-187.5 377,-187.5 377,-168.5 339,-168.5"/>
<text text-anchor="middle" x="358" y="-175.5" font-family="Helvetica,sans-Serif" font-size="10.00">init.h</text>
</a>
</g>
</g>
<!-- Node3&#45;&gt;Node4 -->
<g id="edge4" class="edge"><title>Node3&#45;&gt;Node4</title>
<path fill="none" stroke="midnightblue" d="M318.761,-224.083C325.537,-216.298 335.543,-204.801 343.755,-195.367"/>
<polygon fill="midnightblue" stroke="midnightblue" points="346.458,-197.592 350.383,-187.751 341.178,-192.996 346.458,-197.592"/>
</g>
<!-- Node5 -->
<g id="node6" class="node"><title>Node5</title>
<g id="a_node6"><a xlink:href="$sensor_8h.html" xlink:title="sensor.h">
<polygon fill="white" stroke="black" points="325,-112.5 325,-131.5 379,-131.5 379,-112.5 325,-112.5"/>
<text text-anchor="middle" x="352" y="-119.5" font-family="Helvetica,sans-Serif" font-size="10.00">sensor.h</text>
</a>
</g>
</g>
<!-- Node3&#45;&gt;Node5 -->
<g id="edge17" class="edge"><title>Node3&#45;&gt;Node5</title>
<path fill="none" stroke="midnightblue" d="M313.008,-224.433C316.068,-211.852 322.356,-187.734 330,-168 333.573,-158.776 338.314,-148.864 342.48,-140.698"/>
<polygon fill="midnightblue" stroke="midnightblue" points="345.62,-142.247 347.159,-131.765 339.419,-138.999 345.62,-142.247"/>
</g>
<!-- Node10 -->
<g id="node11" class="node"><title>Node10</title>
<g id="a_node11"><a xlink:href="$motion_8h.html" xlink:title="motion.h">
<polygon fill="white" stroke="black" points="397,-112.5 397,-131.5 451,-131.5 451,-112.5 397,-112.5"/>
<text text-anchor="middle" x="424" y="-119.5" font-family="Helvetica,sans-Serif" font-size="10.00">motion.h</text>
</a>
</g>
</g>
<!-- Node3&#45;&gt;Node10 -->
<g id="edge16" class="edge"><title>Node3&#45;&gt;Node10</title>
<path fill="none" stroke="midnightblue" d="M331.017,-224.42C347.296,-216.694 370.093,-204.089 386,-188 399.329,-174.519 409.752,-155.45 416.283,-141.452"/>
<polygon fill="midnightblue" stroke="midnightblue" points="419.658,-142.474 420.503,-131.913 413.257,-139.642 419.658,-142.474"/>
</g>
<!-- Node13 -->
<g id="node14" class="node"><title>Node13</title>
<g id="a_node14"><a xlink:href="$log_8h.html" xlink:title="log.h">
<polygon fill="white" stroke="black" points="174,-168.5 174,-187.5 212,-187.5 212,-168.5 174,-168.5"/>
<text text-anchor="middle" x="193" y="-175.5" font-family="Helvetica,sans-Serif" font-size="10.00">log.h</text>
</a>
</g>
</g>
<!-- Node3&#45;&gt;Node13 -->
<g id="edge18" class="edge"><title>Node3&#45;&gt;Node13</title>
<path fill="none" stroke="midnightblue" d="M292.303,-224.444C273.056,-215.636 242.848,-201.812 220.8,-191.722"/>
<polygon fill="midnightblue" stroke="midnightblue" points="222.16,-188.495 211.61,-187.516 219.247,-194.86 222.16,-188.495"/>
</g>
<!-- Node4&#45;&gt;Node5 -->
<g id="edge5" class="edge"><title>Node4&#45;&gt;Node5</title>
<path fill="none" stroke="midnightblue" d="M357.009,-168.083C356.214,-160.927 355.071,-150.635 354.077,-141.691"/>
<polygon fill="midnightblue" stroke="midnightblue" points="357.555,-141.303 352.972,-131.751 350.598,-142.076 357.555,-141.303"/>
</g>
<!-- Node4&#45;&gt;Node10 -->
<g id="edge12" class="edge"><title>Node4&#45;&gt;Node10</title>
<path fill="none" stroke="midnightblue" d="M368.604,-168.324C378.456,-160.263 393.351,-148.077 405.215,-138.369"/>
<polygon fill="midnightblue" stroke="midnightblue" points="407.68,-140.875 413.203,-131.834 403.247,-135.457 407.68,-140.875"/>
</g>
<!-- Node6 -->
<g id="node7" class="node"><title>Node6</title>
<g id="a_node7"><a xlink:href="$_i_r_8h.html" xlink:title="IR.h">
<polygon fill="white" stroke="black" points="362,-56.5 362,-75.5 396,-75.5 396,-56.5 362,-56.5"/>
<text text-anchor="middle" x="379" y="-63.5" font-family="Helvetica,sans-Serif" font-size="10.00">IR.h</text>
</a>
</g>
</g>
<!-- Node5&#45;&gt;Node6 -->
<g id="edge6" class="edge"><title>Node5&#45;&gt;Node6</title>
<path fill="none" stroke="midnightblue" d="M356.459,-112.083C360.154,-104.691 365.523,-93.9533 370.094,-84.8111"/>
<polygon fill="midnightblue" stroke="midnightblue" points="373.283,-86.2606 374.624,-75.7511 367.022,-83.1301 373.283,-86.2606"/>
</g>
<!-- Node8 -->
<g id="node9" class="node"><title>Node8</title>
<g id="a_node9"><a xlink:href="$_r_g_b_8h.html" xlink:title="RGB.h">
<polygon fill="white" stroke="black" points="212,-56.5 212,-75.5 258,-75.5 258,-56.5 212,-56.5"/>
<text text-anchor="middle" x="235" y="-63.5" font-family="Helvetica,sans-Serif" font-size="10.00">RGB.h</text>
</a>
</g>
</g>
<!-- Node5&#45;&gt;Node8 -->
<g id="edge8" class="edge"><title>Node5&#45;&gt;Node8</title>
<path fill="none" stroke="midnightblue" d="M333.461,-112.444C314.377,-103.636 284.425,-89.8116 262.564,-79.722"/>
<polygon fill="midnightblue" stroke="midnightblue" points="263.999,-76.5292 253.452,-75.5164 261.065,-82.8849 263.999,-76.5292"/>
</g>
<!-- Node9 -->
<g id="node10" class="node"><title>Node9</title>
<g id="a_node10"><a xlink:href="$ultrasonic_8h.html" xlink:title="ultrasonic.h">
<polygon fill="white" stroke="black" points="276.5,-56.5 276.5,-75.5 343.5,-75.5 343.5,-56.5 276.5,-56.5"/>
<text text-anchor="middle" x="310" y="-63.5" font-family="Helvetica,sans-Serif" font-size="10.00">ultrasonic.h</text>
</a>
</g>
</g>
<!-- Node5&#45;&gt;Node9 -->
<g id="edge10" class="edge"><title>Node5&#45;&gt;Node9</title>
<path fill="none" stroke="midnightblue" d="M345.065,-112.083C339.071,-104.377 330.248,-93.0333 322.952,-83.6531"/>
<polygon fill="midnightblue" stroke="midnightblue" points="325.709,-81.4958 316.806,-75.7511 320.183,-85.7934 325.709,-81.4958"/>
</g>
<!-- Node7 -->
<g id="node8" class="node"><title>Node7</title>
<polygon fill="white" stroke="#bfbfbf" points="323,-0.5 323,-19.5 365,-19.5 365,-0.5 323,-0.5"/>
<text text-anchor="middle" x="344" y="-7.5" font-family="Helvetica,sans-Serif" font-size="10.00">vector</text>
</g>
<!-- Node6&#45;&gt;Node7 -->
<g id="edge7" class="edge"><title>Node6&#45;&gt;Node7</title>
<path fill="none" stroke="midnightblue" d="M373.22,-56.083C368.328,-48.5341 361.173,-37.4948 355.167,-28.2298"/>
<polygon fill="midnightblue" stroke="midnightblue" points="358.048,-26.239 349.672,-19.7511 352.174,-30.0463 358.048,-26.239"/>
</g>
<!-- Node8&#45;&gt;Node7 -->
<g id="edge9" class="edge"><title>Node8&#45;&gt;Node7</title>
<path fill="none" stroke="midnightblue" d="M252.513,-56.324C270.072,-47.6247 297.331,-34.1202 317.531,-24.113"/>
<polygon fill="midnightblue" stroke="midnightblue" points="319.124,-27.23 326.531,-19.6545 316.016,-20.9575 319.124,-27.23"/>
</g>
<!-- Node9&#45;&gt;Node7 -->
<g id="edge11" class="edge"><title>Node9&#45;&gt;Node7</title>
<path fill="none" stroke="midnightblue" d="M315.614,-56.083C320.367,-48.5341 327.318,-37.4948 333.152,-28.2298"/>
<polygon fill="midnightblue" stroke="midnightblue" points="336.124,-30.0783 338.49,-19.7511 330.2,-26.3486 336.124,-30.0783"/>
</g>
<!-- Node10&#45;&gt;Node7 -->
<g id="edge13" class="edge"><title>Node10&#45;&gt;Node7</title>
<path fill="none" stroke="midnightblue" d="M423.227,-112.243C421.688,-98.994 417.254,-73.541 405,-56 396.051,-43.1907 382.281,-32.5832 370.088,-24.8906"/>
<polygon fill="midnightblue" stroke="midnightblue" points="371.559,-21.6938 361.176,-19.5881 367.98,-27.7094 371.559,-21.6938"/>
</g>
<!-- Node11 -->
<g id="node12" class="node"><title>Node11</title>
<g id="a_node12"><a xlink:href="$servo_8h.html" xlink:title="servo.h">
<polygon fill="white" stroke="black" points="452.5,-56.5 452.5,-75.5 499.5,-75.5 499.5,-56.5 452.5,-56.5"/>
<text text-anchor="middle" x="476" y="-63.5" font-family="Helvetica,sans-Serif" font-size="10.00">servo.h</text>
</a>
</g>
</g>
<!-- Node10&#45;&gt;Node11 -->
<g id="edge14" class="edge"><title>Node10&#45;&gt;Node11</title>
<path fill="none" stroke="midnightblue" d="M432.587,-112.083C440.159,-104.22 451.378,-92.5688 460.514,-83.0813"/>
<polygon fill="midnightblue" stroke="midnightblue" points="463.158,-85.3821 467.573,-75.7511 458.115,-80.5266 463.158,-85.3821"/>
</g>
<!-- Node12 -->
<g id="node13" class="node"><title>Node12</title>
<g id="a_node13"><a xlink:href="$_brick_pi3_8h.html" xlink:title="BrickPi3.h">
<polygon fill="white" stroke="black" points="445,-0.5 445,-19.5 507,-19.5 507,-0.5 445,-0.5"/>
<text text-anchor="middle" x="476" y="-7.5" font-family="Helvetica,sans-Serif" font-size="10.00">BrickPi3.h</text>
</a>
</g>
</g>
<!-- Node11&#45;&gt;Node12 -->
<g id="edge15" class="edge"><title>Node11&#45;&gt;Node12</title>
<path fill="none" stroke="midnightblue" d="M476,-56.083C476,-49.0059 476,-38.8611 476,-29.9865"/>
<polygon fill="midnightblue" stroke="midnightblue" points="479.5,-29.751 476,-19.7511 472.5,-29.7511 479.5,-29.751"/>
</g>
<!-- Node13&#45;&gt;Node1 -->
<g id="edge22" class="edge"><title>Node13&#45;&gt;Node1</title>
<path fill="none" stroke="midnightblue" d="M173.829,-170.91C145.219,-161.823 90.9719,-144.591 55.9304,-133.46"/>
<polygon fill="midnightblue" stroke="midnightblue" points="56.7482,-130.048 46.1579,-130.356 54.629,-136.719 56.7482,-130.048"/>
</g>
<!-- Node13&#45;&gt;Node2 -->
<g id="edge19" class="edge"><title>Node13&#45;&gt;Node2</title>
<path fill="none" stroke="midnightblue" d="M176.612,-168.324C160.329,-159.703 135.133,-146.364 116.284,-136.386"/>
<polygon fill="midnightblue" stroke="midnightblue" points="117.823,-133.24 107.347,-131.655 114.548,-139.427 117.823,-133.24"/>
</g>
<!-- Node14 -->
<g id="node15" class="node"><title>Node14</title>
<polygon fill="white" stroke="#bfbfbf" points="136.5,-112.5 136.5,-131.5 185.5,-131.5 185.5,-112.5 136.5,-112.5"/>
<text text-anchor="middle" x="161" y="-119.5" font-family="Helvetica,sans-Serif" font-size="10.00">fstream</text>
</g>
<!-- Node13&#45;&gt;Node14 -->
<g id="edge20" class="edge"><title>Node13&#45;&gt;Node14</title>
<path fill="none" stroke="midnightblue" d="M187.716,-168.083C183.289,-160.613 176.837,-149.724 171.382,-140.52"/>
<polygon fill="midnightblue" stroke="midnightblue" points="174.295,-138.57 166.186,-131.751 168.273,-142.138 174.295,-138.57"/>
</g>
<!-- Node15 -->
<g id="node16" class="node"><title>Node15</title>
<polygon fill="white" stroke="#bfbfbf" points="203.5,-112.5 203.5,-131.5 244.5,-131.5 244.5,-112.5 203.5,-112.5"/>
<text text-anchor="middle" x="224" y="-119.5" font-family="Helvetica,sans-Serif" font-size="10.00">string</text>
</g>
<!-- Node13&#45;&gt;Node15 -->
<g id="edge21" class="edge"><title>Node13&#45;&gt;Node15</title>
<path fill="none" stroke="midnightblue" d="M198.119,-168.083C202.408,-160.613 208.658,-149.724 213.942,-140.52"/>
<polygon fill="midnightblue" stroke="midnightblue" points="217.033,-142.166 218.976,-131.751 210.962,-138.681 217.033,-142.166"/>
</g>
<!-- Node16 -->
<g id="node17" class="node"><title>Node16</title>
<polygon fill="white" stroke="#bfbfbf" points="263,-112.5 263,-131.5 307,-131.5 307,-112.5 263,-112.5"/>
<text text-anchor="middle" x="285" y="-119.5" font-family="Helvetica,sans-Serif" font-size="10.00">time.h</text>
</g>
<!-- Node13&#45;&gt;Node16 -->
<g id="edge23" class="edge"><title>Node13&#45;&gt;Node16</title>
<path fill="none" stroke="midnightblue" d="M207.781,-168.324C222.267,-159.822 244.573,-146.729 261.493,-136.797"/>
<polygon fill="midnightblue" stroke="midnightblue" points="263.403,-139.735 270.255,-131.655 259.859,-133.698 263.403,-139.735"/>
</g>
</g>
</svg>
