<?xml version="1.0" encoding="UTF-8" standalone="no"?>
<!DOCTYPE svg PUBLIC "-//W3C//DTD SVG 1.1//EN"
 "http://www.w3.org/Graphics/SVG/1.1/DTD/svg11.dtd">
<!-- Generated by graphviz version 2.38.0 (20140413.2041)
 -->
<!-- Title: motion.cpp Pages: 1 -->
<svg width="313pt" height="196pt"
 viewBox="0.00 0.00 313.00 196.00" xmlns="http://www.w3.org/2000/svg" xmlns:xlink="http://www.w3.org/1999/xlink">
<g id="graph0" class="graph" transform="scale(1 1) rotate(0) translate(4 192)">
<title>motion.cpp</title>
<polygon fill="white" stroke="none" points="-4,4 -4,-192 309,-192 309,4 -4,4"/>
<!-- Node0 -->
<g id="node1" class="node"><title>Node0</title>
<polygon fill="#bfbfbf" stroke="black" points="101.5,-168.5 101.5,-187.5 166.5,-187.5 166.5,-168.5 101.5,-168.5"/>
<text text-anchor="middle" x="134" y="-175.5" font-family="Helvetica,sans-Serif" font-size="10.00">motion.cpp</text>
</g>
<!-- Node1 -->
<g id="node2" class="node"><title>Node1</title>
<g id="a_node2"><a xlink:href="$motion_8h.html" xlink:title="motion.h">
<polygon fill="white" stroke="black" points="33,-112.5 33,-131.5 87,-131.5 87,-112.5 33,-112.5"/>
<text text-anchor="middle" x="60" y="-119.5" font-family="Helvetica,sans-Serif" font-size="10.00">motion.h</text>
</a>
</g>
</g>
<!-- Node0&#45;&gt;Node1 -->
<g id="edge1" class="edge"><title>Node0&#45;&gt;Node1</title>
<path fill="none" stroke="midnightblue" d="M122.111,-168.324C110.85,-160.107 93.7134,-147.602 80.2909,-137.807"/>
<polygon fill="midnightblue" stroke="midnightblue" points="82.2468,-134.901 72.1057,-131.834 78.1205,-140.556 82.2468,-134.901"/>
</g>
<!-- Node2 -->
<g id="node3" class="node"><title>Node2</title>
<polygon fill="white" stroke="#bfbfbf" points="0,-56.5 0,-75.5 42,-75.5 42,-56.5 0,-56.5"/>
<text text-anchor="middle" x="21" y="-63.5" font-family="Helvetica,sans-Serif" font-size="10.00">vector</text>
</g>
<!-- Node0&#45;&gt;Node2 -->
<g id="edge6" class="edge"><title>Node0&#45;&gt;Node2</title>
<path fill="none" stroke="midnightblue" d="M101.443,-173.105C75.8463,-168.171 41.6609,-157.039 24,-132 14.5464,-118.597 14.8509,-99.4898 16.8858,-85.4595"/>
<polygon fill="midnightblue" stroke="midnightblue" points="20.3502,-85.9729 18.7353,-75.5018 13.4679,-84.6945 20.3502,-85.9729"/>
</g>
<!-- Node3 -->
<g id="node4" class="node"><title>Node3</title>
<g id="a_node4"><a xlink:href="$servo_8h.html" xlink:title="servo.h">
<polygon fill="white" stroke="black" points="77.5,-56.5 77.5,-75.5 124.5,-75.5 124.5,-56.5 77.5,-56.5"/>
<text text-anchor="middle" x="101" y="-63.5" font-family="Helvetica,sans-Serif" font-size="10.00">servo.h</text>
</a>
</g>
</g>
<!-- Node0&#45;&gt;Node3 -->
<g id="edge5" class="edge"><title>Node0&#45;&gt;Node3</title>
<path fill="none" stroke="midnightblue" d="M131.411,-168.368C126.061,-150.537 113.689,-109.295 106.482,-85.2717"/>
<polygon fill="midnightblue" stroke="midnightblue" points="109.803,-84.1639 103.577,-75.5914 103.099,-86.1754 109.803,-84.1639"/>
</g>
<!-- Node4 -->
<g id="node5" class="node"><title>Node4</title>
<g id="a_node5"><a xlink:href="$_brick_pi3_8h.html" xlink:title="BrickPi3.h">
<polygon fill="white" stroke="black" points="96,-0.5 96,-19.5 158,-19.5 158,-0.5 96,-0.5"/>
<text text-anchor="middle" x="127" y="-7.5" font-family="Helvetica,sans-Serif" font-size="10.00">BrickPi3.h</text>
</a>
</g>
</g>
<!-- Node0&#45;&gt;Node4 -->
<g id="edge7" class="edge"><title>Node0&#45;&gt;Node4</title>
<path fill="none" stroke="midnightblue" d="M134.293,-168.477C134.893,-148.692 135.971,-98.1208 133,-56 132.389,-47.3431 131.194,-37.8082 130.03,-29.752"/>
<polygon fill="midnightblue" stroke="midnightblue" points="133.447,-28.9468 128.469,-19.5943 126.529,-30.0098 133.447,-28.9468"/>
</g>
<!-- Node5 -->
<g id="node6" class="node"><title>Node5</title>
<polygon fill="white" stroke="#bfbfbf" points="181.5,-112.5 181.5,-131.5 232.5,-131.5 232.5,-112.5 181.5,-112.5"/>
<text text-anchor="middle" x="207" y="-119.5" font-family="Helvetica,sans-Serif" font-size="10.00">unistd.h</text>
</g>
<!-- Node0&#45;&gt;Node5 -->
<g id="edge8" class="edge"><title>Node0&#45;&gt;Node5</title>
<path fill="none" stroke="midnightblue" d="M145.729,-168.324C156.837,-160.107 173.742,-147.602 186.983,-137.807"/>
<polygon fill="midnightblue" stroke="midnightblue" points="189.1,-140.595 195.058,-131.834 184.937,-134.967 189.1,-140.595"/>
</g>
<!-- Node6 -->
<g id="node7" class="node"><title>Node6</title>
<polygon fill="white" stroke="#bfbfbf" points="251,-112.5 251,-131.5 305,-131.5 305,-112.5 251,-112.5"/>
<text text-anchor="middle" x="278" y="-119.5" font-family="Helvetica,sans-Serif" font-size="10.00">iostream</text>
</g>
<!-- Node0&#45;&gt;Node6 -->
<g id="edge9" class="edge"><title>Node0&#45;&gt;Node6</title>
<path fill="none" stroke="midnightblue" d="M156.817,-168.444C180.832,-159.438 218.829,-145.189 245.869,-135.049"/>
<polygon fill="midnightblue" stroke="midnightblue" points="247.155,-138.305 255.29,-131.516 244.697,-131.751 247.155,-138.305"/>
</g>
<!-- Node1&#45;&gt;Node2 -->
<g id="edge2" class="edge"><title>Node1&#45;&gt;Node2</title>
<path fill="none" stroke="midnightblue" d="M53.5599,-112.083C48.0511,-104.455 39.9688,-93.2645 33.235,-83.9408"/>
<polygon fill="midnightblue" stroke="midnightblue" points="36.0126,-81.8087 27.3202,-75.7511 30.3378,-85.9071 36.0126,-81.8087"/>
</g>
<!-- Node1&#45;&gt;Node3 -->
<g id="edge3" class="edge"><title>Node1&#45;&gt;Node3</title>
<path fill="none" stroke="midnightblue" d="M66.7703,-112.083C72.5616,-104.455 81.0585,-93.2645 88.1375,-83.9408"/>
<polygon fill="midnightblue" stroke="midnightblue" points="91.0961,-85.8321 94.3557,-75.7511 85.521,-81.5991 91.0961,-85.8321"/>
</g>
<!-- Node3&#45;&gt;Node4 -->
<g id="edge4" class="edge"><title>Node3&#45;&gt;Node4</title>
<path fill="none" stroke="midnightblue" d="M105.293,-56.083C108.852,-48.6913 114.022,-37.9533 118.424,-28.8111"/>
<polygon fill="midnightblue" stroke="midnightblue" points="121.602,-30.2795 122.787,-19.7511 115.295,-27.2427 121.602,-30.2795"/>
</g>
</g>
</svg>
