<?xml version="1.0" encoding="UTF-8" standalone="no"?>
<!DOCTYPE svg PUBLIC "-//W3C//DTD SVG 1.1//EN"
 "http://www.w3.org/Graphics/SVG/1.1/DTD/svg11.dtd">
<!-- Generated by graphviz version 2.38.0 (20140413.2041)
 -->
<!-- Title: notify.cpp Pages: 1 -->
<svg width="316pt" height="140pt"
 viewBox="0.00 0.00 315.50 140.00" xmlns="http://www.w3.org/2000/svg" xmlns:xlink="http://www.w3.org/1999/xlink">
<g id="graph0" class="graph" transform="scale(1 1) rotate(0) translate(4 136)">
<title>notify.cpp</title>
<polygon fill="white" stroke="none" points="-4,4 -4,-136 311.5,-136 311.5,4 -4,4"/>
<!-- Node0 -->
<g id="node1" class="node"><title>Node0</title>
<polygon fill="#bfbfbf" stroke="black" points="37,-112.5 37,-131.5 96,-131.5 96,-112.5 37,-112.5"/>
<text text-anchor="middle" x="66.5" y="-119.5" font-family="Helvetica,sans-Serif" font-size="10.00">notify.cpp</text>
</g>
<!-- Node1 -->
<g id="node2" class="node"><title>Node1</title>
<g id="a_node2"><a xlink:href="$notify_8h.html" xlink:title="notify.h">
<polygon fill="white" stroke="black" points="16.5,-56.5 16.5,-75.5 64.5,-75.5 64.5,-56.5 16.5,-56.5"/>
<text text-anchor="middle" x="40.5" y="-63.5" font-family="Helvetica,sans-Serif" font-size="10.00">notify.h</text>
</a>
</g>
</g>
<!-- Node0&#45;&gt;Node1 -->
<g id="edge1" class="edge"><title>Node0&#45;&gt;Node1</title>
<path fill="none" stroke="midnightblue" d="M62.2066,-112.083C58.6477,-104.691 53.4775,-93.9533 49.0757,-84.8111"/>
<polygon fill="midnightblue" stroke="midnightblue" points="52.2052,-83.2427 44.7135,-75.7511 45.8982,-86.2795 52.2052,-83.2427"/>
</g>
<!-- Node2 -->
<g id="node3" class="node"><title>Node2</title>
<polygon fill="white" stroke="#bfbfbf" points="0,-0.5 0,-19.5 41,-19.5 41,-0.5 0,-0.5"/>
<text text-anchor="middle" x="20.5" y="-7.5" font-family="Helvetica,sans-Serif" font-size="10.00">string</text>
</g>
<!-- Node0&#45;&gt;Node2 -->
<g id="edge4" class="edge"><title>Node0&#45;&gt;Node2</title>
<path fill="none" stroke="midnightblue" d="M47.5158,-112.398C33.6137,-104.954 15.7861,-92.741 7.5,-76 0.177563,-61.2059 5.1419,-42.5841 10.9232,-29.0684"/>
<polygon fill="midnightblue" stroke="midnightblue" points="14.1619,-30.4082 15.3134,-19.8761 7.84538,-27.3914 14.1619,-30.4082"/>
</g>
<!-- Node3 -->
<g id="node4" class="node"><title>Node3</title>
<polygon fill="white" stroke="#bfbfbf" points="59.5,-0.5 59.5,-19.5 113.5,-19.5 113.5,-0.5 59.5,-0.5"/>
<text text-anchor="middle" x="86.5" y="-7.5" font-family="Helvetica,sans-Serif" font-size="10.00">iostream</text>
</g>
<!-- Node0&#45;&gt;Node3 -->
<g id="edge3" class="edge"><title>Node0&#45;&gt;Node3</title>
<path fill="none" stroke="midnightblue" d="M68.0694,-112.368C71.2969,-94.617 78.7425,-53.6664 83.1186,-29.5974"/>
<polygon fill="midnightblue" stroke="midnightblue" points="86.5925,-30.0562 84.9379,-19.5914 79.7054,-28.804 86.5925,-30.0562"/>
</g>
<!-- Node4 -->
<g id="node5" class="node"><title>Node4</title>
<g id="a_node5"><a xlink:href="$log_8h.html" xlink:title="log.h">
<polygon fill="white" stroke="black" points="126.5,-56.5 126.5,-75.5 164.5,-75.5 164.5,-56.5 126.5,-56.5"/>
<text text-anchor="middle" x="145.5" y="-63.5" font-family="Helvetica,sans-Serif" font-size="10.00">log.h</text>
</a>
</g>
</g>
<!-- Node0&#45;&gt;Node4 -->
<g id="edge5" class="edge"><title>Node0&#45;&gt;Node4</title>
<path fill="none" stroke="midnightblue" d="M79.1927,-112.324C91.4011,-103.979 110.078,-91.2122 124.503,-81.3524"/>
<polygon fill="midnightblue" stroke="midnightblue" points="126.558,-84.1871 132.839,-75.6545 122.608,-78.4082 126.558,-84.1871"/>
</g>
<!-- Node1&#45;&gt;Node2 -->
<g id="edge2" class="edge"><title>Node1&#45;&gt;Node2</title>
<path fill="none" stroke="midnightblue" d="M37.1974,-56.083C34.518,-48.8486 30.6514,-38.4087 27.3136,-29.3968"/>
<polygon fill="midnightblue" stroke="midnightblue" points="30.4965,-27.9129 23.7411,-19.7511 23.9322,-30.3442 30.4965,-27.9129"/>
</g>
<!-- Node4&#45;&gt;Node2 -->
<g id="edge8" class="edge"><title>Node4&#45;&gt;Node2</title>
<path fill="none" stroke="midnightblue" d="M126.243,-56.6808C105.778,-47.8401 73.1808,-33.7581 49.5847,-23.5646"/>
<polygon fill="midnightblue" stroke="midnightblue" points="50.9675,-20.3494 40.3994,-19.5966 48.1914,-26.7754 50.9675,-20.3494"/>
</g>
<!-- Node4&#45;&gt;Node3 -->
<g id="edge6" class="edge"><title>Node4&#45;&gt;Node3</title>
<path fill="none" stroke="midnightblue" d="M136.021,-56.324C127.299,-48.3414 114.157,-36.3128 103.602,-26.6529"/>
<polygon fill="midnightblue" stroke="midnightblue" points="105.892,-24.0036 96.1519,-19.8339 101.166,-29.1674 105.892,-24.0036"/>
</g>
<!-- Node5 -->
<g id="node6" class="node"><title>Node5</title>
<polygon fill="white" stroke="#bfbfbf" points="132,-0.5 132,-19.5 181,-19.5 181,-0.5 132,-0.5"/>
<text text-anchor="middle" x="156.5" y="-7.5" font-family="Helvetica,sans-Serif" font-size="10.00">fstream</text>
</g>
<!-- Node4&#45;&gt;Node5 -->
<g id="edge7" class="edge"><title>Node4&#45;&gt;Node5</title>
<path fill="none" stroke="midnightblue" d="M147.316,-56.083C148.774,-48.9272 150.871,-38.6353 152.693,-29.6911"/>
<polygon fill="midnightblue" stroke="midnightblue" points="156.151,-30.2485 154.717,-19.7511 149.292,-28.8512 156.151,-30.2485"/>
</g>
<!-- Node6 -->
<g id="node7" class="node"><title>Node6</title>
<polygon fill="white" stroke="#bfbfbf" points="199.5,-0.5 199.5,-19.5 245.5,-19.5 245.5,-0.5 199.5,-0.5"/>
<text text-anchor="middle" x="222.5" y="-7.5" font-family="Helvetica,sans-Serif" font-size="10.00">stdio.h</text>
</g>
<!-- Node4&#45;&gt;Node6 -->
<g id="edge9" class="edge"><title>Node4&#45;&gt;Node6</title>
<path fill="none" stroke="midnightblue" d="M157.871,-56.324C169.658,-48.0577 187.632,-35.4527 201.636,-25.6322"/>
<polygon fill="midnightblue" stroke="midnightblue" points="203.982,-28.2619 210.159,-19.6545 199.962,-22.5307 203.982,-28.2619"/>
</g>
<!-- Node7 -->
<g id="node8" class="node"><title>Node7</title>
<polygon fill="white" stroke="#bfbfbf" points="263.5,-0.5 263.5,-19.5 307.5,-19.5 307.5,-0.5 263.5,-0.5"/>
<text text-anchor="middle" x="285.5" y="-7.5" font-family="Helvetica,sans-Serif" font-size="10.00">time.h</text>
</g>
<!-- Node4&#45;&gt;Node7 -->
<g id="edge10" class="edge"><title>Node4&#45;&gt;Node7</title>
<path fill="none" stroke="midnightblue" d="M164.673,-57.6048C187.617,-48.755 226.366,-33.8087 253.79,-23.2309"/>
<polygon fill="midnightblue" stroke="midnightblue" points="255.261,-26.4152 263.331,-19.5509 252.741,-19.8841 255.261,-26.4152"/>
</g>
</g>
</svg>
