<?xml version="1.0" encoding="UTF-8" standalone="no"?>
<!DOCTYPE svg PUBLIC "-//W3C//DTD SVG 1.1//EN"
 "http://www.w3.org/Graphics/SVG/1.1/DTD/svg11.dtd">
<!-- Generated by graphviz version 2.38.0 (20140413.2041)
 -->
<!-- Title: servo.cpp Pages: 1 -->
<svg width="304pt" height="140pt"
 viewBox="0.00 0.00 303.50 140.00" xmlns="http://www.w3.org/2000/svg" xmlns:xlink="http://www.w3.org/1999/xlink">
<g id="graph0" class="graph" transform="scale(1 1) rotate(0) translate(4 136)">
<title>servo.cpp</title>
<polygon fill="white" stroke="none" points="-4,4 -4,-136 299.5,-136 299.5,4 -4,4"/>
<!-- Node0 -->
<g id="node1" class="node"><title>Node0</title>
<polygon fill="#bfbfbf" stroke="black" points="101.5,-112.5 101.5,-131.5 159.5,-131.5 159.5,-112.5 101.5,-112.5"/>
<text text-anchor="middle" x="130.5" y="-119.5" font-family="Helvetica,sans-Serif" font-size="10.00">servo.cpp</text>
</g>
<!-- Node1 -->
<g id="node2" class="node"><title>Node1</title>
<g id="a_node2"><a xlink:href="$servo_8h.html" xlink:title="servo.h">
<polygon fill="white" stroke="black" points="0,-56.5 0,-75.5 47,-75.5 47,-56.5 0,-56.5"/>
<text text-anchor="middle" x="23.5" y="-63.5" font-family="Helvetica,sans-Serif" font-size="10.00">servo.h</text>
</a>
</g>
</g>
<!-- Node0&#45;&gt;Node1 -->
<g id="edge1" class="edge"><title>Node0&#45;&gt;Node1</title>
<path fill="none" stroke="midnightblue" d="M113.309,-112.324C96.1491,-103.664 69.5543,-90.2424 49.7527,-80.249"/>
<polygon fill="midnightblue" stroke="midnightblue" points="51.1532,-77.0354 40.6487,-75.6545 47.9993,-83.2847 51.1532,-77.0354"/>
</g>
<!-- Node2 -->
<g id="node3" class="node"><title>Node2</title>
<g id="a_node3"><a xlink:href="$_brick_pi3_8h.html" xlink:title="BrickPi3.h">
<polygon fill="white" stroke="black" points="18.5,-0.5 18.5,-19.5 80.5,-19.5 80.5,-0.5 18.5,-0.5"/>
<text text-anchor="middle" x="49.5" y="-7.5" font-family="Helvetica,sans-Serif" font-size="10.00">BrickPi3.h</text>
</a>
</g>
</g>
<!-- Node0&#45;&gt;Node2 -->
<g id="edge3" class="edge"><title>Node0&#45;&gt;Node2</title>
<path fill="none" stroke="midnightblue" d="M123.143,-112.178C115.734,-103.207 104.062,-88.8384 94.5,-76 82.6255,-60.056 69.7824,-41.346 60.8682,-28.104"/>
<polygon fill="midnightblue" stroke="midnightblue" points="63.6117,-25.9105 55.1416,-19.5459 57.794,-29.8034 63.6117,-25.9105"/>
</g>
<!-- Node3 -->
<g id="node4" class="node"><title>Node3</title>
<polygon fill="white" stroke="#bfbfbf" points="103.5,-56.5 103.5,-75.5 157.5,-75.5 157.5,-56.5 103.5,-56.5"/>
<text text-anchor="middle" x="130.5" y="-63.5" font-family="Helvetica,sans-Serif" font-size="10.00">iostream</text>
</g>
<!-- Node0&#45;&gt;Node3 -->
<g id="edge4" class="edge"><title>Node0&#45;&gt;Node3</title>
<path fill="none" stroke="midnightblue" d="M130.5,-112.083C130.5,-105.006 130.5,-94.8611 130.5,-85.9865"/>
<polygon fill="midnightblue" stroke="midnightblue" points="134,-85.751 130.5,-75.7511 127,-85.7511 134,-85.751"/>
</g>
<!-- Node4 -->
<g id="node5" class="node"><title>Node4</title>
<polygon fill="white" stroke="#bfbfbf" points="176,-56.5 176,-75.5 227,-75.5 227,-56.5 176,-56.5"/>
<text text-anchor="middle" x="201.5" y="-63.5" font-family="Helvetica,sans-Serif" font-size="10.00">unistd.h</text>
</g>
<!-- Node0&#45;&gt;Node4 -->
<g id="edge5" class="edge"><title>Node0&#45;&gt;Node4</title>
<path fill="none" stroke="midnightblue" d="M141.907,-112.324C152.609,-104.185 168.841,-91.8395 181.663,-82.0874"/>
<polygon fill="midnightblue" stroke="midnightblue" points="184.044,-84.6734 189.885,-75.8339 179.807,-79.1018 184.044,-84.6734"/>
</g>
<!-- Node5 -->
<g id="node6" class="node"><title>Node5</title>
<polygon fill="white" stroke="#bfbfbf" points="245.5,-56.5 245.5,-75.5 295.5,-75.5 295.5,-56.5 245.5,-56.5"/>
<text text-anchor="middle" x="270.5" y="-63.5" font-family="Helvetica,sans-Serif" font-size="10.00">signal.h</text>
</g>
<!-- Node0&#45;&gt;Node5 -->
<g id="edge6" class="edge"><title>Node0&#45;&gt;Node5</title>
<path fill="none" stroke="midnightblue" d="M152.683,-112.444C175.928,-103.478 212.649,-89.314 238.915,-79.1827"/>
<polygon fill="midnightblue" stroke="midnightblue" points="240.35,-82.3807 248.42,-75.5164 237.831,-75.8497 240.35,-82.3807"/>
</g>
<!-- Node1&#45;&gt;Node2 -->
<g id="edge2" class="edge"><title>Node1&#45;&gt;Node2</title>
<path fill="none" stroke="midnightblue" d="M27.7934,-56.083C31.3523,-48.6913 36.5225,-37.9533 40.9243,-28.8111"/>
<polygon fill="midnightblue" stroke="midnightblue" points="44.1018,-30.2795 45.2865,-19.7511 37.7948,-27.2427 44.1018,-30.2795"/>
</g>
</g>
</svg>
