<?xml version="1.0" encoding="UTF-8" standalone="no"?>
<!DOCTYPE svg PUBLIC "-//W3C//DTD SVG 1.1//EN"
 "http://www.w3.org/Graphics/SVG/1.1/DTD/svg11.dtd">
<!-- Generated by graphviz version 2.38.0 (20140413.2041)
 -->
<!-- Title: state.h Pages: 1 -->
<svg width="140pt" height="84pt"
 viewBox="0.00 0.00 139.50 84.00" xmlns="http://www.w3.org/2000/svg" xmlns:xlink="http://www.w3.org/1999/xlink">
<g id="graph0" class="graph" transform="scale(1 1) rotate(0) translate(4 80)">
<title>state.h</title>
<polygon fill="white" stroke="none" points="-4,4 -4,-80 135.5,-80 135.5,4 -4,4"/>
<!-- Node16 -->
<g id="node1" class="node"><title>Node16</title>
<polygon fill="#bfbfbf" stroke="black" points="41.5,-56.5 41.5,-75.5 88.5,-75.5 88.5,-56.5 41.5,-56.5"/>
<text text-anchor="middle" x="65" y="-63.5" font-family="Helvetica,sans-Serif" font-size="10.00">state.h</text>
</g>
<!-- Node17 -->
<g id="node2" class="node"><title>Node17</title>
<g id="a_node2"><a xlink:href="$main_8cpp.html" xlink:title="main.cpp">
<polygon fill="white" stroke="black" points="0,-0.5 0,-19.5 56,-19.5 56,-0.5 0,-0.5"/>
<text text-anchor="middle" x="28" y="-7.5" font-family="Helvetica,sans-Serif" font-size="10.00">main.cpp</text>
</a>
</g>
</g>
<!-- Node16&#45;&gt;Node17 -->
<g id="edge1" class="edge"><title>Node16&#45;&gt;Node17</title>
<path fill="none" stroke="midnightblue" d="M53.0542,-47.5656C46.6883,-38.2747 39.1332,-27.2484 33.9961,-19.7511"/>
<polygon fill="midnightblue" stroke="midnightblue" points="50.3506,-49.812 58.8902,-56.083 56.1251,-45.8553 50.3506,-49.812"/>
</g>
<!-- Node18 -->
<g id="node3" class="node"><title>Node18</title>
<g id="a_node3"><a xlink:href="$state_8cpp.html" xlink:title="state.cpp">
<polygon fill="white" stroke="black" points="74.5,-0.5 74.5,-19.5 131.5,-19.5 131.5,-0.5 74.5,-0.5"/>
<text text-anchor="middle" x="103" y="-7.5" font-family="Helvetica,sans-Serif" font-size="10.00">state.cpp</text>
</a>
</g>
</g>
<!-- Node16&#45;&gt;Node18 -->
<g id="edge2" class="edge"><title>Node16&#45;&gt;Node18</title>
<path fill="none" stroke="midnightblue" d="M77.0647,-47.8554C83.6447,-38.5048 91.511,-27.3265 96.8418,-19.7511"/>
<polygon fill="midnightblue" stroke="midnightblue" points="74.1676,-45.8907 71.2749,-56.083 79.8922,-49.9192 74.1676,-45.8907"/>
</g>
</g>
</svg>
